{"buffers":[{"uri":"eau.bin","byteLength":47864}],"asset":{"version":"2.0","generator":"gltfpack 0.14"},"extensionsUsed":["KHR_mesh_quantization","KHR_texture_transform"],"extensionsRequired":["KHR_mesh_quantization"],"bufferViews":[{"buffer":0,"byteOffset":0,"byteLength":14008,"byteStride":8,"target":34962},{"buffer":0,"byteOffset":14008,"byteLength":7004,"byteStride":4,"target":34962},{"buffer":0,"byteOffset":21012,"byteLength":7004,"byteStride":4,"target":34962},{"buffer":0,"byteOffset":28016,"byteLength":19848,"target":34963}],"accessors":[{"bufferView":0,"byteOffset":0,"componentType":5123,"count":1751,"type":"VEC3","min":[0,0,0],"max":[16383,2356,12409]},{"bufferView":1,"byteOffset":0,"componentType":5120,"count":1751,"type":"VEC3","normalized":true},{"bufferView":2,"byteOffset":0,"componentType":5123,"count":1751,"type":"VEC2"},{"bufferView":3,"byteOffset":0,"componentType":5123,"count":9924,"type":"SCALAR"}],"images":[{"uri":"bleu.png"}],"textures":[{"source":0}],"materials":[{"name":"eau","pbrMetallicRoughness":{"baseColorTexture":{"index":0,"texCoord":0,"extensions":{"KHR_texture_transform":{"offset":[0,-0.0028834343],"scale":[0.000244200259,0.000244904368]}}},"metallicFactor":0,"roughnessFactor":0.5},"doubleSided":true}],"meshes":[{"primitives":[{"attributes":{"POSITION":0,"NORMAL":1,"TEXCOORD_0":2},"mode":4,"indices":3,"material":0}]}],"nodes":[{"mesh":0,"translation":[-1.61326647,-0.579572141,-0.734816372],"scale":[0.000227218887,0.000227218887,0.000227218887]}],"scenes":[{"nodes":[0]}],"scene":0}