{"buffers":[{"uri":"parlement.bin","byteLength":119184}],"asset":{"version":"2.0","generator":"gltfpack 0.14"},"extensionsUsed":["KHR_mesh_quantization","KHR_texture_transform"],"extensionsRequired":["KHR_mesh_quantization"],"bufferViews":[{"buffer":0,"byteOffset":0,"byteLength":47280,"byteStride":8,"target":34962},{"buffer":0,"byteOffset":47280,"byteLength":23640,"byteStride":4,"target":34962},{"buffer":0,"byteOffset":70920,"byteLength":23640,"byteStride":4,"target":34962},{"buffer":0,"byteOffset":94560,"byteLength":24624,"target":34963}],"accessors":[{"bufferView":0,"byteOffset":0,"componentType":5123,"count":3637,"type":"VEC3","min":[0,0,0],"max":[12161,4060,16383]},{"bufferView":1,"byteOffset":0,"componentType":5120,"count":3637,"type":"VEC3","normalized":true},{"bufferView":2,"byteOffset":0,"componentType":5123,"count":3637,"type":"VEC2"},{"bufferView":3,"byteOffset":0,"componentType":5123,"count":8856,"type":"SCALAR"},{"bufferView":0,"byteOffset":29096,"componentType":5123,"count":320,"type":"VEC3","min":[6203,276,6203],"max":[10180,5167,10180]},{"bufferView":1,"byteOffset":14548,"componentType":5120,"count":320,"type":"VEC3","normalized":true},{"bufferView":2,"byteOffset":14548,"componentType":5123,"count":320,"type":"VEC2"},{"bufferView":3,"byteOffset":17712,"componentType":5123,"count":576,"type":"SCALAR"},{"bufferView":0,"byteOffset":31656,"componentType":5123,"count":1953,"type":"VEC3","min":[1469,1434,9081],"max":[4544,3838,12261]},{"bufferView":1,"byteOffset":15828,"componentType":5120,"count":1953,"type":"VEC3","normalized":true},{"bufferView":2,"byteOffset":15828,"componentType":5123,"count":1953,"type":"VEC2"},{"bufferView":3,"byteOffset":18864,"componentType":5123,"count":2880,"type":"SCALAR"}],"images":[{"uri":"teal.png"},{"uri":"rouge.png"},{"uri":"tungsten.png"}],"textures":[{"source":0},{"source":1},{"source":2}],"materials":[{"name":"Material.018","pbrMetallicRoughness":{"baseColorTexture":{"index":0,"texCoord":0,"extensions":{"KHR_texture_transform":{"offset":[0,0],"scale":[0.000244200259,0.000244200259]}}},"metallicFactor":0,"roughnessFactor":0.5},"doubleSided":true},{"name":"Material.019","pbrMetallicRoughness":{"baseColorTexture":{"index":1,"texCoord":0,"extensions":{"KHR_texture_transform":{"offset":[0.00999999978,0.50999999],"scale":[0.000117216121,0.000117216121]}}},"metallicFactor":0,"roughnessFactor":0.5},"doubleSided":true},{"name":"Material.020","pbrMetallicRoughness":{"baseColorTexture":{"index":2,"texCoord":0,"extensions":{"KHR_texture_transform":{"offset":[0,0],"scale":[0.000244200259,0.000244200259]}}},"metallicFactor":0,"roughnessFactor":0.5},"doubleSided":true}],"meshes":[{"primitives":[{"attributes":{"POSITION":0,"NORMAL":1,"TEXCOORD_0":2},"mode":4,"indices":3,"material":0},{"attributes":{"POSITION":4,"NORMAL":5,"TEXCOORD_0":6},"mode":4,"indices":7,"material":1},{"attributes":{"POSITION":8,"NORMAL":9,"TEXCOORD_0":10},"mode":4,"indices":11,"material":2}]}],"nodes":[{"mesh":0,"translation":[-2.12437987,-0.00436840486,1.52507699],"scale":[3.22155029e-05,3.22155029e-05,3.22155029e-05]}],"scenes":[{"nodes":[0]}],"scene":0}