{"buffers":[{"uri":"rail.bin","byteLength":531200}],"asset":{"version":"2.0","generator":"gltfpack 0.14"},"extensionsUsed":["KHR_mesh_quantization","KHR_texture_transform"],"extensionsRequired":["KHR_mesh_quantization"],"bufferViews":[{"buffer":0,"byteOffset":0,"byteLength":155008,"byteStride":8,"target":34962},{"buffer":0,"byteOffset":155008,"byteLength":77504,"byteStride":4,"target":34962},{"buffer":0,"byteOffset":232512,"byteLength":77504,"byteStride":4,"target":34962},{"buffer":0,"byteOffset":310016,"byteLength":221184,"target":34963}],"accessors":[{"bufferView":0,"byteOffset":0,"componentType":5123,"count":19376,"type":"VEC3","min":[0,0,0],"max":[16383,7,16373]},{"bufferView":1,"byteOffset":0,"componentType":5120,"count":19376,"type":"VEC3","normalized":true},{"bufferView":2,"byteOffset":0,"componentType":5123,"count":19376,"type":"VEC2"},{"bufferView":3,"byteOffset":0,"componentType":5123,"count":110592,"type":"SCALAR"}],"images":[{"uri":"brun.png"}],"textures":[{"source":0}],"materials":[{"name":"brun","pbrMetallicRoughness":{"baseColorTexture":{"index":0,"texCoord":0,"extensions":{"KHR_texture_transform":{"offset":[0,-1.1920929e-07],"scale":[0.000244200288,0.000244200288]}}},"metallicFactor":0,"roughnessFactor":0.5},"doubleSided":true}],"meshes":[{"primitives":[{"attributes":{"POSITION":0,"NORMAL":1,"TEXCOORD_0":2},"mode":4,"indices":3,"material":0}]}],"nodes":[{"mesh":0,"translation":[-1.99464166,-0.0240579192,-1.99085248],"scale":[0.000243476068,0.000243476068,0.000243476068]}],"scenes":[{"nodes":[0]}],"scene":0}