{"buffers":[{"uri":"route.bin","byteLength":32960}],"asset":{"version":"2.0","generator":"gltfpack 0.14"},"extensionsUsed":["KHR_mesh_quantization","KHR_texture_transform"],"extensionsRequired":["KHR_mesh_quantization"],"bufferViews":[{"buffer":0,"byteOffset":0,"byteLength":13792,"byteStride":8,"target":34962},{"buffer":0,"byteOffset":13792,"byteLength":6896,"byteStride":4,"target":34962},{"buffer":0,"byteOffset":20688,"byteLength":6896,"byteStride":4,"target":34962},{"buffer":0,"byteOffset":27584,"byteLength":5376,"target":34963}],"accessors":[{"bufferView":0,"byteOffset":0,"componentType":5123,"count":1132,"type":"VEC3","min":[0,0,0],"max":[16383,120,16317]},{"bufferView":1,"byteOffset":0,"componentType":5120,"count":1132,"type":"VEC3","normalized":true},{"bufferView":2,"byteOffset":0,"componentType":5123,"count":1132,"type":"VEC2"},{"bufferView":3,"byteOffset":0,"componentType":5123,"count":1800,"type":"SCALAR"},{"bufferView":0,"byteOffset":9056,"componentType":5123,"count":592,"type":"VEC3","min":[0,0,0],"max":[16382,120,16317]},{"bufferView":1,"byteOffset":4528,"componentType":5120,"count":592,"type":"VEC3","normalized":true},{"bufferView":2,"byteOffset":4528,"componentType":5123,"count":592,"type":"VEC2"},{"bufferView":3,"byteOffset":3600,"componentType":5123,"count":888,"type":"SCALAR"}],"images":[{"uri":"mercury.png"},{"uri":"tungsten.png"}],"textures":[{"source":0},{"source":1}],"materials":[{"name":"mercury","pbrMetallicRoughness":{"baseColorTexture":{"index":0,"texCoord":0,"extensions":{"KHR_texture_transform":{"offset":[0,0.249930382],"scale":[0.00021367523,0.000183167183]}}},"metallicFactor":0,"roughnessFactor":0.5},"doubleSided":true},{"name":"tungsten","pbrMetallicRoughness":{"baseColorTexture":{"index":1,"texCoord":0,"extensions":{"KHR_texture_transform":{"offset":[0.625,0.24999994],"scale":[6.10500647e-05,6.10500938e-05]}}},"metallicFactor":0,"roughnessFactor":0.5},"doubleSided":true}],"meshes":[{"primitives":[{"attributes":{"POSITION":0,"NORMAL":1,"TEXCOORD_0":2},"mode":4,"indices":3,"material":0},{"attributes":{"POSITION":4,"NORMAL":5,"TEXCOORD_0":6},"mode":4,"indices":7,"material":1}]}],"nodes":[{"mesh":0,"translation":[-1.74443471,-0.00918489881,-1.7343812],"scale":[0.000229992336,0.000229992336,0.000229992336]}],"scenes":[{"nodes":[0]}],"scene":0}