{"buffers":[{"uri":"tram.bin","byteLength":1530624}],"asset":{"version":"2.0","generator":"gltfpack 0.14"},"extensionsUsed":["KHR_mesh_quantization"],"extensionsRequired":["KHR_mesh_quantization"],"bufferViews":[{"buffer":0,"byteOffset":0,"byteLength":744320,"byteStride":8,"target":34962},{"buffer":0,"byteOffset":744320,"byteLength":372160,"byteStride":4,"target":34962},{"buffer":0,"byteOffset":1116480,"byteLength":414144,"target":34963}],"accessors":[{"bufferView":0,"byteOffset":0,"componentType":5123,"count":416,"type":"VEC3","min":[140,2,0],"max":[16271,23,16190]},{"bufferView":1,"byteOffset":0,"componentType":5120,"count":416,"type":"VEC3","normalized":true},{"bufferView":2,"byteOffset":0,"componentType":5123,"count":864,"type":"SCALAR"},{"bufferView":0,"byteOffset":3328,"componentType":5123,"count":512,"type":"VEC3","min":[140,2,0],"max":[16271,23,16190]},{"bufferView":1,"byteOffset":1664,"componentType":5120,"count":512,"type":"VEC3","normalized":true},{"bufferView":2,"byteOffset":1728,"componentType":5123,"count":960,"type":"SCALAR"},{"bufferView":0,"byteOffset":7424,"componentType":5123,"count":7296,"type":"VEC3","min":[314,20,134],"max":[16136,62,16017]},{"bufferView":1,"byteOffset":3712,"componentType":5120,"count":7296,"type":"VEC3","normalized":true},{"bufferView":2,"byteOffset":3648,"componentType":5123,"count":11136,"type":"SCALAR"},{"bufferView":0,"byteOffset":65792,"componentType":5123,"count":3200,"type":"VEC3","min":[314,61,134],"max":[16136,73,16017]},{"bufferView":1,"byteOffset":32896,"componentType":5120,"count":3200,"type":"VEC3","normalized":true},{"bufferView":2,"byteOffset":25920,"componentType":5123,"count":4992,"type":"SCALAR"},{"bufferView":0,"byteOffset":91392,"componentType":5123,"count":51616,"type":"VEC3","min":[5,0,46],"max":[16378,128,16017]},{"bufferView":1,"byteOffset":45696,"componentType":5120,"count":51616,"type":"VEC3","normalized":true},{"bufferView":2,"byteOffset":35904,"componentType":5123,"count":131712,"type":"SCALAR"},{"bufferView":0,"byteOffset":504320,"componentType":5123,"count":14784,"type":"VEC3","min":[17,23,57],"max":[16366,126,16005]},{"bufferView":1,"byteOffset":252160,"componentType":5120,"count":14784,"type":"VEC3","normalized":true},{"bufferView":2,"byteOffset":299328,"componentType":5123,"count":26400,"type":"SCALAR"},{"bufferView":0,"byteOffset":622592,"componentType":5123,"count":6464,"type":"VEC3","min":[2,0,43],"max":[16381,38,16020]},{"bufferView":1,"byteOffset":311296,"componentType":5120,"count":6464,"type":"VEC3","normalized":true},{"bufferView":2,"byteOffset":352128,"componentType":5123,"count":12576,"type":"SCALAR"},{"bufferView":0,"byteOffset":674304,"componentType":5123,"count":6832,"type":"VEC3","min":[0,7,41],"max":[16383,22,16022]},{"bufferView":1,"byteOffset":337152,"componentType":5120,"count":6832,"type":"VEC3","normalized":true},{"bufferView":2,"byteOffset":377280,"componentType":5123,"count":15552,"type":"SCALAR"},{"bufferView":0,"byteOffset":728960,"componentType":5123,"count":1920,"type":"VEC3","min":[129,8,170],"max":[16254,116,15893]},{"bufferView":1,"byteOffset":364480,"componentType":5120,"count":1920,"type":"VEC3","normalized":true},{"bufferView":2,"byteOffset":408384,"componentType":5123,"count":2880,"type":"SCALAR"}],"materials":[{"name":"Material.002","pbrMetallicRoughness":{"baseColorFactor":[0.119538002,0.119538002,0.119538002,1],"metallicFactor":0,"roughnessFactor":0.400000006},"doubleSided":true},{"name":"Material.003","pbrMetallicRoughness":{"baseColorFactor":[0.955091,0.955091,0.955091,1],"metallicFactor":0,"roughnessFactor":0.400000006},"doubleSided":true},{"name":"Material.004","pbrMetallicRoughness":{"baseColorFactor":[0.162643,0.162643,0.162643,1],"metallicFactor":0,"roughnessFactor":0.400000006},"doubleSided":true},{"name":"Material.005","pbrMetallicRoughness":{"baseColorFactor":[0.800000012,0.0103390003,0,1],"metallicFactor":0,"roughnessFactor":0.75074625},"doubleSided":true},{"name":"Material.031","pbrMetallicRoughness":{"baseColorFactor":[0.485150009,0.283333987,0.166060001,1],"metallicFactor":0,"roughnessFactor":0.892537355},"doubleSided":true},{"name":"vitre.002","pbrMetallicRoughness":{"baseColorFactor":[0.0107899997,0.800656021,0.0761860013,1],"metallicFactor":0,"roughnessFactor":0.5},"doubleSided":true},{"name":"Material.032","pbrMetallicRoughness":{"baseColorFactor":[0.00367600005,0.0612460002,0.0318959989,1],"metallicFactor":0,"roughnessFactor":0.5},"doubleSided":true},{"name":"blanc.001","pbrMetallicRoughness":{"metallicFactor":0,"roughnessFactor":0.5},"doubleSided":true},{"name":"Material.033","pbrMetallicRoughness":{"baseColorFactor":[0.0236510001,0.0236510001,0.0236510001,1],"metallicFactor":0,"roughnessFactor":0.400000006},"doubleSided":true}],"meshes":[{"primitives":[{"attributes":{"POSITION":0,"NORMAL":1},"mode":4,"indices":2,"material":0},{"attributes":{"POSITION":3,"NORMAL":4},"mode":4,"indices":5,"material":1},{"attributes":{"POSITION":6,"NORMAL":7},"mode":4,"indices":8,"material":2},{"attributes":{"POSITION":9,"NORMAL":10},"mode":4,"indices":11,"material":3},{"attributes":{"POSITION":12,"NORMAL":13},"mode":4,"indices":14,"material":4},{"attributes":{"POSITION":15,"NORMAL":16},"mode":4,"indices":17,"material":5},{"attributes":{"POSITION":18,"NORMAL":19},"mode":4,"indices":20,"material":6},{"attributes":{"POSITION":21,"NORMAL":22},"mode":4,"indices":23,"material":7},{"attributes":{"POSITION":24,"NORMAL":25},"mode":4,"indices":26,"material":8}]}],"nodes":[{"mesh":0,"translation":[-1.96815968,-0.0231763441,-1.95389581],"scale":[0.000238257824,0.000238257824,0.000238257824]}],"scenes":[{"nodes":[0]}],"scene":0}