{
    "asset" : {
        "generator" : "Khronos glTF Blender I/O v1.1.45",
        "version" : "2.0"
    },
    "scene" : 0,
    "scenes" : [
        {
            "name" : "Scene",
            "nodes" : [
                0
            ]
        }
    ],
    "nodes" : [
        {
            "mesh" : 0,
            "name" : "base_Cube.086",
            "rotation" : [
                0.7071068286895752,
                0,
                0,
                0.7071067094802856
            ],
            "scale" : [
                0.10088206082582474,
                0.10088206082582474,
                0.10088206082582474
            ]
        }
    ],
    "materials" : [
        {
            "doubleSided" : true,
            "emissiveFactor" : [
                0,
                0,
                0
            ],
            "name" : "gris.001",
            "pbrMetallicRoughness" : {
                "baseColorTexture" : {
                    "index" : 0,
                    "texCoord" : 0
                },
                "metallicFactor" : 0,
                "roughnessFactor" : 0.5
            }
        },
        {
            "doubleSided" : true,
            "emissiveFactor" : [
                0,
                0,
                0
            ],
            "name" : "brun.002",
            "pbrMetallicRoughness" : {
                "baseColorTexture" : {
                    "index" : 1,
                    "texCoord" : 0
                },
                "metallicFactor" : 0,
                "roughnessFactor" : 1
            }
        },
        {
            "doubleSided" : true,
            "emissiveFactor" : [
                0,
                0,
                0
            ],
            "name" : "sky",
            "pbrMetallicRoughness" : {
                "baseColorTexture" : {
                    "index" : 2,
                    "texCoord" : 0
                },
                "metallicFactor" : 0,
                "roughnessFactor" : 0.5
            }
        },
        {
            "doubleSided" : true,
            "emissiveFactor" : [
                0,
                0,
                0
            ],
            "name" : "caseM1",
            "pbrMetallicRoughness" : {
                "baseColorTexture" : {
                    "index" : 3,
                    "texCoord" : 0
                },
                "metallicFactor" : 0,
                "roughnessFactor" : 0.5
            }
        }
    ],
    "meshes" : [
        {
            "name" : "base_Cube.086",
            "primitives" : [
                {
                    "attributes" : {
                        "POSITION" : 0,
                        "NORMAL" : 1,
                        "TEXCOORD_0" : 2
                    },
                    "indices" : 3,
                    "material" : 0
                },
                {
                    "attributes" : {
                        "POSITION" : 4,
                        "NORMAL" : 5,
                        "TEXCOORD_0" : 6
                    },
                    "indices" : 7,
                    "material" : 1
                },
                {
                    "attributes" : {
                        "POSITION" : 8,
                        "NORMAL" : 9,
                        "TEXCOORD_0" : 10
                    },
                    "indices" : 11,
                    "material" : 2
                },
                {
                    "attributes" : {
                        "POSITION" : 12,
                        "NORMAL" : 13,
                        "TEXCOORD_0" : 14
                    },
                    "indices" : 15,
                    "material" : 3
                }
            ]
        }
    ],
    "textures" : [
        {
            "source" : 0
        },
        {
            "source" : 1
        },
        {
            "source" : 2
        },
        {
            "source" : 3
        }
    ],
    "images" : [
        {
            "mimeType" : "image/png",
            "name" : "gris",
            "uri" : "gris.png"
        },
        {
            "mimeType" : "image/png",
            "name" : "brun",
            "uri" : "brun.png"
        },
        {
            "mimeType" : "image/png",
            "name" : "sky",
            "uri" : "sky.png"
        },
        {
            "mimeType" : "image/png",
            "name" : "caseM1",
            "uri" : "caseM1.png"
        }
    ],
    "accessors" : [
        {
            "bufferView" : 0,
            "componentType" : 5126,
            "count" : 798,
            "max" : [
                16.333637237548828,
                14.921486854553223,
                0.003918688744306564
            ],
            "min" : [
                15.18934154510498,
                13.434207916259766,
                -2.3448193073272705
            ],
            "type" : "VEC3"
        },
        {
            "bufferView" : 1,
            "componentType" : 5126,
            "count" : 798,
            "type" : "VEC3"
        },
        {
            "bufferView" : 2,
            "componentType" : 5126,
            "count" : 798,
            "type" : "VEC2"
        },
        {
            "bufferView" : 3,
            "componentType" : 5123,
            "count" : 1290,
            "type" : "SCALAR"
        },
        {
            "bufferView" : 4,
            "componentType" : 5126,
            "count" : 2798,
            "max" : [
                16.37331771850586,
                14.98897647857666,
                -0.06078030914068222
            ],
            "min" : [
                15.1417875289917,
                13.368404388427734,
                -2.1855454444885254
            ],
            "type" : "VEC3"
        },
        {
            "bufferView" : 5,
            "componentType" : 5126,
            "count" : 2798,
            "type" : "VEC3"
        },
        {
            "bufferView" : 6,
            "componentType" : 5126,
            "count" : 2798,
            "type" : "VEC2"
        },
        {
            "bufferView" : 7,
            "componentType" : 5123,
            "count" : 4659,
            "type" : "SCALAR"
        },
        {
            "bufferView" : 8,
            "componentType" : 5126,
            "count" : 96,
            "max" : [
                16.35849952697754,
                14.961212158203125,
                -0.32616132497787476
            ],
            "min" : [
                15.166526794433594,
                13.398059844970703,
                -1.7560052871704102
            ],
            "type" : "VEC3"
        },
        {
            "bufferView" : 9,
            "componentType" : 5126,
            "count" : 96,
            "type" : "VEC3"
        },
        {
            "bufferView" : 10,
            "componentType" : 5126,
            "count" : 96,
            "type" : "VEC2"
        },
        {
            "bufferView" : 11,
            "componentType" : 5123,
            "count" : 144,
            "type" : "SCALAR"
        },
        {
            "bufferView" : 12,
            "componentType" : 5126,
            "count" : 250,
            "max" : [
                16.360275268554688,
                14.951783180236816,
                -0.07453831285238266
            ],
            "min" : [
                15.172895431518555,
                13.405652046203613,
                -2.1010403633117676
            ],
            "type" : "VEC3"
        },
        {
            "bufferView" : 13,
            "componentType" : 5126,
            "count" : 250,
            "type" : "VEC3"
        },
        {
            "bufferView" : 14,
            "componentType" : 5126,
            "count" : 250,
            "type" : "VEC2"
        },
        {
            "bufferView" : 15,
            "componentType" : 5123,
            "count" : 582,
            "type" : "SCALAR"
        }
    ],
    "bufferViews" : [
        {
            "buffer" : 0,
            "byteLength" : 9576,
            "byteOffset" : 0
        },
        {
            "buffer" : 0,
            "byteLength" : 9576,
            "byteOffset" : 9576
        },
        {
            "buffer" : 0,
            "byteLength" : 6384,
            "byteOffset" : 19152
        },
        {
            "buffer" : 0,
            "byteLength" : 2580,
            "byteOffset" : 25536
        },
        {
            "buffer" : 0,
            "byteLength" : 33576,
            "byteOffset" : 28116
        },
        {
            "buffer" : 0,
            "byteLength" : 33576,
            "byteOffset" : 61692
        },
        {
            "buffer" : 0,
            "byteLength" : 22384,
            "byteOffset" : 95268
        },
        {
            "buffer" : 0,
            "byteLength" : 9318,
            "byteOffset" : 117652
        },
        {
            "buffer" : 0,
            "byteLength" : 1152,
            "byteOffset" : 126972
        },
        {
            "buffer" : 0,
            "byteLength" : 1152,
            "byteOffset" : 128124
        },
        {
            "buffer" : 0,
            "byteLength" : 768,
            "byteOffset" : 129276
        },
        {
            "buffer" : 0,
            "byteLength" : 288,
            "byteOffset" : 130044
        },
        {
            "buffer" : 0,
            "byteLength" : 3000,
            "byteOffset" : 130332
        },
        {
            "buffer" : 0,
            "byteLength" : 3000,
            "byteOffset" : 133332
        },
        {
            "buffer" : 0,
            "byteLength" : 2000,
            "byteOffset" : 136332
        },
        {
            "buffer" : 0,
            "byteLength" : 1164,
            "byteOffset" : 138332
        }
    ],
    "buffers" : [
        {
            "byteLength" : 139496,
            "uri" : "M8_2_3.bin"
        }
    ]
}
