{"buffers":[{"uri":"campus.bin","byteLength":66288}],"asset":{"version":"2.0","generator":"gltfpack 0.14"},"extensionsUsed":["KHR_mesh_quantization","KHR_texture_transform"],"extensionsRequired":["KHR_mesh_quantization"],"bufferViews":[{"buffer":0,"byteOffset":0,"byteLength":25680,"byteStride":8,"target":34962},{"buffer":0,"byteOffset":25680,"byteLength":12840,"byteStride":4,"target":34962},{"buffer":0,"byteOffset":38520,"byteLength":12840,"byteStride":4,"target":34962},{"buffer":0,"byteOffset":51360,"byteLength":14928,"target":34963}],"accessors":[{"bufferView":0,"byteOffset":0,"componentType":5123,"count":476,"type":"VEC3","min":[198,1253,1205],"max":[16131,4226,4794]},{"bufferView":1,"byteOffset":0,"componentType":5120,"count":476,"type":"VEC3","normalized":true},{"bufferView":2,"byteOffset":0,"componentType":5123,"count":476,"type":"VEC2"},{"bufferView":3,"byteOffset":0,"componentType":5123,"count":816,"type":"SCALAR"},{"bufferView":0,"byteOffset":3808,"componentType":5123,"count":1351,"type":"VEC3","min":[198,111,0],"max":[16383,4863,4794]},{"bufferView":1,"byteOffset":1904,"componentType":5120,"count":1351,"type":"VEC3","normalized":true},{"bufferView":2,"byteOffset":1904,"componentType":5123,"count":1351,"type":"VEC2"},{"bufferView":3,"byteOffset":1632,"componentType":5123,"count":3168,"type":"SCALAR"},{"bufferView":0,"byteOffset":14616,"componentType":5123,"count":472,"type":"VEC3","min":[198,1519,1205],"max":[16131,4863,4794]},{"bufferView":1,"byteOffset":7308,"componentType":5120,"count":472,"type":"VEC3","normalized":true},{"bufferView":2,"byteOffset":7308,"componentType":5123,"count":472,"type":"VEC2"},{"bufferView":3,"byteOffset":7968,"componentType":5123,"count":816,"type":"SCALAR"},{"bufferView":0,"byteOffset":18392,"componentType":5123,"count":59,"type":"VEC3","min":[1126,0,3447],"max":[4545,981,8784]},{"bufferView":1,"byteOffset":9196,"componentType":5120,"count":59,"type":"VEC3","normalized":true},{"bufferView":2,"byteOffset":9196,"componentType":5123,"count":59,"type":"VEC2"},{"bufferView":3,"byteOffset":9600,"componentType":5123,"count":120,"type":"SCALAR"},{"bufferView":0,"byteOffset":18864,"componentType":5123,"count":17,"type":"VEC3","min":[1126,981,3447],"max":[4545,981,8784]},{"bufferView":1,"byteOffset":9432,"componentType":5120,"count":17,"type":"VEC3","normalized":true},{"bufferView":2,"byteOffset":9432,"componentType":5123,"count":17,"type":"VEC2"},{"bufferView":3,"byteOffset":9840,"componentType":5123,"count":60,"type":"SCALAR"},{"bufferView":0,"byteOffset":19000,"componentType":5123,"count":28,"type":"VEC3","min":[1126,765,3447],"max":[4545,981,8784]},{"bufferView":1,"byteOffset":9500,"componentType":5120,"count":28,"type":"VEC3","normalized":true},{"bufferView":2,"byteOffset":9500,"componentType":5123,"count":28,"type":"VEC2"},{"bufferView":3,"byteOffset":9960,"componentType":5123,"count":60,"type":"SCALAR"},{"bufferView":0,"byteOffset":19224,"componentType":5123,"count":613,"type":"VEC3","min":[0,1,2341],"max":[4809,2718,8899]},{"bufferView":1,"byteOffset":9612,"componentType":5120,"count":613,"type":"VEC3","normalized":true},{"bufferView":2,"byteOffset":9612,"componentType":5123,"count":613,"type":"VEC2"},{"bufferView":3,"byteOffset":10080,"componentType":5123,"count":2118,"type":"SCALAR"},{"bufferView":0,"byteOffset":24128,"componentType":5123,"count":26,"type":"VEC3","min":[9,1127,3669],"max":[4809,2718,8897]},{"bufferView":1,"byteOffset":12064,"componentType":5120,"count":26,"type":"VEC3","normalized":true},{"bufferView":2,"byteOffset":12064,"componentType":5123,"count":26,"type":"VEC2"},{"bufferView":3,"byteOffset":14316,"componentType":5123,"count":54,"type":"SCALAR"},{"bufferView":0,"byteOffset":24336,"componentType":5123,"count":168,"type":"VEC3","min":[1127,1034,2505],"max":[1127,2063,8729]},{"bufferView":1,"byteOffset":12168,"componentType":5120,"count":168,"type":"VEC3","normalized":true},{"bufferView":2,"byteOffset":12168,"componentType":5123,"count":168,"type":"VEC2"},{"bufferView":3,"byteOffset":14424,"componentType":5123,"count":252,"type":"SCALAR"}],"images":[{"uri":"blueberry.png"},{"uri":"magnesium.png"},{"uri":"rouge.png"},{"uri":"brun.png"},{"uri":"gris.png"},{"uri":"tungsten.png"},{"uri":"sky.png"}],"textures":[{"source":0},{"source":1},{"source":2},{"source":1},{"source":3},{"source":4},{"source":1},{"source":5},{"source":6}],"materials":[{"name":"Material.009","pbrMetallicRoughness":{"baseColorTexture":{"index":0,"texCoord":0,"extensions":{"KHR_texture_transform":{"offset":[0,1],"scale":[0.000244200259,0]}}},"metallicFactor":0,"roughnessFactor":0.5},"doubleSided":true},{"name":"Material.014","pbrMetallicRoughness":{"baseColorTexture":{"index":1,"texCoord":0,"extensions":{"KHR_texture_transform":{"offset":[0,0],"scale":[0.000244200259,0.000244200259]}}},"metallicFactor":0,"roughnessFactor":0.5},"doubleSided":true},{"name":"Material.015","pbrMetallicRoughness":{"baseColorTexture":{"index":2,"texCoord":0,"extensions":{"KHR_texture_transform":{"offset":[0,1],"scale":[0.000244200259,0]}}},"metallicFactor":0,"roughnessFactor":0.5},"doubleSided":true},{"name":"Material","pbrMetallicRoughness":{"baseColorTexture":{"index":3,"texCoord":0,"extensions":{"KHR_texture_transform":{"offset":[0.375,0],"scale":[6.10500647e-05,0.000244200259]}}},"metallicFactor":0,"roughnessFactor":0.400000006},"doubleSided":true},{"name":"brun.001","pbrMetallicRoughness":{"baseColorTexture":{"index":4,"texCoord":0,"extensions":{"KHR_texture_transform":{"offset":[0.625,0.25],"scale":[0,0.000183150187]}}},"metallicFactor":0,"roughnessFactor":0.5},"doubleSided":true},{"name":"gris","pbrMetallicRoughness":{"baseColorTexture":{"index":5,"texCoord":0,"extensions":{"KHR_texture_transform":{"offset":[0.570065022,0],"scale":[1.34151351e-05,0.000244200259]}}},"metallicFactor":0,"roughnessFactor":0.5},"doubleSided":true},{"name":"magnesium","pbrMetallicRoughness":{"baseColorTexture":{"index":6,"texCoord":0,"extensions":{"KHR_texture_transform":{"offset":[0.125,0],"scale":[0.000183150187,0.000244200259]}}},"metallicFactor":0,"roughnessFactor":0.5},"doubleSided":true},{"name":"tungsten.001","pbrMetallicRoughness":{"baseColorTexture":{"index":7,"texCoord":0,"extensions":{"KHR_texture_transform":{"offset":[0.625,0.25],"scale":[6.10500647e-05,6.10500647e-05]}}},"metallicFactor":0,"roughnessFactor":0.5},"doubleSided":true},{"name":"Material.013","pbrMetallicRoughness":{"baseColorTexture":{"index":8,"texCoord":0,"extensions":{"KHR_texture_transform":{"offset":[0.479140013,0.25],"scale":[2.84727757e-05,6.10500647e-05]}}},"metallicFactor":0,"roughnessFactor":0.5},"doubleSided":true}],"meshes":[{"primitives":[{"attributes":{"POSITION":0,"NORMAL":1,"TEXCOORD_0":2},"mode":4,"indices":3,"material":0},{"attributes":{"POSITION":4,"NORMAL":5,"TEXCOORD_0":6},"mode":4,"indices":7,"material":1},{"attributes":{"POSITION":8,"NORMAL":9,"TEXCOORD_0":10},"mode":4,"indices":11,"material":2},{"attributes":{"POSITION":12,"NORMAL":13,"TEXCOORD_0":14},"mode":4,"indices":15,"material":3},{"attributes":{"POSITION":16,"NORMAL":17,"TEXCOORD_0":18},"mode":4,"indices":19,"material":4},{"attributes":{"POSITION":20,"NORMAL":21,"TEXCOORD_0":22},"mode":4,"indices":23,"material":5},{"attributes":{"POSITION":24,"NORMAL":25,"TEXCOORD_0":26},"mode":4,"indices":27,"material":6},{"attributes":{"POSITION":28,"NORMAL":29,"TEXCOORD_0":30},"mode":4,"indices":31,"material":7},{"attributes":{"POSITION":32,"NORMAL":33,"TEXCOORD_0":34},"mode":4,"indices":35,"material":8}]}],"nodes":[{"mesh":0,"translation":[1.62015367,-0.00578077324,-2.01409435],"scale":[2.58170658e-05,2.58170658e-05,2.58170658e-05]}],"scenes":[{"nodes":[0]}],"scene":0}