{"buffers":[{"uri":"egout.bin","byteLength":2128}],"asset":{"version":"2.0","generator":"gltfpack 0.14"},"extensionsUsed":["KHR_mesh_quantization","KHR_texture_transform"],"extensionsRequired":["KHR_mesh_quantization"],"bufferViews":[{"buffer":0,"byteOffset":0,"byteLength":896,"byteStride":8,"target":34962},{"buffer":0,"byteOffset":896,"byteLength":448,"byteStride":4,"target":34962},{"buffer":0,"byteOffset":1344,"byteLength":448,"byteStride":4,"target":34962},{"buffer":0,"byteOffset":1792,"byteLength":336,"target":34963}],"accessors":[{"bufferView":0,"byteOffset":0,"componentType":5123,"count":112,"type":"VEC3","min":[0,0,0],"max":[15623,664,16383]},{"bufferView":1,"byteOffset":0,"componentType":5120,"count":112,"type":"VEC3","normalized":true},{"bufferView":2,"byteOffset":0,"componentType":5123,"count":112,"type":"VEC2"},{"bufferView":3,"byteOffset":0,"componentType":5123,"count":168,"type":"SCALAR"}],"images":[{"uri":"gris.png"}],"textures":[{"source":0}],"materials":[{"name":"Material.016","pbrMetallicRoughness":{"baseColorTexture":{"index":0,"texCoord":0,"extensions":{"KHR_texture_transform":{"offset":[0.125,0],"scale":[0.000183150187,0.000244200259]}}},"metallicFactor":0,"roughnessFactor":0.5},"doubleSided":true}],"meshes":[{"primitives":[{"attributes":{"POSITION":0,"NORMAL":1,"TEXCOORD_0":2},"mode":4,"indices":3,"material":0}]}],"nodes":[{"mesh":0,"translation":[0.243158564,-0.14157778,0.156642482],"scale":[0.000113860697,0.000113860697,0.000113860697]}],"scenes":[{"nodes":[0]}],"scene":0}