{
    "asset" : {
        "generator" : "Khronos glTF Blender I/O v1.1.45",
        "version" : "2.0"
    },
    "scene" : 0,
    "scenes" : [
        {
            "name" : "Scene",
            "nodes" : [
                0
            ]
        }
    ],
    "nodes" : [
        {
            "mesh" : 0,
            "name" : "parlement",
            "rotation" : [
                0.6972597241401672,
                -0.11759653687477112,
                0.11759655922651291,
                0.6972596049308777
            ],
            "scale" : [
                0.20735478401184082,
                0.20735478401184082,
                0.20735478401184082
            ]
        }
    ],
    "materials" : [
        {
            "doubleSided" : true,
            "emissiveFactor" : [
                0,
                0,
                0
            ],
            "name" : "Material.018",
            "pbrMetallicRoughness" : {
                "baseColorTexture" : {
                    "index" : 0,
                    "texCoord" : 0
                },
                "metallicFactor" : 0,
                "roughnessFactor" : 0.5
            }
        },
        {
            "doubleSided" : true,
            "emissiveFactor" : [
                0,
                0,
                0
            ],
            "name" : "Material.019",
            "pbrMetallicRoughness" : {
                "baseColorTexture" : {
                    "index" : 1,
                    "texCoord" : 0
                },
                "metallicFactor" : 0,
                "roughnessFactor" : 0.5
            }
        },
        {
            "doubleSided" : true,
            "emissiveFactor" : [
                0,
                0,
                0
            ],
            "name" : "Material.020",
            "pbrMetallicRoughness" : {
                "baseColorTexture" : {
                    "index" : 2,
                    "texCoord" : 0
                },
                "metallicFactor" : 0,
                "roughnessFactor" : 0.5
            }
        }
    ],
    "meshes" : [
        {
            "name" : "Cylinder.001",
            "primitives" : [
                {
                    "attributes" : {
                        "POSITION" : 0,
                        "NORMAL" : 1,
                        "TEXCOORD_0" : 2
                    },
                    "indices" : 3,
                    "material" : 0
                },
                {
                    "attributes" : {
                        "POSITION" : 4,
                        "NORMAL" : 5,
                        "TEXCOORD_0" : 6
                    },
                    "indices" : 7,
                    "material" : 1
                },
                {
                    "attributes" : {
                        "POSITION" : 8,
                        "NORMAL" : 9,
                        "TEXCOORD_0" : 10
                    },
                    "indices" : 11,
                    "material" : 2
                }
            ]
        }
    ],
    "textures" : [
        {
            "source" : 0
        },
        {
            "source" : 1
        },
        {
            "source" : 2
        }
    ],
    "images" : [
        {
            "mimeType" : "image/png",
            "name" : "teal",
            "uri" : "teal.png"
        },
        {
            "mimeType" : "image/png",
            "name" : "rouge",
            "uri" : "rouge.png"
        },
        {
            "mimeType" : "image/png",
            "name" : "tungsten",
            "uri" : "tungsten.png"
        }
    ],
    "accessors" : [
        {
            "bufferView" : 0,
            "componentType" : 5126,
            "count" : 3637,
            "max" : [
                -4.6464738845825195,
                12.093146324157715,
                0.021065503358840942
            ],
            "min" : [
                -6.6464738845825195,
                10.093146324157715,
                -0.6097285151481628
            ],
            "type" : "VEC3"
        },
        {
            "bufferView" : 1,
            "componentType" : 5126,
            "count" : 3637,
            "type" : "VEC3"
        },
        {
            "bufferView" : 2,
            "componentType" : 5126,
            "count" : 3637,
            "type" : "VEC2"
        },
        {
            "bufferView" : 3,
            "componentType" : 5123,
            "count" : 8856,
            "type" : "SCALAR"
        },
        {
            "bufferView" : 4,
            "componentType" : 5126,
            "count" : 320,
            "max" : [
                -5.3369598388671875,
                11.402660369873047,
                -0.021891504526138306
            ],
            "min" : [
                -5.955987930297852,
                10.783632278442383,
                -0.7816715240478516
            ],
            "type" : "VEC3"
        },
        {
            "bufferView" : 5,
            "componentType" : 5126,
            "count" : 320,
            "type" : "VEC3"
        },
        {
            "bufferView" : 6,
            "componentType" : 5126,
            "count" : 320,
            "type" : "VEC2"
        },
        {
            "bufferView" : 7,
            "componentType" : 5123,
            "count" : 576,
            "type" : "SCALAR"
        },
        {
            "bufferView" : 8,
            "componentType" : 5126,
            "count" : 1953,
            "max" : [
                -6.040445804595947,
                11.967702865600586,
                -0.2017124593257904
            ],
            "min" : [
                -6.521796703338623,
                11.474836349487305,
                -0.5751534700393677
            ],
            "type" : "VEC3"
        },
        {
            "bufferView" : 9,
            "componentType" : 5126,
            "count" : 1953,
            "type" : "VEC3"
        },
        {
            "bufferView" : 10,
            "componentType" : 5126,
            "count" : 1953,
            "type" : "VEC2"
        },
        {
            "bufferView" : 11,
            "componentType" : 5123,
            "count" : 2880,
            "type" : "SCALAR"
        }
    ],
    "bufferViews" : [
        {
            "buffer" : 0,
            "byteLength" : 43644,
            "byteOffset" : 0
        },
        {
            "buffer" : 0,
            "byteLength" : 43644,
            "byteOffset" : 43644
        },
        {
            "buffer" : 0,
            "byteLength" : 29096,
            "byteOffset" : 87288
        },
        {
            "buffer" : 0,
            "byteLength" : 17712,
            "byteOffset" : 116384
        },
        {
            "buffer" : 0,
            "byteLength" : 3840,
            "byteOffset" : 134096
        },
        {
            "buffer" : 0,
            "byteLength" : 3840,
            "byteOffset" : 137936
        },
        {
            "buffer" : 0,
            "byteLength" : 2560,
            "byteOffset" : 141776
        },
        {
            "buffer" : 0,
            "byteLength" : 1152,
            "byteOffset" : 144336
        },
        {
            "buffer" : 0,
            "byteLength" : 23436,
            "byteOffset" : 145488
        },
        {
            "buffer" : 0,
            "byteLength" : 23436,
            "byteOffset" : 168924
        },
        {
            "buffer" : 0,
            "byteLength" : 15624,
            "byteOffset" : 192360
        },
        {
            "buffer" : 0,
            "byteLength" : 5760,
            "byteOffset" : 207984
        }
    ],
    "buffers" : [
        {
            "byteLength" : 213744,
            "uri" : "parlement.bin"
        }
    ]
}
