{
    "asset" : {
        "generator" : "Khronos glTF Blender I/O v1.1.45",
        "version" : "2.0"
    },
    "scene" : 0,
    "scenes" : [
        {
            "name" : "Scene",
            "nodes" : [
                0
            ]
        }
    ],
    "nodes" : [
        {
            "mesh" : 0,
            "name" : "route",
            "rotation" : [
                1,
                0,
                0,
                -1.3435885648505064e-07
            ]
        }
    ],
    "materials" : [
        {
            "doubleSided" : true,
            "emissiveFactor" : [
                0,
                0,
                0
            ],
            "name" : "mercury",
            "pbrMetallicRoughness" : {
                "baseColorTexture" : {
                    "index" : 0,
                    "texCoord" : 0
                },
                "metallicFactor" : 0,
                "roughnessFactor" : 0.5
            }
        },
        {
            "doubleSided" : true,
            "emissiveFactor" : [
                0,
                0,
                0
            ],
            "name" : "tungsten",
            "pbrMetallicRoughness" : {
                "baseColorTexture" : {
                    "index" : 1,
                    "texCoord" : 0
                },
                "metallicFactor" : 0,
                "roughnessFactor" : 0.5
            }
        }
    ],
    "meshes" : [
        {
            "name" : "Cube.006_Cube.001",
            "primitives" : [
                {
                    "attributes" : {
                        "POSITION" : 0,
                        "NORMAL" : 1,
                        "TEXCOORD_0" : 2
                    },
                    "indices" : 3,
                    "material" : 0
                },
                {
                    "attributes" : {
                        "POSITION" : 4,
                        "NORMAL" : 5,
                        "TEXCOORD_0" : 6
                    },
                    "indices" : 7,
                    "material" : 1
                }
            ]
        }
    ],
    "textures" : [
        {
            "source" : 0
        },
        {
            "source" : 1
        }
    ],
    "images" : [
        {
            "mimeType" : "image/png",
            "name" : "mercury",
            "uri" : "mercury.png"
        },
        {
            "mimeType" : "image/png",
            "name" : "tungsten",
            "uri" : "tungsten.png"
        }
    ],
    "accessors" : [
        {
            "bufferView" : 0,
            "componentType" : 5126,
            "count" : 1146,
            "max" : [
                2.023529529571533,
                0.009184356778860092,
                1.7343811988830566
            ],
            "min" : [
                -1.7444347143173218,
                -0.018336700275540352,
                -2.0184519290924072
            ],
            "type" : "VEC3"
        },
        {
            "bufferView" : 1,
            "componentType" : 5126,
            "count" : 1146,
            "type" : "VEC3"
        },
        {
            "bufferView" : 2,
            "componentType" : 5126,
            "count" : 1146,
            "type" : "VEC2"
        },
        {
            "bufferView" : 3,
            "componentType" : 5123,
            "count" : 1800,
            "type" : "SCALAR"
        },
        {
            "bufferView" : 4,
            "componentType" : 5126,
            "count" : 592,
            "max" : [
                2.023270606994629,
                0.00911481399089098,
                1.7343811988830566
            ],
            "min" : [
                -1.7444318532943726,
                -0.018336700275540352,
                -2.0183827877044678
            ],
            "type" : "VEC3"
        },
        {
            "bufferView" : 5,
            "componentType" : 5126,
            "count" : 592,
            "type" : "VEC3"
        },
        {
            "bufferView" : 6,
            "componentType" : 5126,
            "count" : 592,
            "type" : "VEC2"
        },
        {
            "bufferView" : 7,
            "componentType" : 5123,
            "count" : 888,
            "type" : "SCALAR"
        }
    ],
    "bufferViews" : [
        {
            "buffer" : 0,
            "byteLength" : 13752,
            "byteOffset" : 0
        },
        {
            "buffer" : 0,
            "byteLength" : 13752,
            "byteOffset" : 13752
        },
        {
            "buffer" : 0,
            "byteLength" : 9168,
            "byteOffset" : 27504
        },
        {
            "buffer" : 0,
            "byteLength" : 3600,
            "byteOffset" : 36672
        },
        {
            "buffer" : 0,
            "byteLength" : 7104,
            "byteOffset" : 40272
        },
        {
            "buffer" : 0,
            "byteLength" : 7104,
            "byteOffset" : 47376
        },
        {
            "buffer" : 0,
            "byteLength" : 4736,
            "byteOffset" : 54480
        },
        {
            "buffer" : 0,
            "byteLength" : 1776,
            "byteOffset" : 59216
        }
    ],
    "buffers" : [
        {
            "byteLength" : 60992,
            "uri" : "route.bin"
        }
    ]
}
