{
    "asset" : {
        "generator" : "Khronos glTF Blender I/O v1.1.45",
        "version" : "2.0"
    },
    "scene" : 0,
    "scenes" : [
        {
            "name" : "Scene",
            "nodes" : [
                0,
                1,
                2,
                3,
                4,
                5,
                6,
                7,
                8
            ]
        }
    ],
    "nodes" : [
        {
            "mesh" : 0,
            "name" : "arret",
            "rotation" : [
                0.5,
                0.4999999701976776,
                -0.5000000596046448,
                0.4999999403953552
            ],
            "scale" : [
                0.01410742849111557,
                0.01410742849111557,
                0.01410742849111557
            ]
        },
        {
            "mesh" : 1,
            "name" : "Cube.006",
            "rotation" : [
                0.7071068286895752,
                0,
                0,
                0.7071067094802856
            ],
            "scale" : [
                0.01195297297090292,
                0.01195297297090292,
                0.01195297297090292
            ],
            "translation" : [
                -0.017698118463158607,
                -0.011981927789747715,
                1.3545951843261719
            ]
        },
        {
            "mesh" : 1,
            "name" : "Cube.001",
            "rotation" : [
                0.7071068286895752,
                0,
                0,
                0.7071067094802856
            ],
            "scale" : [
                0.01195297297090292,
                0.01195297297090292,
                0.01195297297090292
            ],
            "translation" : [
                -0.054455965757369995,
                -0.011981927789747715,
                1.6319518089294434
            ]
        },
        {
            "mesh" : 1,
            "name" : "Cube.002",
            "rotation" : [
                0.5,
                0.4999999701976776,
                -0.5000000596046448,
                0.4999999403953552
            ],
            "scale" : [
                0.01195297297090292,
                0.01195297297090292,
                0.01195297297090292
            ],
            "translation" : [
                -1.8326499462127686,
                -0.011981927789747715,
                -0.02821068838238716
            ]
        },
        {
            "mesh" : 1,
            "name" : "Cube.003",
            "rotation" : [
                0.5,
                0.4999999701976776,
                -0.5000000596046448,
                0.4999999403953552
            ],
            "scale" : [
                0.01195297297090292,
                0.01195297297090292,
                0.01195297297090292
            ],
            "translation" : [
                -1.9322746992111206,
                -0.011981927789747715,
                0.0019786227494478226
            ]
        },
        {
            "mesh" : 1,
            "name" : "Cube.005",
            "rotation" : [
                0.7071068286895752,
                0,
                0,
                0.7071067094802856
            ],
            "scale" : [
                0.01195297297090292,
                0.01195297297090292,
                0.01195297297090292
            ],
            "translation" : [
                0.032761167734861374,
                -0.011981927789747715,
                -1.7535061836242676
            ]
        },
        {
            "mesh" : 1,
            "name" : "Cube.007",
            "rotation" : [
                0.7071068286895752,
                0,
                0,
                0.7071067094802856
            ],
            "scale" : [
                0.01195297297090292,
                0.01195297297090292,
                0.01195297297090292
            ],
            "translation" : [
                -0.01003454253077507,
                -0.011981927789747715,
                -1.9083342552185059
            ]
        },
        {
            "mesh" : 1,
            "name" : "Cube.008",
            "rotation" : [
                0.5,
                0.4999999701976776,
                -0.5000000596046448,
                0.4999999403953552
            ],
            "scale" : [
                0.01195297297090292,
                0.01195297297090292,
                0.01195297297090292
            ],
            "translation" : [
                1.7037122249603271,
                -0.011981927789747715,
                0.01500246673822403
            ]
        },
        {
            "mesh" : 1,
            "name" : "Cube.009",
            "rotation" : [
                0.5,
                0.4999999701976776,
                -0.5000000596046448,
                0.4999999403953552
            ],
            "scale" : [
                0.01195297297090292,
                0.01195297297090292,
                0.01195297297090292
            ],
            "translation" : [
                1.604087471961975,
                -0.011981927789747715,
                0.04519177973270416
            ]
        }
    ],
    "materials" : [
        {
            "doubleSided" : true,
            "emissiveFactor" : [
                0,
                0,
                0
            ],
            "name" : "Material.002",
            "pbrMetallicRoughness" : {
                "baseColorFactor" : [
                    0.11953800171613693,
                    0.11953800171613693,
                    0.11953800171613693,
                    1
                ],
                "metallicFactor" : 0,
                "roughnessFactor" : 0.4000000059604645
            }
        },
        {
            "doubleSided" : true,
            "emissiveFactor" : [
                0,
                0,
                0
            ],
            "name" : "Material.003",
            "pbrMetallicRoughness" : {
                "baseColorFactor" : [
                    0.9550909996032715,
                    0.9550909996032715,
                    0.9550909996032715,
                    1
                ],
                "metallicFactor" : 0,
                "roughnessFactor" : 0.4000000059604645
            }
        },
        {
            "doubleSided" : true,
            "emissiveFactor" : [
                0,
                0,
                0
            ],
            "name" : "Material.004",
            "pbrMetallicRoughness" : {
                "baseColorFactor" : [
                    0.16264300048351288,
                    0.16264300048351288,
                    0.16264300048351288,
                    1
                ],
                "metallicFactor" : 0,
                "roughnessFactor" : 0.4000000059604645
            }
        },
        {
            "doubleSided" : true,
            "emissiveFactor" : [
                0,
                0,
                0
            ],
            "name" : "Material.005",
            "pbrMetallicRoughness" : {
                "baseColorFactor" : [
                    0.800000011920929,
                    0.010339000262320042,
                    0,
                    1
                ],
                "metallicFactor" : 0,
                "roughnessFactor" : 0.7507462501525879
            }
        },
        {
            "doubleSided" : true,
            "emissiveFactor" : [
                0,
                0,
                0
            ],
            "name" : "Material.031",
            "pbrMetallicRoughness" : {
                "baseColorFactor" : [
                    0.485150009393692,
                    0.28333398699760437,
                    0.16606000065803528,
                    1
                ],
                "metallicFactor" : 0,
                "roughnessFactor" : 0.8925373554229736
            }
        },
        {
            "doubleSided" : true,
            "emissiveFactor" : [
                0,
                0,
                0
            ],
            "name" : "vitre.002",
            "pbrMetallicRoughness" : {
                "baseColorFactor" : [
                    0.01078999973833561,
                    0.8006560206413269,
                    0.07618600130081177,
                    1
                ],
                "metallicFactor" : 0,
                "roughnessFactor" : 0.5
            }
        },
        {
            "doubleSided" : true,
            "emissiveFactor" : [
                0,
                0,
                0
            ],
            "name" : "Material.032",
            "pbrMetallicRoughness" : {
                "baseColorFactor" : [
                    0.00367600005120039,
                    0.06124600023031235,
                    0.03189599886536598,
                    1
                ],
                "metallicFactor" : 0,
                "roughnessFactor" : 0.5
            }
        },
        {
            "doubleSided" : true,
            "emissiveFactor" : [
                0,
                0,
                0
            ],
            "name" : "blanc.001",
            "pbrMetallicRoughness" : {
                "baseColorFactor" : [
                    1,
                    1,
                    1,
                    1
                ],
                "metallicFactor" : 0,
                "roughnessFactor" : 0.5
            }
        },
        {
            "doubleSided" : true,
            "emissiveFactor" : [
                0,
                0,
                0
            ],
            "name" : "Material.033",
            "pbrMetallicRoughness" : {
                "baseColorFactor" : [
                    0.02365100011229515,
                    0.02365100011229515,
                    0.02365100011229515,
                    1
                ],
                "metallicFactor" : 0,
                "roughnessFactor" : 0.4000000059604645
            }
        }
    ],
    "meshes" : [
        {
            "name" : "Cube.010",
            "primitives" : [
                {
                    "attributes" : {
                        "POSITION" : 0,
                        "NORMAL" : 1,
                        "TEXCOORD_0" : 2
                    },
                    "indices" : 3,
                    "material" : 0
                },
                {
                    "attributes" : {
                        "POSITION" : 4,
                        "NORMAL" : 5,
                        "TEXCOORD_0" : 6
                    },
                    "indices" : 7,
                    "material" : 1
                },
                {
                    "attributes" : {
                        "POSITION" : 8,
                        "NORMAL" : 9,
                        "TEXCOORD_0" : 10
                    },
                    "indices" : 11,
                    "material" : 2
                },
                {
                    "attributes" : {
                        "POSITION" : 12,
                        "NORMAL" : 13,
                        "TEXCOORD_0" : 14
                    },
                    "indices" : 15,
                    "material" : 3
                }
            ]
        },
        {
            "name" : "Cube.006",
            "primitives" : [
                {
                    "attributes" : {
                        "POSITION" : 16,
                        "NORMAL" : 17,
                        "TEXCOORD_0" : 18
                    },
                    "indices" : 19,
                    "material" : 4
                },
                {
                    "attributes" : {
                        "POSITION" : 20,
                        "NORMAL" : 21,
                        "TEXCOORD_0" : 22
                    },
                    "indices" : 23,
                    "material" : 5
                },
                {
                    "attributes" : {
                        "POSITION" : 24,
                        "NORMAL" : 25,
                        "TEXCOORD_0" : 26
                    },
                    "indices" : 27,
                    "material" : 6
                },
                {
                    "attributes" : {
                        "POSITION" : 28,
                        "NORMAL" : 29,
                        "TEXCOORD_0" : 30
                    },
                    "indices" : 31,
                    "material" : 7
                },
                {
                    "attributes" : {
                        "POSITION" : 32,
                        "NORMAL" : 33,
                        "TEXCOORD_0" : 34
                    },
                    "indices" : 35,
                    "material" : 8
                }
            ]
        }
    ],
    "accessors" : [
        {
            "bufferView" : 0,
            "componentType" : 5126,
            "count" : 416,
            "max" : [
                138.50120544433594,
                135.2779541015625,
                1.6142758131027222
            ],
            "min" : [
                -134.93482971191406,
                -137.13992309570312,
                1.2564839124679565
            ],
            "type" : "VEC3"
        },
        {
            "bufferView" : 1,
            "componentType" : 5126,
            "count" : 416,
            "type" : "VEC3"
        },
        {
            "bufferView" : 2,
            "componentType" : 5126,
            "count" : 416,
            "type" : "VEC2"
        },
        {
            "bufferView" : 3,
            "componentType" : 5123,
            "count" : 864,
            "type" : "SCALAR"
        },
        {
            "bufferView" : 4,
            "componentType" : 5126,
            "count" : 512,
            "max" : [
                138.50120544433594,
                135.2779541015625,
                1.6142758131027222
            ],
            "min" : [
                -134.93482971191406,
                -137.13992309570312,
                1.2564839124679565
            ],
            "type" : "VEC3"
        },
        {
            "bufferView" : 5,
            "componentType" : 5126,
            "count" : 512,
            "type" : "VEC3"
        },
        {
            "bufferView" : 6,
            "componentType" : 5126,
            "count" : 512,
            "type" : "VEC2"
        },
        {
            "bufferView" : 7,
            "componentType" : 5123,
            "count" : 960,
            "type" : "SCALAR"
        },
        {
            "bufferView" : 8,
            "componentType" : 5126,
            "count" : 7296,
            "max" : [
                136.23182678222656,
                133.0085906982422,
                1.305033802986145
            ],
            "min" : [
                -132.0059356689453,
                -134.21102905273438,
                0.6009368896484375
            ],
            "type" : "VEC3"
        },
        {
            "bufferView" : 9,
            "componentType" : 5126,
            "count" : 7296,
            "type" : "VEC3"
        },
        {
            "bufferView" : 10,
            "componentType" : 5126,
            "count" : 7296,
            "type" : "VEC2"
        },
        {
            "bufferView" : 11,
            "componentType" : 5123,
            "count" : 11136,
            "type" : "SCALAR"
        },
        {
            "bufferView" : 12,
            "componentType" : 5126,
            "count" : 3200,
            "max" : [
                136.23182678222656,
                133.0085906982422,
                0.6060477495193481
            ],
            "min" : [
                -132.0059356689453,
                -134.21102905273438,
                0.4069839119911194
            ],
            "type" : "VEC3"
        },
        {
            "bufferView" : 13,
            "componentType" : 5126,
            "count" : 3200,
            "type" : "VEC3"
        },
        {
            "bufferView" : 14,
            "componentType" : 5126,
            "count" : 3200,
            "type" : "VEC2"
        },
        {
            "bufferView" : 15,
            "componentType" : 5123,
            "count" : 4992,
            "type" : "SCALAR"
        },
        {
            "bufferView" : 16,
            "componentType" : 5126,
            "count" : 7112,
            "max" : [
                1.0000009536743164,
                19.268081665039062,
                0.9365360140800476
            ],
            "min" : [
                -1,
                -2.902182102203369,
                -1.6210449934005737
            ],
            "type" : "VEC3"
        },
        {
            "bufferView" : 17,
            "componentType" : 5126,
            "count" : 7112,
            "type" : "VEC3"
        },
        {
            "bufferView" : 18,
            "componentType" : 5126,
            "count" : 7112,
            "type" : "VEC2"
        },
        {
            "bufferView" : 19,
            "componentType" : 5123,
            "count" : 17328,
            "type" : "SCALAR"
        },
        {
            "bufferView" : 20,
            "componentType" : 5126,
            "count" : 1848,
            "max" : [
                0.9748759865760803,
                19.032501220703125,
                0.47572699189186096
            ],
            "min" : [
                -0.9748749732971191,
                -2.6666018962860107,
                -1.5704940557479858
            ],
            "type" : "VEC3"
        },
        {
            "bufferView" : 21,
            "componentType" : 5126,
            "count" : 1848,
            "type" : "VEC3"
        },
        {
            "bufferView" : 22,
            "componentType" : 5126,
            "count" : 1848,
            "type" : "VEC2"
        },
        {
            "bufferView" : 23,
            "componentType" : 5123,
            "count" : 3300,
            "type" : "SCALAR"
        },
        {
            "bufferView" : 24,
            "componentType" : 5126,
            "count" : 808,
            "max" : [
                1.0528579950332642,
                19.320938110351562,
                0.9365360140800476
            ],
            "min" : [
                -1.0528570413589478,
                -2.9550390243530273,
                0.17729899287223816
            ],
            "type" : "VEC3"
        },
        {
            "bufferView" : 25,
            "componentType" : 5126,
            "count" : 808,
            "type" : "VEC3"
        },
        {
            "bufferView" : 26,
            "componentType" : 5126,
            "count" : 808,
            "type" : "VEC2"
        },
        {
            "bufferView" : 27,
            "componentType" : 5123,
            "count" : 1572,
            "type" : "SCALAR"
        },
        {
            "bufferView" : 28,
            "componentType" : 5126,
            "count" : 854,
            "max" : [
                1.1000009775161743,
                19.368080139160156,
                0.7983520030975342
            ],
            "min" : [
                -1.100000023841858,
                -3.0021820068359375,
                0.5056340098381042
            ],
            "type" : "VEC3"
        },
        {
            "bufferView" : 29,
            "componentType" : 5126,
            "count" : 854,
            "type" : "VEC3"
        },
        {
            "bufferView" : 30,
            "componentType" : 5126,
            "count" : 854,
            "type" : "VEC2"
        },
        {
            "bufferView" : 31,
            "componentType" : 5123,
            "count" : 1944,
            "type" : "SCALAR"
        },
        {
            "bufferView" : 32,
            "componentType" : 5126,
            "count" : 240,
            "max" : [
                0.9281719923019409,
                16.793659210205078,
                0.784604012966156
            ],
            "min" : [
                -0.9281719923019409,
                -0.43249401450157166,
                -1.3771469593048096
            ],
            "type" : "VEC3"
        },
        {
            "bufferView" : 33,
            "componentType" : 5126,
            "count" : 240,
            "type" : "VEC3"
        },
        {
            "bufferView" : 34,
            "componentType" : 5126,
            "count" : 240,
            "type" : "VEC2"
        },
        {
            "bufferView" : 35,
            "componentType" : 5123,
            "count" : 360,
            "type" : "SCALAR"
        }
    ],
    "bufferViews" : [
        {
            "buffer" : 0,
            "byteLength" : 4992,
            "byteOffset" : 0
        },
        {
            "buffer" : 0,
            "byteLength" : 4992,
            "byteOffset" : 4992
        },
        {
            "buffer" : 0,
            "byteLength" : 3328,
            "byteOffset" : 9984
        },
        {
            "buffer" : 0,
            "byteLength" : 1728,
            "byteOffset" : 13312
        },
        {
            "buffer" : 0,
            "byteLength" : 6144,
            "byteOffset" : 15040
        },
        {
            "buffer" : 0,
            "byteLength" : 6144,
            "byteOffset" : 21184
        },
        {
            "buffer" : 0,
            "byteLength" : 4096,
            "byteOffset" : 27328
        },
        {
            "buffer" : 0,
            "byteLength" : 1920,
            "byteOffset" : 31424
        },
        {
            "buffer" : 0,
            "byteLength" : 87552,
            "byteOffset" : 33344
        },
        {
            "buffer" : 0,
            "byteLength" : 87552,
            "byteOffset" : 120896
        },
        {
            "buffer" : 0,
            "byteLength" : 58368,
            "byteOffset" : 208448
        },
        {
            "buffer" : 0,
            "byteLength" : 22272,
            "byteOffset" : 266816
        },
        {
            "buffer" : 0,
            "byteLength" : 38400,
            "byteOffset" : 289088
        },
        {
            "buffer" : 0,
            "byteLength" : 38400,
            "byteOffset" : 327488
        },
        {
            "buffer" : 0,
            "byteLength" : 25600,
            "byteOffset" : 365888
        },
        {
            "buffer" : 0,
            "byteLength" : 9984,
            "byteOffset" : 391488
        },
        {
            "buffer" : 0,
            "byteLength" : 85344,
            "byteOffset" : 401472
        },
        {
            "buffer" : 0,
            "byteLength" : 85344,
            "byteOffset" : 486816
        },
        {
            "buffer" : 0,
            "byteLength" : 56896,
            "byteOffset" : 572160
        },
        {
            "buffer" : 0,
            "byteLength" : 34656,
            "byteOffset" : 629056
        },
        {
            "buffer" : 0,
            "byteLength" : 22176,
            "byteOffset" : 663712
        },
        {
            "buffer" : 0,
            "byteLength" : 22176,
            "byteOffset" : 685888
        },
        {
            "buffer" : 0,
            "byteLength" : 14784,
            "byteOffset" : 708064
        },
        {
            "buffer" : 0,
            "byteLength" : 6600,
            "byteOffset" : 722848
        },
        {
            "buffer" : 0,
            "byteLength" : 9696,
            "byteOffset" : 729448
        },
        {
            "buffer" : 0,
            "byteLength" : 9696,
            "byteOffset" : 739144
        },
        {
            "buffer" : 0,
            "byteLength" : 6464,
            "byteOffset" : 748840
        },
        {
            "buffer" : 0,
            "byteLength" : 3144,
            "byteOffset" : 755304
        },
        {
            "buffer" : 0,
            "byteLength" : 10248,
            "byteOffset" : 758448
        },
        {
            "buffer" : 0,
            "byteLength" : 10248,
            "byteOffset" : 768696
        },
        {
            "buffer" : 0,
            "byteLength" : 6832,
            "byteOffset" : 778944
        },
        {
            "buffer" : 0,
            "byteLength" : 3888,
            "byteOffset" : 785776
        },
        {
            "buffer" : 0,
            "byteLength" : 2880,
            "byteOffset" : 789664
        },
        {
            "buffer" : 0,
            "byteLength" : 2880,
            "byteOffset" : 792544
        },
        {
            "buffer" : 0,
            "byteLength" : 1920,
            "byteOffset" : 795424
        },
        {
            "buffer" : 0,
            "byteLength" : 720,
            "byteOffset" : 797344
        }
    ],
    "buffers" : [
        {
            "byteLength" : 798064,
            "uri" : "tram.bin"
        }
    ]
}
