{
    "asset" : {
        "generator" : "Khronos glTF Blender I/O v1.0.5",
        "version" : "2.0"
    },
    "scene" : 0,
    "scenes" : [
        {
            "name" : "Scene",
            "nodes" : [
                0
            ]
        }
    ],
    "nodes" : [
        {
            "mesh" : 0,
            "name" : "montgolfiere",
            "scale" : [
                0.03211095184087753,
                0.03211095184087753,
                0.03211095184087753
            ]
        }
    ],
    "materials" : [
        {
            "doubleSided" : true,
            "name" : "Panier",
            "pbrMetallicRoughness" : {
                "baseColorTexture" : {
                    "index" : 0,
                    "texCoord" : 0
                },
                "metallicFactor" : 0,
                "roughnessFactor" : 0.5
            }
        },
        {
            "doubleSided" : true,
            "name" : "fer",
            "pbrMetallicRoughness" : {
                "baseColorTexture" : {
                    "index" : 1,
                    "texCoord" : 0
                },
                "metallicFactor" : 0.49166667461395264,
                "roughnessFactor" : 0.5
            }
        },
        {
            "doubleSided" : true,
            "name" : "team_color",
            "pbrMetallicRoughness" : {
                "baseColorTexture" : {
                    "index" : 2,
                    "texCoord" : 0
                },
                "metallicFactor" : 0,
                "roughnessFactor" : 0.5
            }
        },
        {
            "doubleSided" : true,
            "name" : "base_balloon",
            "pbrMetallicRoughness" : {
                "baseColorTexture" : {
                    "index" : 3,
                    "texCoord" : 0
                },
                "metallicFactor" : 0,
                "roughnessFactor" : 0.5
            }
        }
    ],
    "meshes" : [
        {
            "name" : "Cube.001",
            "primitives" : [
                {
                    "attributes" : {
                        "POSITION" : 0,
                        "NORMAL" : 1,
                        "TEXCOORD_0" : 2
                    },
                    "indices" : 3,
                    "material" : 0
                },
                {
                    "attributes" : {
                        "POSITION" : 4,
                        "NORMAL" : 5,
                        "TEXCOORD_0" : 6
                    },
                    "indices" : 7,
                    "material" : 1
                },
                {
                    "attributes" : {
                        "POSITION" : 8,
                        "NORMAL" : 9,
                        "TEXCOORD_0" : 10
                    },
                    "indices" : 11,
                    "material" : 2
                },
                {
                    "attributes" : {
                        "POSITION" : 12,
                        "NORMAL" : 13,
                        "TEXCOORD_0" : 14
                    },
                    "indices" : 15,
                    "material" : 3
                }
            ]
        }
    ],
    "textures" : [
        {
            "source" : 0
        },
        {
            "source" : 1
        },
        {
            "source" : 2
        },
        {
            "source" : 3
        }
    ],
    "images" : [
        {
            "mimeType" : "image/png",
            "name" : "orange",
            "uri" : "orange.png"
        },
        {
            "mimeType" : "image/png",
            "name" : "gris",
            "uri" : "gris.png"
        },
        {
            "mimeType" : "image/png",
            "name" : "rouge",
            "uri" : "rouge.png"
        },
        {
            "mimeType" : "image/png",
            "name" : "blanc",
            "uri" : "blanc.png"
        }
    ],
    "accessors" : [
        {
            "bufferView" : 0,
            "componentType" : 5126,
            "count" : 80,
            "max" : [
                0.4690423011779785,
                1.82523775100708,
                0.5844897627830505
            ],
            "min" : [
                -0.4184468984603882,
                0.8192275166511536,
                -0.4995881915092468
            ],
            "type" : "VEC3"
        },
        {
            "bufferView" : 1,
            "componentType" : 5126,
            "count" : 80,
            "type" : "VEC3"
        },
        {
            "bufferView" : 2,
            "componentType" : 5126,
            "count" : 80,
            "type" : "VEC2"
        },
        {
            "bufferView" : 3,
            "componentType" : 5123,
            "count" : 144,
            "type" : "SCALAR"
        },
        {
            "bufferView" : 4,
            "componentType" : 5126,
            "count" : 1092,
            "max" : [
                0.453640341758728,
                2.5132651329040527,
                0.5541183948516846
            ],
            "min" : [
                -0.4030449390411377,
                1.7763991355895996,
                -0.45781368017196655
            ],
            "type" : "VEC3"
        },
        {
            "bufferView" : 5,
            "componentType" : 5126,
            "count" : 1092,
            "type" : "VEC3"
        },
        {
            "bufferView" : 6,
            "componentType" : 5126,
            "count" : 1092,
            "type" : "VEC2"
        },
        {
            "bufferView" : 7,
            "componentType" : 5123,
            "count" : 1716,
            "type" : "SCALAR"
        },
        {
            "bufferView" : 8,
            "componentType" : 5126,
            "count" : 2152,
            "max" : [
                1.6954352855682373,
                6.214691162109375,
                1.676443338394165
            ],
            "min" : [
                -1.6448400020599365,
                0.8192275166511536,
                -1.663832187652588
            ],
            "type" : "VEC3"
        },
        {
            "bufferView" : 9,
            "componentType" : 5126,
            "count" : 2152,
            "type" : "VEC3"
        },
        {
            "bufferView" : 10,
            "componentType" : 5126,
            "count" : 2152,
            "type" : "VEC2"
        },
        {
            "bufferView" : 11,
            "componentType" : 5123,
            "count" : 3168,
            "type" : "SCALAR"
        },
        {
            "bufferView" : 12,
            "componentType" : 5126,
            "count" : 2004,
            "max" : [
                1.6954352855682373,
                6.214691162109375,
                1.676443338394165
            ],
            "min" : [
                -1.6448400020599365,
                2.808976888656616,
                -1.663832187652588
            ],
            "type" : "VEC3"
        },
        {
            "bufferView" : 13,
            "componentType" : 5126,
            "count" : 2004,
            "type" : "VEC3"
        },
        {
            "bufferView" : 14,
            "componentType" : 5126,
            "count" : 2004,
            "type" : "VEC2"
        },
        {
            "bufferView" : 15,
            "componentType" : 5123,
            "count" : 2904,
            "type" : "SCALAR"
        }
    ],
    "bufferViews" : [
        {
            "buffer" : 0,
            "byteLength" : 960,
            "byteOffset" : 0
        },
        {
            "buffer" : 0,
            "byteLength" : 960,
            "byteOffset" : 960
        },
        {
            "buffer" : 0,
            "byteLength" : 640,
            "byteOffset" : 1920
        },
        {
            "buffer" : 0,
            "byteLength" : 288,
            "byteOffset" : 2560
        },
        {
            "buffer" : 0,
            "byteLength" : 13104,
            "byteOffset" : 2848
        },
        {
            "buffer" : 0,
            "byteLength" : 13104,
            "byteOffset" : 15952
        },
        {
            "buffer" : 0,
            "byteLength" : 8736,
            "byteOffset" : 29056
        },
        {
            "buffer" : 0,
            "byteLength" : 3432,
            "byteOffset" : 37792
        },
        {
            "buffer" : 0,
            "byteLength" : 25824,
            "byteOffset" : 41224
        },
        {
            "buffer" : 0,
            "byteLength" : 25824,
            "byteOffset" : 67048
        },
        {
            "buffer" : 0,
            "byteLength" : 17216,
            "byteOffset" : 92872
        },
        {
            "buffer" : 0,
            "byteLength" : 6336,
            "byteOffset" : 110088
        },
        {
            "buffer" : 0,
            "byteLength" : 24048,
            "byteOffset" : 116424
        },
        {
            "buffer" : 0,
            "byteLength" : 24048,
            "byteOffset" : 140472
        },
        {
            "buffer" : 0,
            "byteLength" : 16032,
            "byteOffset" : 164520
        },
        {
            "buffer" : 0,
            "byteLength" : 5808,
            "byteOffset" : 180552
        }
    ],
    "buffers" : [
        {
            "byteLength" : 186360,
            "uri" : "montgolfiere.bin"
        }
    ]
}
