{
    "asset" : {
        "generator" : "Khronos glTF Blender I/O v1.0.5",
        "version" : "2.0"
    },
    "scene" : 0,
    "scenes" : [
        {
            "name" : "Scene",
            "nodes" : [
                0
            ]
        }
    ],
    "nodes" : [
        {
            "mesh" : 0,
            "name" : "Tracteur",
            "scale" : [
                0.02722836285829544,
                0.02722836285829544,
                0.02722836285829544
            ]
        }
    ],
    "materials" : [
        {
            "doubleSided" : true,
            "name" : "team_color",
            "pbrMetallicRoughness" : {
                "baseColorTexture" : {
                    "index" : 0,
                    "texCoord" : 0
                },
                "metallicFactor" : 0.21666666865348816,
                "roughnessFactor" : 0.5416666865348816
            }
        },
        {
            "doubleSided" : true,
            "emissiveFactor" : [
                1,
                1,
                1
            ],
            "emissiveTexture" : {
                "index" : 1,
                "texCoord" : 0
            },
            "name" : "lights",
            "pbrMetallicRoughness" : {}
        },
        {
            "doubleSided" : true,
            "name" : "retro",
            "pbrMetallicRoughness" : {
                "baseColorTexture" : {
                    "index" : 2,
                    "texCoord" : 0
                },
                "metallicFactor" : 0,
                "roughnessFactor" : 0.5
            }
        },
        {
            "doubleSided" : true,
            "name" : "gris",
            "pbrMetallicRoughness" : {
                "baseColorTexture" : {
                    "index" : 3,
                    "texCoord" : 0
                },
                "metallicFactor" : 0.7250000238418579,
                "roughnessFactor" : 0.4166666567325592
            }
        },
        {
            "doubleSided" : true,
            "name" : "Vitres",
            "pbrMetallicRoughness" : {
                "baseColorTexture" : {
                    "index" : 4,
                    "texCoord" : 0
                },
                "metallicFactor" : 0,
                "roughnessFactor" : 0.5
            }
        },
        {
            "doubleSided" : true,
            "emissiveFactor" : [
                1,
                1,
                1
            ],
            "emissiveTexture" : {
                "index" : 5,
                "texCoord" : 0
            },
            "name" : "feu",
            "pbrMetallicRoughness" : {}
        },
        {
            "doubleSided" : true,
            "name" : "pneu",
            "pbrMetallicRoughness" : {
                "baseColorTexture" : {
                    "index" : 6,
                    "texCoord" : 0
                },
                "metallicFactor" : 0,
                "roughnessFactor" : 0.5
            }
        }
    ],
    "meshes" : [
        {
            "name" : "Cube",
            "primitives" : [
                {
                    "attributes" : {
                        "POSITION" : 0,
                        "NORMAL" : 1,
                        "TEXCOORD_0" : 2
                    },
                    "indices" : 3,
                    "material" : 0
                },
                {
                    "attributes" : {
                        "POSITION" : 4,
                        "NORMAL" : 5,
                        "TEXCOORD_0" : 6
                    },
                    "indices" : 7,
                    "material" : 1
                },
                {
                    "attributes" : {
                        "POSITION" : 8,
                        "NORMAL" : 9,
                        "TEXCOORD_0" : 10
                    },
                    "indices" : 11,
                    "material" : 2
                },
                {
                    "attributes" : {
                        "POSITION" : 12,
                        "NORMAL" : 13,
                        "TEXCOORD_0" : 14
                    },
                    "indices" : 15,
                    "material" : 3
                },
                {
                    "attributes" : {
                        "POSITION" : 16,
                        "NORMAL" : 17,
                        "TEXCOORD_0" : 18
                    },
                    "indices" : 19,
                    "material" : 4
                },
                {
                    "attributes" : {
                        "POSITION" : 20,
                        "NORMAL" : 21,
                        "TEXCOORD_0" : 22
                    },
                    "indices" : 23,
                    "material" : 5
                },
                {
                    "attributes" : {
                        "POSITION" : 24,
                        "NORMAL" : 25,
                        "TEXCOORD_0" : 26
                    },
                    "indices" : 27,
                    "material" : 6
                }
            ]
        }
    ],
    "textures" : [
        {
            "source" : 0
        },
        {
            "source" : 1
        },
        {
            "source" : 2
        },
        {
            "source" : 3
        },
        {
            "source" : 4
        },
        {
            "source" : 0
        },
        {
            "source" : 2
        }
    ],
    "images" : [
        {
            "mimeType" : "image/png",
            "name" : "cayenne",
            "uri" : "cayenne.png"
        },
        {
            "mimeType" : "image/png",
            "name" : "blanc",
            "uri" : "blanc.png"
        },
        {
            "mimeType" : "image/png",
            "name" : "noir",
            "uri" : "noir.png"
        },
        {
            "mimeType" : "image/png",
            "name" : "gris",
            "uri" : "gris.png"
        },
        {
            "mimeType" : "image/png",
            "name" : "ice",
            "uri" : "ice.png"
        }
    ],
    "accessors" : [
        {
            "bufferView" : 0,
            "componentType" : 5126,
            "count" : 4820,
            "max" : [
                1.4301766157150269,
                4.051187038421631,
                2.2573630809783936
            ],
            "min" : [
                -1.5025800466537476,
                0.7126083374023438,
                -2.4258511066436768
            ],
            "type" : "VEC3"
        },
        {
            "bufferView" : 1,
            "componentType" : 5126,
            "count" : 4820,
            "type" : "VEC3"
        },
        {
            "bufferView" : 2,
            "componentType" : 5126,
            "count" : 4820,
            "type" : "VEC2"
        },
        {
            "bufferView" : 3,
            "componentType" : 5123,
            "count" : 8166,
            "type" : "SCALAR"
        },
        {
            "bufferView" : 4,
            "componentType" : 5126,
            "count" : 12,
            "max" : [
                0.7920730113983154,
                1.9140698909759521,
                2.1011404991149902
            ],
            "min" : [
                -0.8644764423370361,
                1.7184062004089355,
                2.0961556434631348
            ],
            "type" : "VEC3"
        },
        {
            "bufferView" : 5,
            "componentType" : 5126,
            "count" : 12,
            "type" : "VEC3"
        },
        {
            "bufferView" : 6,
            "componentType" : 5126,
            "count" : 12,
            "type" : "VEC2"
        },
        {
            "bufferView" : 7,
            "componentType" : 5123,
            "count" : 24,
            "type" : "SCALAR"
        },
        {
            "bufferView" : 8,
            "componentType" : 5126,
            "count" : 1034,
            "max" : [
                1.4301766157150269,
                3.0590744018554688,
                2.2573630809783936
            ],
            "min" : [
                -1.5025800466537476,
                0.7126083374023438,
                -2.3234896659851074
            ],
            "type" : "VEC3"
        },
        {
            "bufferView" : 9,
            "componentType" : 5126,
            "count" : 1034,
            "type" : "VEC3"
        },
        {
            "bufferView" : 10,
            "componentType" : 5126,
            "count" : 1034,
            "type" : "VEC2"
        },
        {
            "bufferView" : 11,
            "componentType" : 5123,
            "count" : 1668,
            "type" : "SCALAR"
        },
        {
            "bufferView" : 12,
            "componentType" : 5126,
            "count" : 1421,
            "max" : [
                1.5667585134506226,
                4.051187038421631,
                2.069197177886963
            ],
            "min" : [
                -1.5929644107818604,
                0.35334575176239014,
                -2.308852434158325
            ],
            "type" : "VEC3"
        },
        {
            "bufferView" : 13,
            "componentType" : 5126,
            "count" : 1421,
            "type" : "VEC3"
        },
        {
            "bufferView" : 14,
            "componentType" : 5126,
            "count" : 1421,
            "type" : "VEC2"
        },
        {
            "bufferView" : 15,
            "componentType" : 5123,
            "count" : 2292,
            "type" : "SCALAR"
        },
        {
            "bufferView" : 16,
            "componentType" : 5126,
            "count" : 48,
            "max" : [
                1.2108561992645264,
                3.057849407196045,
                0.34075936675071716
            ],
            "min" : [
                -1.283259630203247,
                2.144716501235962,
                -1.5474547147750854
            ],
            "type" : "VEC3"
        },
        {
            "bufferView" : 17,
            "componentType" : 5126,
            "count" : 48,
            "type" : "VEC3"
        },
        {
            "bufferView" : 18,
            "componentType" : 5126,
            "count" : 48,
            "type" : "VEC2"
        },
        {
            "bufferView" : 19,
            "componentType" : 5123,
            "count" : 72,
            "type" : "SCALAR"
        },
        {
            "bufferView" : 20,
            "componentType" : 5126,
            "count" : 24,
            "max" : [
                0.9049078822135925,
                2.1267611980438232,
                2.0982513427734375
            ],
            "min" : [
                -0.9773113131523132,
                1.9493530988693237,
                -2.298372507095337
            ],
            "type" : "VEC3"
        },
        {
            "bufferView" : 21,
            "componentType" : 5126,
            "count" : 24,
            "type" : "VEC3"
        },
        {
            "bufferView" : 22,
            "componentType" : 5126,
            "count" : 24,
            "type" : "VEC2"
        },
        {
            "bufferView" : 23,
            "componentType" : 5123,
            "count" : 36,
            "type" : "SCALAR"
        },
        {
            "bufferView" : 24,
            "componentType" : 5126,
            "count" : 5068,
            "max" : [
                1.652542233467102,
                2.079634189605713,
                2.4260549545288086
            ],
            "min" : [
                -1.654563307762146,
                -0.0035120248794555664,
                -2.5563302040100098
            ],
            "type" : "VEC3"
        },
        {
            "bufferView" : 25,
            "componentType" : 5126,
            "count" : 5068,
            "type" : "VEC3"
        },
        {
            "bufferView" : 26,
            "componentType" : 5126,
            "count" : 5068,
            "type" : "VEC2"
        },
        {
            "bufferView" : 27,
            "componentType" : 5123,
            "count" : 8364,
            "type" : "SCALAR"
        }
    ],
    "bufferViews" : [
        {
            "buffer" : 0,
            "byteLength" : 57840,
            "byteOffset" : 0
        },
        {
            "buffer" : 0,
            "byteLength" : 57840,
            "byteOffset" : 57840
        },
        {
            "buffer" : 0,
            "byteLength" : 38560,
            "byteOffset" : 115680
        },
        {
            "buffer" : 0,
            "byteLength" : 16332,
            "byteOffset" : 154240
        },
        {
            "buffer" : 0,
            "byteLength" : 144,
            "byteOffset" : 170572
        },
        {
            "buffer" : 0,
            "byteLength" : 144,
            "byteOffset" : 170716
        },
        {
            "buffer" : 0,
            "byteLength" : 96,
            "byteOffset" : 170860
        },
        {
            "buffer" : 0,
            "byteLength" : 48,
            "byteOffset" : 170956
        },
        {
            "buffer" : 0,
            "byteLength" : 12408,
            "byteOffset" : 171004
        },
        {
            "buffer" : 0,
            "byteLength" : 12408,
            "byteOffset" : 183412
        },
        {
            "buffer" : 0,
            "byteLength" : 8272,
            "byteOffset" : 195820
        },
        {
            "buffer" : 0,
            "byteLength" : 3336,
            "byteOffset" : 204092
        },
        {
            "buffer" : 0,
            "byteLength" : 17052,
            "byteOffset" : 207428
        },
        {
            "buffer" : 0,
            "byteLength" : 17052,
            "byteOffset" : 224480
        },
        {
            "buffer" : 0,
            "byteLength" : 11368,
            "byteOffset" : 241532
        },
        {
            "buffer" : 0,
            "byteLength" : 4584,
            "byteOffset" : 252900
        },
        {
            "buffer" : 0,
            "byteLength" : 576,
            "byteOffset" : 257484
        },
        {
            "buffer" : 0,
            "byteLength" : 576,
            "byteOffset" : 258060
        },
        {
            "buffer" : 0,
            "byteLength" : 384,
            "byteOffset" : 258636
        },
        {
            "buffer" : 0,
            "byteLength" : 144,
            "byteOffset" : 259020
        },
        {
            "buffer" : 0,
            "byteLength" : 288,
            "byteOffset" : 259164
        },
        {
            "buffer" : 0,
            "byteLength" : 288,
            "byteOffset" : 259452
        },
        {
            "buffer" : 0,
            "byteLength" : 192,
            "byteOffset" : 259740
        },
        {
            "buffer" : 0,
            "byteLength" : 72,
            "byteOffset" : 259932
        },
        {
            "buffer" : 0,
            "byteLength" : 60816,
            "byteOffset" : 260004
        },
        {
            "buffer" : 0,
            "byteLength" : 60816,
            "byteOffset" : 320820
        },
        {
            "buffer" : 0,
            "byteLength" : 40544,
            "byteOffset" : 381636
        },
        {
            "buffer" : 0,
            "byteLength" : 16728,
            "byteOffset" : 422180
        }
    ],
    "buffers" : [
        {
            "byteLength" : 438908,
            "uri" : "tracteur.bin"
        }
    ]
}
