{"buffers":[{"uri":"camion.bin","byteLength":477712}],"asset":{"version":"2.0","generator":"gltfpack 0.14"},"extensionsUsed":["KHR_mesh_quantization","KHR_texture_transform"],"extensionsRequired":["KHR_mesh_quantization"],"bufferViews":[{"buffer":0,"byteOffset":0,"byteLength":198080,"byteStride":8,"target":34962},{"buffer":0,"byteOffset":198080,"byteLength":99040,"byteStride":4,"target":34962},{"buffer":0,"byteOffset":297120,"byteLength":99040,"byteStride":4,"target":34962},{"buffer":0,"byteOffset":396160,"byteLength":81552,"target":34963}],"accessors":[{"bufferView":0,"byteOffset":0,"componentType":5123,"count":3344,"type":"VEC3","min":[376,285,0],"max":[5056,5291,16362]},{"bufferView":1,"byteOffset":0,"componentType":5120,"count":3344,"type":"VEC3","normalized":true},{"bufferView":2,"byteOffset":0,"componentType":5123,"count":3344,"type":"VEC2"},{"bufferView":3,"byteOffset":0,"componentType":5123,"count":5829,"type":"SCALAR"},{"bufferView":0,"byteOffset":26752,"componentType":5123,"count":9321,"type":"VEC3","min":[0,0,0],"max":[5406,5291,16383]},{"bufferView":1,"byteOffset":13376,"componentType":5120,"count":9321,"type":"VEC3","normalized":true},{"bufferView":2,"byteOffset":13376,"componentType":5123,"count":9321,"type":"VEC2"},{"bufferView":3,"byteOffset":11658,"componentType":5123,"count":15177,"type":"SCALAR"},{"bufferView":0,"byteOffset":101320,"componentType":5123,"count":110,"type":"VEC3","min":[12,2513,12880],"max":[5394,4375,16245]},{"bufferView":1,"byteOffset":50660,"componentType":5120,"count":110,"type":"VEC3","normalized":true},{"bufferView":2,"byteOffset":50660,"componentType":5123,"count":110,"type":"VEC2"},{"bufferView":3,"byteOffset":42012,"componentType":5123,"count":168,"type":"SCALAR"},{"bufferView":0,"byteOffset":102200,"componentType":5123,"count":10299,"type":"VEC3","min":[340,285,0],"max":[5056,5962,16362]},{"bufferView":1,"byteOffset":51100,"componentType":5120,"count":10299,"type":"VEC3","normalized":true},{"bufferView":2,"byteOffset":51100,"componentType":5123,"count":10299,"type":"VEC2"},{"bufferView":3,"byteOffset":42348,"componentType":5123,"count":16722,"type":"SCALAR"},{"bufferView":0,"byteOffset":184592,"componentType":5123,"count":1542,"type":"VEC3","min":[1024,2040,830],"max":[4391,5116,11627]},{"bufferView":1,"byteOffset":92296,"componentType":5120,"count":1542,"type":"VEC3","normalized":true},{"bufferView":2,"byteOffset":92296,"componentType":5123,"count":1542,"type":"VEC2"},{"bufferView":3,"byteOffset":75792,"componentType":5123,"count":2664,"type":"SCALAR"},{"bufferView":0,"byteOffset":196928,"componentType":5123,"count":128,"type":"VEC3","min":[1484,4842,14269],"max":[3913,5142,14582]},{"bufferView":1,"byteOffset":98464,"componentType":5120,"count":128,"type":"VEC3","normalized":true},{"bufferView":2,"byteOffset":98464,"componentType":5123,"count":128,"type":"VEC2"},{"bufferView":3,"byteOffset":81120,"componentType":5123,"count":192,"type":"SCALAR"},{"bufferView":0,"byteOffset":197952,"componentType":5123,"count":8,"type":"VEC3","min":[546,1140,15964],"max":[4841,1581,16148]},{"bufferView":1,"byteOffset":98976,"componentType":5120,"count":8,"type":"VEC3","normalized":true},{"bufferView":2,"byteOffset":98976,"componentType":5123,"count":8,"type":"VEC2"},{"bufferView":3,"byteOffset":81504,"componentType":5123,"count":12,"type":"SCALAR"},{"bufferView":0,"byteOffset":198016,"componentType":5123,"count":8,"type":"VEC3","min":[594,800,58],"max":[4839,1158,58]},{"bufferView":1,"byteOffset":99008,"componentType":5120,"count":8,"type":"VEC3","normalized":true},{"bufferView":2,"byteOffset":99008,"componentType":5123,"count":8,"type":"VEC2"},{"bufferView":3,"byteOffset":81528,"componentType":5123,"count":12,"type":"SCALAR"}],"images":[{"uri":"cayenne.png"},{"uri":"noir.png"},{"uri":"ice.png"},{"uri":"gris.png"},{"uri":"blanc.png"}],"textures":[{"source":0},{"source":1},{"source":2},{"source":3},{"source":4},{"source":0},{"source":4},{"source":0}],"materials":[{"name":"team_color","pbrMetallicRoughness":{"baseColorTexture":{"index":0,"texCoord":0,"extensions":{"KHR_texture_transform":{"offset":[0,0],"scale":[0.000244200259,0.000244200259]}}},"metallicFactor":0,"roughnessFactor":0.400000006},"doubleSided":true},{"name":"noir","pbrMetallicRoughness":{"baseColorTexture":{"index":1,"texCoord":0,"extensions":{"KHR_texture_transform":{"offset":[0,0],"scale":[0.000244200259,0.000244200259]}}},"metallicFactor":0,"roughnessFactor":0.5},"doubleSided":true},{"name":"vitres","pbrMetallicRoughness":{"baseColorTexture":{"index":2,"texCoord":0,"extensions":{"KHR_texture_transform":{"offset":[0.37499997,0.24999994],"scale":[2.18332036e-11,0.000180288771]}}},"metallicFactor":0,"roughnessFactor":0.5},"doubleSided":true},{"name":"gris","pbrMetallicRoughness":{"baseColorTexture":{"index":3,"texCoord":0,"extensions":{"KHR_texture_transform":{"offset":[0,0],"scale":[0.000244200259,0.000244200259]}}},"metallicFactor":0,"roughnessFactor":0.5},"doubleSided":true},{"name":"blanc","pbrMetallicRoughness":{"baseColorTexture":{"index":4,"texCoord":0,"extensions":{"KHR_texture_transform":{"offset":[0,0],"scale":[0.000244200259,0.000241758244]}}},"metallicFactor":0,"roughnessFactor":0.5},"doubleSided":true},{"name":"rouge","pbrMetallicRoughness":{"baseColorTexture":{"index":5,"texCoord":0,"extensions":{"KHR_texture_transform":{"offset":[0,0.00999331474],"scale":[0.000244200259,0.000117219381]}}},"metallicFactor":0,"roughnessFactor":0.5},"doubleSided":true},{"name":"feux","pbrMetallicRoughness":{},"emissiveTexture":{"index":6,"texCoord":0,"extensions":{"KHR_texture_transform":{"offset":[0.37499997,0.5],"scale":[1.45554697e-11,6.10500647e-05]}}},"emissiveFactor":[1,1,1],"doubleSided":true},{"name":"Material","pbrMetallicRoughness":{},"emissiveTexture":{"index":7,"texCoord":0,"extensions":{"KHR_texture_transform":{"offset":[0.458342671,0],"scale":[1.77834645e-05,6.10500792e-05]}}},"emissiveFactor":[1,1,1],"doubleSided":true}],"meshes":[{"primitives":[{"attributes":{"POSITION":0,"NORMAL":1,"TEXCOORD_0":2},"mode":4,"indices":3,"material":0},{"attributes":{"POSITION":4,"NORMAL":5,"TEXCOORD_0":6},"mode":4,"indices":7,"material":1},{"attributes":{"POSITION":8,"NORMAL":9,"TEXCOORD_0":10},"mode":4,"indices":11,"material":2},{"attributes":{"POSITION":12,"NORMAL":13,"TEXCOORD_0":14},"mode":4,"indices":15,"material":3},{"attributes":{"POSITION":16,"NORMAL":17,"TEXCOORD_0":18},"mode":4,"indices":19,"material":4},{"attributes":{"POSITION":20,"NORMAL":21,"TEXCOORD_0":22},"mode":4,"indices":23,"material":5},{"attributes":{"POSITION":24,"NORMAL":25,"TEXCOORD_0":26},"mode":4,"indices":27,"material":6},{"attributes":{"POSITION":28,"NORMAL":29,"TEXCOORD_0":30},"mode":4,"indices":31,"material":7}]}],"nodes":[{"mesh":0,"translation":[-0.0441126749,0.00031383257,-0.153161481],"scale":[1.64171597e-05,1.64171597e-05,1.64171597e-05]}],"scenes":[{"nodes":[0]}],"scene":0}