{"buffers":[{"uri":"moto.bin","byteLength":1240280}],"asset":{"version":"2.0","generator":"gltfpack 0.14"},"extensionsUsed":["KHR_mesh_quantization","KHR_texture_transform"],"extensionsRequired":["KHR_mesh_quantization"],"bufferViews":[{"buffer":0,"byteOffset":0,"byteLength":558688,"byteStride":8,"target":34962},{"buffer":0,"byteOffset":558688,"byteLength":279344,"byteStride":4,"target":34962},{"buffer":0,"byteOffset":838032,"byteLength":256112,"byteStride":4,"target":34962},{"buffer":0,"byteOffset":1094144,"byteLength":146136,"target":34963}],"accessors":[{"bufferView":0,"byteOffset":0,"componentType":5123,"count":48929,"type":"VEC3","min":[0,505,1051],"max":[5418,12211,15778]},{"bufferView":1,"byteOffset":0,"componentType":5120,"count":48929,"type":"VEC3","normalized":true},{"bufferView":2,"byteOffset":0,"componentType":5123,"count":48929,"type":"VEC2"},{"bufferView":3,"byteOffset":0,"componentType":5123,"count":50052,"type":"SCALAR"},{"bufferView":0,"byteOffset":391432,"componentType":5123,"count":5808,"type":"VEC3","min":[235,2004,1426],"max":[5186,8778,10888]},{"bufferView":1,"byteOffset":195716,"componentType":5120,"count":5808,"type":"VEC3","normalized":true},{"bufferView":3,"byteOffset":100104,"componentType":5123,"count":6684,"type":"SCALAR"},{"bufferView":0,"byteOffset":437896,"componentType":5123,"count":8367,"type":"VEC3","min":[1345,711,2206],"max":[4065,8015,15672]},{"bufferView":1,"byteOffset":218948,"componentType":5120,"count":8367,"type":"VEC3","normalized":true},{"bufferView":2,"byteOffset":195716,"componentType":5123,"count":8367,"type":"VEC2"},{"bufferView":3,"byteOffset":113472,"componentType":5123,"count":8850,"type":"SCALAR"},{"bufferView":0,"byteOffset":504832,"componentType":5123,"count":133,"type":"VEC3","min":[1920,5558,1837],"max":[3501,6867,7161]},{"bufferView":1,"byteOffset":252416,"componentType":5120,"count":133,"type":"VEC3","normalized":true},{"bufferView":2,"byteOffset":229184,"componentType":5123,"count":133,"type":"VEC2"},{"bufferView":3,"byteOffset":131172,"componentType":5123,"count":168,"type":"SCALAR"},{"bufferView":0,"byteOffset":505896,"componentType":5123,"count":58,"type":"VEC3","min":[2229,6762,12657],"max":[3193,7726,12657]},{"bufferView":1,"byteOffset":252948,"componentType":5120,"count":58,"type":"VEC3","normalized":true},{"bufferView":2,"byteOffset":229716,"componentType":5123,"count":58,"type":"VEC2"},{"bufferView":3,"byteOffset":131508,"componentType":5123,"count":90,"type":"SCALAR"},{"bufferView":0,"byteOffset":506360,"componentType":5123,"count":2256,"type":"VEC3","min":[1624,2414,7289],"max":[3797,6001,10270]},{"bufferView":1,"byteOffset":253180,"componentType":5120,"count":2256,"type":"VEC3","normalized":true},{"bufferView":2,"byteOffset":229948,"componentType":5123,"count":2256,"type":"VEC2"},{"bufferView":3,"byteOffset":131688,"componentType":5123,"count":2676,"type":"SCALAR"},{"bufferView":0,"byteOffset":524408,"componentType":5123,"count":3927,"type":"VEC3","min":[1229,0,0],"max":[4196,5979,16383]},{"bufferView":1,"byteOffset":262204,"componentType":5120,"count":3927,"type":"VEC3","normalized":true},{"bufferView":2,"byteOffset":238972,"componentType":5123,"count":3927,"type":"VEC2"},{"bufferView":3,"byteOffset":137040,"componentType":5123,"count":4164,"type":"SCALAR"},{"bufferView":0,"byteOffset":555824,"componentType":5123,"count":358,"type":"VEC3","min":[2149,711,1452],"max":[3273,4316,5057]},{"bufferView":1,"byteOffset":277912,"componentType":5120,"count":358,"type":"VEC3","normalized":true},{"bufferView":2,"byteOffset":254680,"componentType":5123,"count":358,"type":"VEC2"},{"bufferView":3,"byteOffset":145368,"componentType":5123,"count":384,"type":"SCALAR"}],"images":[{"uri":"fern.png"},{"uri":"silver.png"},{"uri":"mocha.png"},{"uri":"jaune.png"},{"uri":"tungsten.png"},{"uri":"noir_png.png"},{"uri":"gris_png.png"}],"textures":[{"source":0},{"source":1},{"source":2},{"source":3},{"source":4},{"source":5},{"source":6}],"materials":[{"name":"fern.001","pbrMetallicRoughness":{"baseColorTexture":{"index":0,"texCoord":0,"extensions":{"KHR_texture_transform":{"offset":[0,0],"scale":[0.000244200317,0.000244200259]}}},"metallicFactor":0,"roughnessFactor":0.400000006},"doubleSided":true},{"name":"Material.022","pbrMetallicRoughness":{},"doubleSided":true},{"name":"silver","pbrMetallicRoughness":{"baseColorTexture":{"index":1,"texCoord":0,"extensions":{"KHR_texture_transform":{"offset":[0,-1.1920929e-07],"scale":[0.000244200259,0.000241758273]}}},"metallicFactor":0,"roughnessFactor":0.5},"doubleSided":true},{"name":"mocha","pbrMetallicRoughness":{"baseColorTexture":{"index":2,"texCoord":0,"extensions":{"KHR_texture_transform":{"offset":[0.125,0],"scale":[0.000183150187,0.000244200259]}}},"metallicFactor":0,"roughnessFactor":0.5},"doubleSided":true},{"name":"jaune.001","pbrMetallicRoughness":{"baseColorTexture":{"index":3,"texCoord":0,"extensions":{"KHR_texture_transform":{"offset":[0.0100000054,0.50999999],"scale":[0.000117216121,0.000117216121]}}},"metallicFactor":0,"roughnessFactor":0.5},"doubleSided":true},{"name":"tungsten.002","pbrMetallicRoughness":{"baseColorTexture":{"index":4,"texCoord":0,"extensions":{"KHR_texture_transform":{"offset":[0,0],"scale":[0.000244200259,0.000244200259]}}},"metallicFactor":0,"roughnessFactor":0.5},"doubleSided":true},{"name":"noir.003","pbrMetallicRoughness":{"baseColorTexture":{"index":5,"texCoord":0,"extensions":{"KHR_texture_transform":{"offset":[0,-1.1920929e-07],"scale":[0.000244200259,0.000244200288]}}},"metallicFactor":0,"roughnessFactor":0.5},"doubleSided":true},{"name":"gris.002","pbrMetallicRoughness":{"baseColorTexture":{"index":6,"texCoord":0,"extensions":{"KHR_texture_transform":{"offset":[0.0131518114,-1.1920929e-07],"scale":[0.000240988564,5.82218787e-11]}}},"metallicFactor":0,"roughnessFactor":0.5},"doubleSided":true}],"meshes":[{"primitives":[{"attributes":{"POSITION":0,"NORMAL":1,"TEXCOORD_0":2},"mode":4,"indices":3,"material":0},{"attributes":{"POSITION":4,"NORMAL":5},"mode":4,"indices":6,"material":1},{"attributes":{"POSITION":7,"NORMAL":8,"TEXCOORD_0":9},"mode":4,"indices":10,"material":2},{"attributes":{"POSITION":11,"NORMAL":12,"TEXCOORD_0":13},"mode":4,"indices":14,"material":3},{"attributes":{"POSITION":15,"NORMAL":16,"TEXCOORD_0":17},"mode":4,"indices":18,"material":4},{"attributes":{"POSITION":19,"NORMAL":20,"TEXCOORD_0":21},"mode":4,"indices":22,"material":5},{"attributes":{"POSITION":23,"NORMAL":24,"TEXCOORD_0":25},"mode":4,"indices":26,"material":6},{"attributes":{"POSITION":27,"NORMAL":28,"TEXCOORD_0":29},"mode":4,"indices":30,"material":7}]}],"nodes":[{"mesh":0,"translation":[-0.0236973353,0.000869939104,-0.0732132345],"scale":[8.74213947e-06,8.74213947e-06,8.74213947e-06]}],"scenes":[{"nodes":[0]}],"scene":0}