{
    "asset" : {
        "generator" : "Khronos glTF Blender I/O v1.0.5",
        "version" : "2.0"
    },
    "scene" : 0,
    "scenes" : [
        {
            "name" : "Scene",
            "nodes" : [
                0
            ]
        }
    ],
    "nodes" : [
        {
            "mesh" : 0,
            "name" : "Cube",
            "rotation" : [
                0,
                1,
                0,
                -1.6292068494294654e-07
            ],
            "scale" : [
                0.026221299543976784,
                0.026221299543976784,
                0.026221299543976784
            ]
        }
    ],
    "materials" : [
        {
            "doubleSided" : true,
            "name" : "team_color",
            "pbrMetallicRoughness" : {
                "baseColorTexture" : {
                    "index" : 0,
                    "texCoord" : 0
                },
                "metallicFactor" : 0,
                "roughnessFactor" : 0.4000000059604645
            }
        },
        {
            "doubleSided" : true,
            "name" : "noir",
            "pbrMetallicRoughness" : {
                "baseColorTexture" : {
                    "index" : 1,
                    "texCoord" : 0
                },
                "metallicFactor" : 0,
                "roughnessFactor" : 0.5
            }
        },
        {
            "doubleSided" : true,
            "name" : "vitres",
            "pbrMetallicRoughness" : {
                "baseColorTexture" : {
                    "index" : 2,
                    "texCoord" : 0
                },
                "metallicFactor" : 0,
                "roughnessFactor" : 0.5
            }
        },
        {
            "doubleSided" : true,
            "name" : "gris",
            "pbrMetallicRoughness" : {
                "baseColorTexture" : {
                    "index" : 3,
                    "texCoord" : 0
                },
                "metallicFactor" : 0,
                "roughnessFactor" : 0.5
            }
        },
        {
            "doubleSided" : true,
            "name" : "blanc",
            "pbrMetallicRoughness" : {
                "baseColorTexture" : {
                    "index" : 4,
                    "texCoord" : 0
                },
                "metallicFactor" : 0,
                "roughnessFactor" : 0.5
            }
        },
        {
            "doubleSided" : true,
            "name" : "rouge",
            "pbrMetallicRoughness" : {
                "baseColorTexture" : {
                    "index" : 5,
                    "texCoord" : 0
                },
                "metallicFactor" : 0,
                "roughnessFactor" : 0.5
            }
        },
        {
            "doubleSided" : true,
            "emissiveFactor" : [
                1,
                1,
                1
            ],
            "emissiveTexture" : {
                "index" : 6,
                "texCoord" : 0
            },
            "name" : "feux",
            "pbrMetallicRoughness" : {}
        },
        {
            "doubleSided" : true,
            "emissiveFactor" : [
                1,
                1,
                1
            ],
            "emissiveTexture" : {
                "index" : 7,
                "texCoord" : 0
            },
            "name" : "Material",
            "pbrMetallicRoughness" : {}
        }
    ],
    "meshes" : [
        {
            "name" : "Cube",
            "primitives" : [
                {
                    "attributes" : {
                        "POSITION" : 0,
                        "NORMAL" : 1,
                        "TEXCOORD_0" : 2
                    },
                    "indices" : 3,
                    "material" : 0
                },
                {
                    "attributes" : {
                        "POSITION" : 4,
                        "NORMAL" : 5,
                        "TEXCOORD_0" : 6
                    },
                    "indices" : 7,
                    "material" : 1
                },
                {
                    "attributes" : {
                        "POSITION" : 8,
                        "NORMAL" : 9,
                        "TEXCOORD_0" : 10
                    },
                    "indices" : 11,
                    "material" : 2
                },
                {
                    "attributes" : {
                        "POSITION" : 12,
                        "NORMAL" : 13,
                        "TEXCOORD_0" : 14
                    },
                    "indices" : 15,
                    "material" : 3
                },
                {
                    "attributes" : {
                        "POSITION" : 16,
                        "NORMAL" : 17,
                        "TEXCOORD_0" : 18
                    },
                    "indices" : 19,
                    "material" : 4
                },
                {
                    "attributes" : {
                        "POSITION" : 20,
                        "NORMAL" : 21,
                        "TEXCOORD_0" : 22
                    },
                    "indices" : 23,
                    "material" : 5
                },
                {
                    "attributes" : {
                        "POSITION" : 24,
                        "NORMAL" : 25,
                        "TEXCOORD_0" : 26
                    },
                    "indices" : 27,
                    "material" : 6
                },
                {
                    "attributes" : {
                        "POSITION" : 28,
                        "NORMAL" : 29,
                        "TEXCOORD_0" : 30
                    },
                    "indices" : 31,
                    "material" : 7
                }
            ]
        }
    ],
    "textures" : [
        {
            "source" : 0
        },
        {
            "source" : 1
        },
        {
            "source" : 2
        },
        {
            "source" : 3
        },
        {
            "source" : 4
        },
        {
            "source" : 0
        },
        {
            "source" : 4
        },
        {
            "source" : 0
        }
    ],
    "images" : [
        {
            "mimeType" : "image/png",
            "name" : "cayenne",
            "uri" : "cayenne.png"
        },
        {
            "mimeType" : "image/png",
            "name" : "noir",
            "uri" : "noir.png"
        },
        {
            "mimeType" : "image/png",
            "name" : "ice",
            "uri" : "ice.png"
        },
        {
            "mimeType" : "image/png",
            "name" : "gris",
            "uri" : "gris.png"
        },
        {
            "mimeType" : "image/png",
            "name" : "blanc",
            "uri" : "blanc.png"
        }
    ],
    "accessors" : [
        {
            "bufferView" : 0,
            "componentType" : 5126,
            "count" : 3441,
            "max" : [
                1.44694983959198,
                3.4702272415161133,
                5.841108798980713
            ],
            "min" : [
                -1.4833924770355225,
                0.19037675857543945,
                -4.40310525894165
            ],
            "type" : "VEC3"
        },
        {
            "bufferView" : 1,
            "componentType" : 5126,
            "count" : 3441,
            "type" : "VEC3"
        },
        {
            "bufferView" : 2,
            "componentType" : 5126,
            "count" : 3441,
            "type" : "VEC2"
        },
        {
            "bufferView" : 3,
            "componentType" : 5123,
            "count" : 6108,
            "type" : "SCALAR"
        },
        {
            "bufferView" : 4,
            "componentType" : 5126,
            "count" : 9855,
            "max" : [
                1.6823234558105469,
                3.3244528770446777,
                5.841108798980713
            ],
            "min" : [
                -1.7025132179260254,
                0.011968612670898438,
                -4.416289806365967
            ],
            "type" : "VEC3"
        },
        {
            "bufferView" : 5,
            "componentType" : 5126,
            "count" : 9855,
            "type" : "VEC3"
        },
        {
            "bufferView" : 6,
            "componentType" : 5126,
            "count" : 9855,
            "type" : "VEC2"
        },
        {
            "bufferView" : 7,
            "componentType" : 5123,
            "count" : 16764,
            "type" : "SCALAR"
        },
        {
            "bufferView" : 8,
            "componentType" : 5126,
            "count" : 110,
            "max" : [
                1.6747678518295288,
                2.7512760162353516,
                -2.223109483718872
            ],
            "min" : [
                -1.6949577331542969,
                1.5851207971572876,
                -4.329902172088623
            ],
            "type" : "VEC3"
        },
        {
            "bufferView" : 9,
            "componentType" : 5126,
            "count" : 110,
            "type" : "VEC3"
        },
        {
            "bufferView" : 10,
            "componentType" : 5126,
            "count" : 110,
            "type" : "VEC2"
        },
        {
            "bufferView" : 11,
            "componentType" : 5123,
            "count" : 168,
            "type" : "SCALAR"
        },
        {
            "bufferView" : 12,
            "componentType" : 5126,
            "count" : 10394,
            "max" : [
                1.469745397567749,
                3.744466781616211,
                5.841108798980713
            ],
            "min" : [
                -1.4833924770355225,
                0.19037675857543945,
                -4.40310525894165
            ],
            "type" : "VEC3"
        },
        {
            "bufferView" : 13,
            "componentType" : 5126,
            "count" : 10394,
            "type" : "VEC3"
        },
        {
            "bufferView" : 14,
            "componentType" : 5126,
            "count" : 10394,
            "type" : "VEC2"
        },
        {
            "bufferView" : 15,
            "componentType" : 5123,
            "count" : 16830,
            "type" : "SCALAR"
        },
        {
            "bufferView" : 16,
            "componentType" : 5126,
            "count" : 1569,
            "max" : [
                1.0409886837005615,
                3.215359687805176,
                5.321403980255127
            ],
            "min" : [
                -1.066731333732605,
                1.2894792556762695,
                -1.4384477138519287
            ],
            "type" : "VEC3"
        },
        {
            "bufferView" : 17,
            "componentType" : 5126,
            "count" : 1569,
            "type" : "VEC3"
        },
        {
            "bufferView" : 18,
            "componentType" : 5126,
            "count" : 1569,
            "type" : "VEC2"
        },
        {
            "bufferView" : 19,
            "componentType" : 5123,
            "count" : 2685,
            "type" : "SCALAR"
        },
        {
            "bufferView" : 20,
            "componentType" : 5126,
            "count" : 128,
            "max" : [
                0.7534807324409485,
                3.231635570526123,
                -3.0925333499908447
            ],
            "min" : [
                -0.7674382328987122,
                3.043525218963623,
                -3.2884762287139893
            ],
            "type" : "VEC3"
        },
        {
            "bufferView" : 21,
            "componentType" : 5126,
            "count" : 128,
            "type" : "VEC3"
        },
        {
            "bufferView" : 22,
            "componentType" : 5126,
            "count" : 128,
            "type" : "VEC2"
        },
        {
            "bufferView" : 23,
            "componentType" : 5123,
            "count" : 192,
            "type" : "SCALAR"
        },
        {
            "bufferView" : 24,
            "componentType" : 5126,
            "count" : 8,
            "max" : [
                1.3404455184936523,
                1.001908779144287,
                -4.154151916503906
            ],
            "min" : [
                -1.34866201877594,
                0.7254631519317627,
                -4.269164562225342
            ],
            "type" : "VEC3"
        },
        {
            "bufferView" : 25,
            "componentType" : 5126,
            "count" : 8,
            "type" : "VEC3"
        },
        {
            "bufferView" : 26,
            "componentType" : 5126,
            "count" : 8,
            "type" : "VEC2"
        },
        {
            "bufferView" : 27,
            "componentType" : 5123,
            "count" : 12,
            "type" : "SCALAR"
        },
        {
            "bufferView" : 28,
            "componentType" : 5126,
            "count" : 8,
            "max" : [
                1.3104395866394043,
                0.7372035980224609,
                5.805038928985596
            ],
            "min" : [
                -1.3473399877548218,
                0.5129897594451904,
                5.805038928985596
            ],
            "type" : "VEC3"
        },
        {
            "bufferView" : 29,
            "componentType" : 5126,
            "count" : 8,
            "type" : "VEC3"
        },
        {
            "bufferView" : 30,
            "componentType" : 5126,
            "count" : 8,
            "type" : "VEC2"
        },
        {
            "bufferView" : 31,
            "componentType" : 5123,
            "count" : 12,
            "type" : "SCALAR"
        }
    ],
    "bufferViews" : [
        {
            "buffer" : 0,
            "byteLength" : 41292,
            "byteOffset" : 0
        },
        {
            "buffer" : 0,
            "byteLength" : 41292,
            "byteOffset" : 41292
        },
        {
            "buffer" : 0,
            "byteLength" : 27528,
            "byteOffset" : 82584
        },
        {
            "buffer" : 0,
            "byteLength" : 12216,
            "byteOffset" : 110112
        },
        {
            "buffer" : 0,
            "byteLength" : 118260,
            "byteOffset" : 122328
        },
        {
            "buffer" : 0,
            "byteLength" : 118260,
            "byteOffset" : 240588
        },
        {
            "buffer" : 0,
            "byteLength" : 78840,
            "byteOffset" : 358848
        },
        {
            "buffer" : 0,
            "byteLength" : 33528,
            "byteOffset" : 437688
        },
        {
            "buffer" : 0,
            "byteLength" : 1320,
            "byteOffset" : 471216
        },
        {
            "buffer" : 0,
            "byteLength" : 1320,
            "byteOffset" : 472536
        },
        {
            "buffer" : 0,
            "byteLength" : 880,
            "byteOffset" : 473856
        },
        {
            "buffer" : 0,
            "byteLength" : 336,
            "byteOffset" : 474736
        },
        {
            "buffer" : 0,
            "byteLength" : 124728,
            "byteOffset" : 475072
        },
        {
            "buffer" : 0,
            "byteLength" : 124728,
            "byteOffset" : 599800
        },
        {
            "buffer" : 0,
            "byteLength" : 83152,
            "byteOffset" : 724528
        },
        {
            "buffer" : 0,
            "byteLength" : 33660,
            "byteOffset" : 807680
        },
        {
            "buffer" : 0,
            "byteLength" : 18828,
            "byteOffset" : 841340
        },
        {
            "buffer" : 0,
            "byteLength" : 18828,
            "byteOffset" : 860168
        },
        {
            "buffer" : 0,
            "byteLength" : 12552,
            "byteOffset" : 878996
        },
        {
            "buffer" : 0,
            "byteLength" : 5370,
            "byteOffset" : 891548
        },
        {
            "buffer" : 0,
            "byteLength" : 1536,
            "byteOffset" : 896920
        },
        {
            "buffer" : 0,
            "byteLength" : 1536,
            "byteOffset" : 898456
        },
        {
            "buffer" : 0,
            "byteLength" : 1024,
            "byteOffset" : 899992
        },
        {
            "buffer" : 0,
            "byteLength" : 384,
            "byteOffset" : 901016
        },
        {
            "buffer" : 0,
            "byteLength" : 96,
            "byteOffset" : 901400
        },
        {
            "buffer" : 0,
            "byteLength" : 96,
            "byteOffset" : 901496
        },
        {
            "buffer" : 0,
            "byteLength" : 64,
            "byteOffset" : 901592
        },
        {
            "buffer" : 0,
            "byteLength" : 24,
            "byteOffset" : 901656
        },
        {
            "buffer" : 0,
            "byteLength" : 96,
            "byteOffset" : 901680
        },
        {
            "buffer" : 0,
            "byteLength" : 96,
            "byteOffset" : 901776
        },
        {
            "buffer" : 0,
            "byteLength" : 64,
            "byteOffset" : 901872
        },
        {
            "buffer" : 0,
            "byteLength" : 24,
            "byteOffset" : 901936
        }
    ],
    "buffers" : [
        {
            "byteLength" : 901960,
            "uri" : "camion.bin"
        }
    ]
}
