{
    "asset" : {
        "generator" : "Khronos glTF Blender I/O v1.0.5",
        "version" : "2.0"
    },
    "scene" : 0,
    "scenes" : [
        {
            "name" : "Scene",
            "nodes" : [
                0
            ]
        }
    ],
    "nodes" : [
        {
            "mesh" : 0,
            "name" : "schoolbus",
            "rotation" : [
                0,
                -1,
                0,
                7.549790126404332e-08
            ],
            "scale" : [
                0.05641435831785202,
                0.05641435831785202,
                0.05641435831785202
            ]
        }
    ],
    "materials" : [
        {
            "doubleSided" : true,
            "name" : "carrosserie",
            "pbrMetallicRoughness" : {
                "baseColorTexture" : {
                    "index" : 0,
                    "texCoord" : 0
                },
                "metallicFactor" : 0.35087719559669495,
                "roughnessFactor" : 0.4000000059604645
            }
        },
        {
            "doubleSided" : true,
            "emissiveFactor" : [
                1,
                1,
                1
            ],
            "emissiveTexture" : {
                "index" : 1,
                "texCoord" : 0
            },
            "name" : "phares avants",
            "pbrMetallicRoughness" : {}
        },
        {
            "doubleSided" : true,
            "name" : "pneus",
            "pbrMetallicRoughness" : {
                "baseColorTexture" : {
                    "index" : 2,
                    "texCoord" : 0
                },
                "metallicFactor" : 0,
                "roughnessFactor" : 0.7982456088066101
            }
        },
        {
            "doubleSided" : true,
            "name" : "jantes",
            "pbrMetallicRoughness" : {
                "baseColorTexture" : {
                    "index" : 3,
                    "texCoord" : 0
                },
                "metallicFactor" : 0,
                "roughnessFactor" : 0.5087718963623047
            }
        },
        {
            "doubleSided" : true,
            "name" : "vitres",
            "pbrMetallicRoughness" : {
                "baseColorTexture" : {
                    "index" : 4,
                    "texCoord" : 0
                },
                "metallicFactor" : 0,
                "roughnessFactor" : 0.5
            }
        },
        {
            "doubleSided" : true,
            "name" : "Material",
            "pbrMetallicRoughness" : {
                "baseColorTexture" : {
                    "index" : 5,
                    "texCoord" : 0
                },
                "metallicFactor" : 0,
                "roughnessFactor" : 0.34210526943206787
            }
        },
        {
            "doubleSided" : true,
            "emissiveFactor" : [
                1,
                1,
                1
            ],
            "emissiveTexture" : {
                "index" : 6,
                "texCoord" : 0
            },
            "name" : "phares arri\u00e8res",
            "pbrMetallicRoughness" : {}
        }
    ],
    "meshes" : [
        {
            "name" : "Cube",
            "primitives" : [
                {
                    "attributes" : {
                        "POSITION" : 0,
                        "NORMAL" : 1,
                        "TEXCOORD_0" : 2
                    },
                    "indices" : 3,
                    "material" : 0
                },
                {
                    "attributes" : {
                        "POSITION" : 4,
                        "NORMAL" : 5,
                        "TEXCOORD_0" : 6
                    },
                    "indices" : 7,
                    "material" : 1
                },
                {
                    "attributes" : {
                        "POSITION" : 8,
                        "NORMAL" : 9,
                        "TEXCOORD_0" : 10
                    },
                    "indices" : 11,
                    "material" : 2
                },
                {
                    "attributes" : {
                        "POSITION" : 12,
                        "NORMAL" : 13,
                        "TEXCOORD_0" : 14
                    },
                    "indices" : 15,
                    "material" : 3
                },
                {
                    "attributes" : {
                        "POSITION" : 16,
                        "NORMAL" : 17,
                        "TEXCOORD_0" : 18
                    },
                    "indices" : 19,
                    "material" : 4
                },
                {
                    "attributes" : {
                        "POSITION" : 20,
                        "NORMAL" : 21,
                        "TEXCOORD_0" : 22
                    },
                    "indices" : 23,
                    "material" : 5
                },
                {
                    "attributes" : {
                        "POSITION" : 24,
                        "NORMAL" : 25,
                        "TEXCOORD_0" : 26
                    },
                    "indices" : 27,
                    "material" : 6
                }
            ]
        }
    ],
    "textures" : [
        {
            "source" : 0
        },
        {
            "source" : 1
        },
        {
            "source" : 2
        },
        {
            "source" : 3
        },
        {
            "source" : 4
        },
        {
            "source" : 2
        },
        {
            "source" : 5
        }
    ],
    "images" : [
        {
            "mimeType" : "image/png",
            "name" : "orange",
            "uri" : "orange.png"
        },
        {
            "mimeType" : "image/png",
            "name" : "blanc",
            "uri" : "blanc.png"
        },
        {
            "mimeType" : "image/png",
            "name" : "noir",
            "uri" : "noir.png"
        },
        {
            "mimeType" : "image/png",
            "name" : "gris",
            "uri" : "gris.png"
        },
        {
            "mimeType" : "image/png",
            "name" : "ice",
            "uri" : "ice.png"
        },
        {
            "mimeType" : "image/png",
            "name" : "cayenne",
            "uri" : "cayenne.png"
        }
    ],
    "accessors" : [
        {
            "bufferView" : 0,
            "componentType" : 5126,
            "count" : 3261,
            "max" : [
                0.8014614582061768,
                1.588329792022705,
                2.5081937313079834
            ],
            "min" : [
                -0.8014614582061768,
                0.18594491481781006,
                -1.8320634365081787
            ],
            "type" : "VEC3"
        },
        {
            "bufferView" : 1,
            "componentType" : 5126,
            "count" : 3261,
            "type" : "VEC3"
        },
        {
            "bufferView" : 2,
            "componentType" : 5126,
            "count" : 3261,
            "type" : "VEC2"
        },
        {
            "bufferView" : 3,
            "componentType" : 5123,
            "count" : 5508,
            "type" : "SCALAR"
        },
        {
            "bufferView" : 4,
            "componentType" : 5126,
            "count" : 14,
            "max" : [
                0.7563732862472534,
                0.5791922807693481,
                -1.686693787574768
            ],
            "min" : [
                -0.7563732862472534,
                0.4767133295536041,
                -1.7341171503067017
            ],
            "type" : "VEC3"
        },
        {
            "bufferView" : 5,
            "componentType" : 5126,
            "count" : 14,
            "type" : "VEC3"
        },
        {
            "bufferView" : 6,
            "componentType" : 5126,
            "count" : 14,
            "type" : "VEC2"
        },
        {
            "bufferView" : 7,
            "componentType" : 5123,
            "count" : 30,
            "type" : "SCALAR"
        },
        {
            "bufferView" : 8,
            "componentType" : 5126,
            "count" : 1328,
            "max" : [
                0.8497757911682129,
                0.733450174331665,
                1.5863885879516602
            ],
            "min" : [
                -0.8497757911682129,
                0.08796584606170654,
                -1.8320634365081787
            ],
            "type" : "VEC3"
        },
        {
            "bufferView" : 9,
            "componentType" : 5126,
            "count" : 1328,
            "type" : "VEC3"
        },
        {
            "bufferView" : 10,
            "componentType" : 5126,
            "count" : 1328,
            "type" : "VEC2"
        },
        {
            "bufferView" : 11,
            "componentType" : 5123,
            "count" : 1992,
            "type" : "SCALAR"
        },
        {
            "bufferView" : 12,
            "componentType" : 5126,
            "count" : 1628,
            "max" : [
                0.830926239490509,
                0.733450174331665,
                1.4884095191955566
            ],
            "min" : [
                -0.830926239490509,
                0.18594491481781006,
                -1.7790086269378662
            ],
            "type" : "VEC3"
        },
        {
            "bufferView" : 13,
            "componentType" : 5126,
            "count" : 1628,
            "type" : "VEC3"
        },
        {
            "bufferView" : 14,
            "componentType" : 5126,
            "count" : 1628,
            "type" : "VEC2"
        },
        {
            "bufferView" : 15,
            "componentType" : 5123,
            "count" : 2520,
            "type" : "SCALAR"
        },
        {
            "bufferView" : 16,
            "componentType" : 5126,
            "count" : 224,
            "max" : [
                0.9159531593322754,
                1.4759461879730225,
                2.4435696601867676
            ],
            "min" : [
                -0.9159531593322754,
                0.36565446853637695,
                -1.079998254776001
            ],
            "type" : "VEC3"
        },
        {
            "bufferView" : 17,
            "componentType" : 5126,
            "count" : 224,
            "type" : "VEC3"
        },
        {
            "bufferView" : 18,
            "componentType" : 5126,
            "count" : 224,
            "type" : "VEC2"
        },
        {
            "bufferView" : 19,
            "componentType" : 5123,
            "count" : 336,
            "type" : "SCALAR"
        },
        {
            "bufferView" : 20,
            "componentType" : 5126,
            "count" : 2116,
            "max" : [
                0.9244852066040039,
                1.4816713333129883,
                2.5066077709198
            ],
            "min" : [
                -0.9244852066040039,
                0.282734751701355,
                -0.9519930481910706
            ],
            "type" : "VEC3"
        },
        {
            "bufferView" : 21,
            "componentType" : 5126,
            "count" : 2116,
            "type" : "VEC3"
        },
        {
            "bufferView" : 22,
            "componentType" : 5126,
            "count" : 2116,
            "type" : "VEC2"
        },
        {
            "bufferView" : 23,
            "componentType" : 5123,
            "count" : 3288,
            "type" : "SCALAR"
        },
        {
            "bufferView" : 24,
            "componentType" : 5126,
            "count" : 16,
            "max" : [
                0.6826733350753784,
                0.9028067588806152,
                2.493358850479126
            ],
            "min" : [
                -0.6826733350753784,
                0.7928299903869629,
                2.492993116378784
            ],
            "type" : "VEC3"
        },
        {
            "bufferView" : 25,
            "componentType" : 5126,
            "count" : 16,
            "type" : "VEC3"
        },
        {
            "bufferView" : 26,
            "componentType" : 5126,
            "count" : 16,
            "type" : "VEC2"
        },
        {
            "bufferView" : 27,
            "componentType" : 5123,
            "count" : 24,
            "type" : "SCALAR"
        }
    ],
    "bufferViews" : [
        {
            "buffer" : 0,
            "byteLength" : 39132,
            "byteOffset" : 0
        },
        {
            "buffer" : 0,
            "byteLength" : 39132,
            "byteOffset" : 39132
        },
        {
            "buffer" : 0,
            "byteLength" : 26088,
            "byteOffset" : 78264
        },
        {
            "buffer" : 0,
            "byteLength" : 11016,
            "byteOffset" : 104352
        },
        {
            "buffer" : 0,
            "byteLength" : 168,
            "byteOffset" : 115368
        },
        {
            "buffer" : 0,
            "byteLength" : 168,
            "byteOffset" : 115536
        },
        {
            "buffer" : 0,
            "byteLength" : 112,
            "byteOffset" : 115704
        },
        {
            "buffer" : 0,
            "byteLength" : 60,
            "byteOffset" : 115816
        },
        {
            "buffer" : 0,
            "byteLength" : 15936,
            "byteOffset" : 115876
        },
        {
            "buffer" : 0,
            "byteLength" : 15936,
            "byteOffset" : 131812
        },
        {
            "buffer" : 0,
            "byteLength" : 10624,
            "byteOffset" : 147748
        },
        {
            "buffer" : 0,
            "byteLength" : 3984,
            "byteOffset" : 158372
        },
        {
            "buffer" : 0,
            "byteLength" : 19536,
            "byteOffset" : 162356
        },
        {
            "buffer" : 0,
            "byteLength" : 19536,
            "byteOffset" : 181892
        },
        {
            "buffer" : 0,
            "byteLength" : 13024,
            "byteOffset" : 201428
        },
        {
            "buffer" : 0,
            "byteLength" : 5040,
            "byteOffset" : 214452
        },
        {
            "buffer" : 0,
            "byteLength" : 2688,
            "byteOffset" : 219492
        },
        {
            "buffer" : 0,
            "byteLength" : 2688,
            "byteOffset" : 222180
        },
        {
            "buffer" : 0,
            "byteLength" : 1792,
            "byteOffset" : 224868
        },
        {
            "buffer" : 0,
            "byteLength" : 672,
            "byteOffset" : 226660
        },
        {
            "buffer" : 0,
            "byteLength" : 25392,
            "byteOffset" : 227332
        },
        {
            "buffer" : 0,
            "byteLength" : 25392,
            "byteOffset" : 252724
        },
        {
            "buffer" : 0,
            "byteLength" : 16928,
            "byteOffset" : 278116
        },
        {
            "buffer" : 0,
            "byteLength" : 6576,
            "byteOffset" : 295044
        },
        {
            "buffer" : 0,
            "byteLength" : 192,
            "byteOffset" : 301620
        },
        {
            "buffer" : 0,
            "byteLength" : 192,
            "byteOffset" : 301812
        },
        {
            "buffer" : 0,
            "byteLength" : 128,
            "byteOffset" : 302004
        },
        {
            "buffer" : 0,
            "byteLength" : 48,
            "byteOffset" : 302132
        }
    ],
    "buffers" : [
        {
            "byteLength" : 302180,
            "uri" : "schoolbus.bin"
        }
    ]
}
