{"buffers":[{"uri":"M6_3_2.bin","byteLength":75632}],"asset":{"version":"2.0","generator":"gltfpack 0.14"},"extensionsUsed":["KHR_mesh_quantization","KHR_texture_transform"],"extensionsRequired":["KHR_mesh_quantization"],"bufferViews":[{"buffer":0,"byteOffset":0,"byteLength":31240,"byteStride":8,"target":34962},{"buffer":0,"byteOffset":31240,"byteLength":15620,"byteStride":4,"target":34962},{"buffer":0,"byteOffset":46860,"byteLength":15620,"byteStride":4,"target":34962},{"buffer":0,"byteOffset":62480,"byteLength":13152,"target":34963}],"accessors":[{"bufferView":0,"byteOffset":0,"componentType":5123,"count":798,"type":"VEC3","min":[459,0,277],"max":[10833,16383,8259]},{"bufferView":1,"byteOffset":0,"componentType":5120,"count":798,"type":"VEC3","normalized":true},{"bufferView":2,"byteOffset":0,"componentType":5123,"count":798,"type":"VEC2"},{"bufferView":3,"byteOffset":0,"componentType":5123,"count":1290,"type":"SCALAR"},{"bufferView":0,"byteOffset":6384,"componentType":5123,"count":2794,"type":"VEC3","min":[0,451,0],"max":[11304,15272,8590]},{"bufferView":1,"byteOffset":3192,"componentType":5120,"count":2794,"type":"VEC3","normalized":true},{"bufferView":2,"byteOffset":3192,"componentType":5123,"count":2794,"type":"VEC2"},{"bufferView":3,"byteOffset":2580,"componentType":5123,"count":4659,"type":"SCALAR"},{"bufferView":0,"byteOffset":28736,"componentType":5123,"count":96,"type":"VEC3","min":[207,2302,103],"max":[11110,12276,8418]},{"bufferView":1,"byteOffset":14368,"componentType":5120,"count":96,"type":"VEC3","normalized":true},{"bufferView":2,"byteOffset":14368,"componentType":5123,"count":96,"type":"VEC2"},{"bufferView":3,"byteOffset":11898,"componentType":5123,"count":144,"type":"SCALAR"},{"bufferView":0,"byteOffset":29504,"componentType":5123,"count":217,"type":"VEC3","min":[260,547,91],"max":[11044,14683,8373]},{"bufferView":1,"byteOffset":14752,"componentType":5120,"count":217,"type":"VEC3","normalized":true},{"bufferView":2,"byteOffset":14752,"componentType":5123,"count":217,"type":"VEC2"},{"bufferView":3,"byteOffset":12186,"componentType":5123,"count":483,"type":"SCALAR"}],"images":[{"uri":"gris.png"},{"uri":"brun.png"},{"uri":"sky.png"},{"uri":"caseM1.png"}],"textures":[{"source":0},{"source":1},{"source":2},{"source":3}],"materials":[{"name":"gris.001","pbrMetallicRoughness":{"baseColorTexture":{"index":0,"texCoord":0,"extensions":{"KHR_texture_transform":{"offset":[0.125,0],"scale":[0.000183150187,0.000244200259]}}},"metallicFactor":0,"roughnessFactor":0.5},"doubleSided":true},{"name":"brun.002","pbrMetallicRoughness":{"baseColorTexture":{"index":1,"texCoord":0,"extensions":{"KHR_texture_transform":{"offset":[0.125,0],"scale":[0.000183150187,0.000244200259]}}},"metallicFactor":0},"doubleSided":true},{"name":"sky","pbrMetallicRoughness":{"baseColorTexture":{"index":2,"texCoord":0,"extensions":{"KHR_texture_transform":{"offset":[0.375,0.25],"scale":[6.10500647e-05,6.10500647e-05]}}},"metallicFactor":0,"roughnessFactor":0.5},"doubleSided":true},{"name":"caseM1","pbrMetallicRoughness":{"baseColorTexture":{"index":3,"texCoord":0,"extensions":{"KHR_texture_transform":{"offset":[0.625,0],"scale":[0,0.000244200259]}}},"metallicFactor":0,"roughnessFactor":0.5},"doubleSided":true}],"meshes":[{"primitives":[{"attributes":{"POSITION":0,"NORMAL":1,"TEXCOORD_0":2},"mode":4,"indices":3,"material":0},{"attributes":{"POSITION":4,"NORMAL":5,"TEXCOORD_0":6},"mode":4,"indices":7,"material":1},{"attributes":{"POSITION":8,"NORMAL":9,"TEXCOORD_0":10},"mode":4,"indices":11,"material":2},{"attributes":{"POSITION":12,"NORMAL":13,"TEXCOORD_0":14},"mode":4,"indices":15,"material":3}]}],"nodes":[{"mesh":0,"translation":[1.34713972,-0.000395594572,-1.86669803],"scale":[1.44628921e-05,1.44628921e-05,1.44628921e-05]}],"scenes":[{"nodes":[0]}],"scene":0}