{
    "asset" : {
        "generator" : "Khronos glTF Blender I/O v1.1.45",
        "version" : "2.0"
    },
    "scene" : 0,
    "scenes" : [
        {
            "name" : "Scene",
            "nodes" : [
                0
            ]
        }
    ],
    "nodes" : [
        {
            "mesh" : 0,
            "name" : "cone.009",
            "scale" : [
                0.07489923387765884,
                0.07489923387765884,
                0.07489923387765884
            ],
            "translation" : [
                -1.3498362302780151,
                -0.01316178496927023,
                -1.8743023872375488
            ]
        }
    ],
    "materials" : [
        {
            "doubleSided" : true,
            "emissiveFactor" : [
                0,
                0,
                0
            ],
            "name" : "Material.011",
            "pbrMetallicRoughness" : {
                "baseColorTexture" : {
                    "index" : 0,
                    "texCoord" : 0
                },
                "metallicFactor" : 0,
                "roughnessFactor" : 1
            }
        }
    ],
    "meshes" : [
        {
            "name" : "Cube.035",
            "primitives" : [
                {
                    "attributes" : {
                        "POSITION" : 0,
                        "NORMAL" : 1,
                        "TEXCOORD_0" : 2
                    },
                    "indices" : 3,
                    "material" : 0
                }
            ]
        }
    ],
    "textures" : [
        {
            "source" : 0
        }
    ],
    "images" : [
        {
            "mimeType" : "image/png",
            "name" : "pions",
            "uri" : "pions.png"
        }
    ],
    "accessors" : [
        {
            "bufferView" : 0,
            "componentType" : 5126,
            "count" : 1264,
            "max" : [
                1.0000001192092896,
                1.7079790830612183,
                1.0000001192092896
            ],
            "min" : [
                -1.0000001192092896,
                -0.04676234722137451,
                -1.0000001192092896
            ],
            "type" : "VEC3"
        },
        {
            "bufferView" : 1,
            "componentType" : 5126,
            "count" : 1264,
            "type" : "VEC3"
        },
        {
            "bufferView" : 2,
            "componentType" : 5126,
            "count" : 1264,
            "type" : "VEC2"
        },
        {
            "bufferView" : 3,
            "componentType" : 5123,
            "count" : 2040,
            "type" : "SCALAR"
        }
    ],
    "bufferViews" : [
        {
            "buffer" : 0,
            "byteLength" : 15168,
            "byteOffset" : 0
        },
        {
            "buffer" : 0,
            "byteLength" : 15168,
            "byteOffset" : 15168
        },
        {
            "buffer" : 0,
            "byteLength" : 10112,
            "byteOffset" : 30336
        },
        {
            "buffer" : 0,
            "byteLength" : 4080,
            "byteOffset" : 40448
        }
    ],
    "buffers" : [
        {
            "byteLength" : 44528,
            "uri" : "hyp21.bin"
        }
    ]
}
