{
    "asset" : {
        "generator" : "Khronos glTF Blender I/O v1.1.45",
        "version" : "2.0"
    },
    "scene" : 0,
    "scenes" : [
        {
            "name" : "Scene",
            "nodes" : [
                0
            ]
        }
    ],
    "nodes" : [
        {
            "mesh" : 0,
            "name" : "base_Cube.071",
            "rotation" : [
                0.7071068286895752,
                0,
                0,
                0.7071067094802856
            ],
            "scale" : [
                0.10088206082582474,
                0.10088206082582474,
                0.10088206082582474
            ]
        }
    ],
    "materials" : [
        {
            "doubleSided" : true,
            "emissiveFactor" : [
                0,
                0,
                0
            ],
            "name" : "caseM1",
            "pbrMetallicRoughness" : {
                "baseColorTexture" : {
                    "index" : 0,
                    "texCoord" : 0
                },
                "metallicFactor" : 0,
                "roughnessFactor" : 0.5
            }
        },
        {
            "doubleSided" : true,
            "emissiveFactor" : [
                0,
                0,
                0
            ],
            "name" : "brun.002",
            "pbrMetallicRoughness" : {
                "baseColorTexture" : {
                    "index" : 1,
                    "texCoord" : 0
                },
                "metallicFactor" : 0,
                "roughnessFactor" : 1
            }
        },
        {
            "doubleSided" : true,
            "emissiveFactor" : [
                0,
                0,
                0
            ],
            "name" : "sky",
            "pbrMetallicRoughness" : {
                "baseColorTexture" : {
                    "index" : 2,
                    "texCoord" : 0
                },
                "metallicFactor" : 0,
                "roughnessFactor" : 0.5
            }
        },
        {
            "doubleSided" : true,
            "emissiveFactor" : [
                0,
                0,
                0
            ],
            "name" : "saumon.001",
            "pbrMetallicRoughness" : {
                "baseColorTexture" : {
                    "index" : 3,
                    "texCoord" : 0
                },
                "metallicFactor" : 0,
                "roughnessFactor" : 0.5
            }
        }
    ],
    "meshes" : [
        {
            "name" : "base_Cube.071",
            "primitives" : [
                {
                    "attributes" : {
                        "POSITION" : 0,
                        "NORMAL" : 1,
                        "TEXCOORD_0" : 2
                    },
                    "indices" : 3,
                    "material" : 0
                },
                {
                    "attributes" : {
                        "POSITION" : 4,
                        "NORMAL" : 5,
                        "TEXCOORD_0" : 6
                    },
                    "indices" : 7,
                    "material" : 1
                },
                {
                    "attributes" : {
                        "POSITION" : 8,
                        "NORMAL" : 9,
                        "TEXCOORD_0" : 10
                    },
                    "indices" : 11,
                    "material" : 2
                },
                {
                    "attributes" : {
                        "POSITION" : 12,
                        "NORMAL" : 13,
                        "TEXCOORD_0" : 14
                    },
                    "indices" : 15,
                    "material" : 3
                }
            ]
        }
    ],
    "textures" : [
        {
            "source" : 0
        },
        {
            "source" : 1
        },
        {
            "source" : 2
        },
        {
            "source" : 3
        }
    ],
    "images" : [
        {
            "mimeType" : "image/png",
            "name" : "caseM1",
            "uri" : "caseM1.png"
        },
        {
            "mimeType" : "image/png",
            "name" : "brun",
            "uri" : "brun.png"
        },
        {
            "mimeType" : "image/png",
            "name" : "sky",
            "uri" : "sky.png"
        },
        {
            "mimeType" : "image/png",
            "name" : "saumon",
            "uri" : "saumon.png"
        }
    ],
    "accessors" : [
        {
            "bufferView" : 0,
            "componentType" : 5126,
            "count" : 796,
            "max" : [
                16.39178466796875,
                -3.396162509918213,
                0.00392167316749692
            ],
            "min" : [
                15.247488975524902,
                -4.88344144821167,
                -2.344816207885742
            ],
            "type" : "VEC3"
        },
        {
            "bufferView" : 1,
            "componentType" : 5126,
            "count" : 796,
            "type" : "VEC3"
        },
        {
            "bufferView" : 2,
            "componentType" : 5126,
            "count" : 796,
            "type" : "VEC2"
        },
        {
            "bufferView" : 3,
            "componentType" : 5123,
            "count" : 1290,
            "type" : "SCALAR"
        },
        {
            "bufferView" : 4,
            "componentType" : 5126,
            "count" : 2798,
            "max" : [
                16.43146514892578,
                -3.3286736011505127,
                -0.06077732518315315
            ],
            "min" : [
                15.199934959411621,
                -4.949245452880859,
                -2.185542345046997
            ],
            "type" : "VEC3"
        },
        {
            "bufferView" : 5,
            "componentType" : 5126,
            "count" : 2798,
            "type" : "VEC3"
        },
        {
            "bufferView" : 6,
            "componentType" : 5126,
            "count" : 2798,
            "type" : "VEC2"
        },
        {
            "bufferView" : 7,
            "componentType" : 5123,
            "count" : 4659,
            "type" : "SCALAR"
        },
        {
            "bufferView" : 8,
            "componentType" : 5126,
            "count" : 96,
            "max" : [
                16.41664695739746,
                -3.3564376831054688,
                -0.3261583149433136
            ],
            "min" : [
                15.224674224853516,
                -4.919589519500732,
                -1.7560023069381714
            ],
            "type" : "VEC3"
        },
        {
            "bufferView" : 9,
            "componentType" : 5126,
            "count" : 96,
            "type" : "VEC3"
        },
        {
            "bufferView" : 10,
            "componentType" : 5126,
            "count" : 96,
            "type" : "VEC2"
        },
        {
            "bufferView" : 11,
            "componentType" : 5123,
            "count" : 144,
            "type" : "SCALAR"
        },
        {
            "bufferView" : 12,
            "componentType" : 5126,
            "count" : 250,
            "max" : [
                16.41842269897461,
                -3.3658666610717773,
                -0.07453533262014389
            ],
            "min" : [
                15.231042861938477,
                -4.9119977951049805,
                -2.1010372638702393
            ],
            "type" : "VEC3"
        },
        {
            "bufferView" : 13,
            "componentType" : 5126,
            "count" : 250,
            "type" : "VEC3"
        },
        {
            "bufferView" : 14,
            "componentType" : 5126,
            "count" : 250,
            "type" : "VEC2"
        },
        {
            "bufferView" : 15,
            "componentType" : 5123,
            "count" : 582,
            "type" : "SCALAR"
        }
    ],
    "bufferViews" : [
        {
            "buffer" : 0,
            "byteLength" : 9552,
            "byteOffset" : 0
        },
        {
            "buffer" : 0,
            "byteLength" : 9552,
            "byteOffset" : 9552
        },
        {
            "buffer" : 0,
            "byteLength" : 6368,
            "byteOffset" : 19104
        },
        {
            "buffer" : 0,
            "byteLength" : 2580,
            "byteOffset" : 25472
        },
        {
            "buffer" : 0,
            "byteLength" : 33576,
            "byteOffset" : 28052
        },
        {
            "buffer" : 0,
            "byteLength" : 33576,
            "byteOffset" : 61628
        },
        {
            "buffer" : 0,
            "byteLength" : 22384,
            "byteOffset" : 95204
        },
        {
            "buffer" : 0,
            "byteLength" : 9318,
            "byteOffset" : 117588
        },
        {
            "buffer" : 0,
            "byteLength" : 1152,
            "byteOffset" : 126908
        },
        {
            "buffer" : 0,
            "byteLength" : 1152,
            "byteOffset" : 128060
        },
        {
            "buffer" : 0,
            "byteLength" : 768,
            "byteOffset" : 129212
        },
        {
            "buffer" : 0,
            "byteLength" : 288,
            "byteOffset" : 129980
        },
        {
            "buffer" : 0,
            "byteLength" : 3000,
            "byteOffset" : 130268
        },
        {
            "buffer" : 0,
            "byteLength" : 3000,
            "byteOffset" : 133268
        },
        {
            "buffer" : 0,
            "byteLength" : 2000,
            "byteOffset" : 136268
        },
        {
            "buffer" : 0,
            "byteLength" : 1164,
            "byteOffset" : 138268
        }
    ],
    "buffers" : [
        {
            "byteLength" : 139432,
            "uri" : "M7_3_4.bin"
        }
    ]
}
