{
    "asset" : {
        "generator" : "Khronos glTF Blender I/O v1.1.45",
        "version" : "2.0"
    },
    "scene" : 0,
    "scenes" : [
        {
            "name" : "Scene",
            "nodes" : [
                0
            ]
        }
    ],
    "nodes" : [
        {
            "mesh" : 0,
            "name" : "base",
            "scale" : [
                0.09854753315448761,
                0.09854753315448761,
                0.09854753315448761
            ]
        }
    ],
    "materials" : [
        {
            "doubleSided" : true,
            "emissiveFactor" : [
                0,
                0,
                0
            ],
            "name" : "gris",
            "pbrMetallicRoughness" : {
                "baseColorTexture" : {
                    "index" : 0,
                    "texCoord" : 0
                },
                "metallicFactor" : 0,
                "roughnessFactor" : 0.5
            }
        },
        {
            "doubleSided" : true,
            "emissiveFactor" : [
                0,
                0,
                0
            ],
            "name" : "brun",
            "pbrMetallicRoughness" : {
                "baseColorTexture" : {
                    "index" : 1,
                    "texCoord" : 0
                },
                "metallicFactor" : 0,
                "roughnessFactor" : 1
            }
        },
        {
            "doubleSided" : true,
            "emissiveFactor" : [
                0,
                0,
                0
            ],
            "name" : "sky",
            "pbrMetallicRoughness" : {
                "baseColorTexture" : {
                    "index" : 2,
                    "texCoord" : 0
                },
                "metallicFactor" : 0,
                "roughnessFactor" : 0.5
            }
        },
        {
            "doubleSided" : true,
            "emissiveFactor" : [
                0,
                0,
                0
            ],
            "name" : "saumon",
            "pbrMetallicRoughness" : {
                "baseColorTexture" : {
                    "index" : 3,
                    "texCoord" : 0
                },
                "metallicFactor" : 0,
                "roughnessFactor" : 0.5
            }
        }
    ],
    "meshes" : [
        {
            "name" : "Cube.102",
            "primitives" : [
                {
                    "attributes" : {
                        "POSITION" : 0,
                        "NORMAL" : 1,
                        "TEXCOORD_0" : 2
                    },
                    "indices" : 3,
                    "material" : 0
                },
                {
                    "attributes" : {
                        "POSITION" : 4,
                        "NORMAL" : 5,
                        "TEXCOORD_0" : 6
                    },
                    "indices" : 7,
                    "material" : 1
                },
                {
                    "attributes" : {
                        "POSITION" : 8,
                        "NORMAL" : 9,
                        "TEXCOORD_0" : 10
                    },
                    "indices" : 11,
                    "material" : 2
                },
                {
                    "attributes" : {
                        "POSITION" : 12,
                        "NORMAL" : 13,
                        "TEXCOORD_0" : 14
                    },
                    "indices" : 15,
                    "material" : 3
                }
            ]
        }
    ],
    "textures" : [
        {
            "source" : 0
        },
        {
            "source" : 1
        },
        {
            "source" : 2
        },
        {
            "source" : 3
        }
    ],
    "images" : [
        {
            "mimeType" : "image/png",
            "name" : "gris",
            "uri" : "gris.png"
        },
        {
            "mimeType" : "image/png",
            "name" : "brun",
            "uri" : "brun.png"
        },
        {
            "mimeType" : "image/png",
            "name" : "sky",
            "uri" : "sky.png"
        },
        {
            "mimeType" : "image/png",
            "name" : "saumon",
            "uri" : "saumon.png"
        }
    ],
    "accessors" : [
        {
            "bufferView" : 0,
            "componentType" : 5126,
            "count" : 814,
            "max" : [
                0.6991925239562988,
                2.3448171615600586,
                0.7374524474143982
            ],
            "min" : [
                -0.4451029896736145,
                -0.0039206743240356445,
                -0.7498269081115723
            ],
            "type" : "VEC3"
        },
        {
            "bufferView" : 1,
            "componentType" : 5126,
            "count" : 814,
            "type" : "VEC3"
        },
        {
            "bufferView" : 2,
            "componentType" : 5126,
            "count" : 814,
            "type" : "VEC2"
        },
        {
            "bufferView" : 3,
            "componentType" : 5123,
            "count" : 1290,
            "type" : "SCALAR"
        },
        {
            "bufferView" : 4,
            "componentType" : 5126,
            "count" : 3008,
            "max" : [
                0.738873302936554,
                2.185542583465576,
                0.8049407005310059
            ],
            "min" : [
                -0.4926573932170868,
                0.060777902603149414,
                -0.8156313896179199
            ],
            "type" : "VEC3"
        },
        {
            "bufferView" : 5,
            "componentType" : 5126,
            "count" : 3008,
            "type" : "VEC3"
        },
        {
            "bufferView" : 6,
            "componentType" : 5126,
            "count" : 3008,
            "type" : "VEC2"
        },
        {
            "bufferView" : 7,
            "componentType" : 5123,
            "count" : 4659,
            "type" : "SCALAR"
        },
        {
            "bufferView" : 8,
            "componentType" : 5126,
            "count" : 96,
            "max" : [
                0.7240550518035889,
                1.756003499031067,
                0.7771769762039185
            ],
            "min" : [
                -0.46791669726371765,
                0.3261592388153076,
                -0.7859750390052795
            ],
            "type" : "VEC3"
        },
        {
            "bufferView" : 9,
            "componentType" : 5126,
            "count" : 96,
            "type" : "VEC3"
        },
        {
            "bufferView" : 10,
            "componentType" : 5126,
            "count" : 96,
            "type" : "VEC2"
        },
        {
            "bufferView" : 11,
            "componentType" : 5123,
            "count" : 144,
            "type" : "SCALAR"
        },
        {
            "bufferView" : 12,
            "componentType" : 5126,
            "count" : 321,
            "max" : [
                0.7258322834968567,
                2.1010375022888184,
                0.7677475214004517
            ],
            "min" : [
                -0.461549311876297,
                0.07453632354736328,
                -0.7783832550048828
            ],
            "type" : "VEC3"
        },
        {
            "bufferView" : 13,
            "componentType" : 5126,
            "count" : 321,
            "type" : "VEC3"
        },
        {
            "bufferView" : 14,
            "componentType" : 5126,
            "count" : 321,
            "type" : "VEC2"
        },
        {
            "bufferView" : 15,
            "componentType" : 5123,
            "count" : 582,
            "type" : "SCALAR"
        }
    ],
    "bufferViews" : [
        {
            "buffer" : 0,
            "byteLength" : 9768,
            "byteOffset" : 0
        },
        {
            "buffer" : 0,
            "byteLength" : 9768,
            "byteOffset" : 9768
        },
        {
            "buffer" : 0,
            "byteLength" : 6512,
            "byteOffset" : 19536
        },
        {
            "buffer" : 0,
            "byteLength" : 2580,
            "byteOffset" : 26048
        },
        {
            "buffer" : 0,
            "byteLength" : 36096,
            "byteOffset" : 28628
        },
        {
            "buffer" : 0,
            "byteLength" : 36096,
            "byteOffset" : 64724
        },
        {
            "buffer" : 0,
            "byteLength" : 24064,
            "byteOffset" : 100820
        },
        {
            "buffer" : 0,
            "byteLength" : 9318,
            "byteOffset" : 124884
        },
        {
            "buffer" : 0,
            "byteLength" : 1152,
            "byteOffset" : 134204
        },
        {
            "buffer" : 0,
            "byteLength" : 1152,
            "byteOffset" : 135356
        },
        {
            "buffer" : 0,
            "byteLength" : 768,
            "byteOffset" : 136508
        },
        {
            "buffer" : 0,
            "byteLength" : 288,
            "byteOffset" : 137276
        },
        {
            "buffer" : 0,
            "byteLength" : 3852,
            "byteOffset" : 137564
        },
        {
            "buffer" : 0,
            "byteLength" : 3852,
            "byteOffset" : 141416
        },
        {
            "buffer" : 0,
            "byteLength" : 2568,
            "byteOffset" : 145268
        },
        {
            "buffer" : 0,
            "byteLength" : 1164,
            "byteOffset" : 147836
        }
    ],
    "buffers" : [
        {
            "byteLength" : 149000,
            "uri" : "maisonProp.bin"
        }
    ]
}
