{
    "asset" : {
        "generator" : "Khronos glTF Blender I/O v1.1.45",
        "version" : "2.0"
    },
    "scene" : 0,
    "scenes" : [
        {
            "name" : "Scene",
            "nodes" : [
                0
            ]
        }
    ],
    "nodes" : [
        {
            "mesh" : 0,
            "name" : "Cube.053_Cube.018",
            "rotation" : [
                -0.49999985098838806,
                0.5000001788139343,
                0.49999991059303284,
                0.5000001192092896
            ],
            "scale" : [
                0.076413094997406,
                0.0764131024479866,
                0.0764131024479866
            ],
            "translation" : [
                1.6554875373840332,
                0,
                -1.011134147644043
            ]
        }
    ],
    "materials" : [
        {
            "doubleSided" : true,
            "emissiveFactor" : [
                0,
                0,
                0
            ],
            "name" : "Material.027",
            "pbrMetallicRoughness" : {
                "baseColorTexture" : {
                    "index" : 0,
                    "texCoord" : 0
                },
                "metallicFactor" : 0,
                "roughnessFactor" : 0.5
            }
        },
        {
            "doubleSided" : true,
            "emissiveFactor" : [
                0,
                0,
                0
            ],
            "name" : "Material.028",
            "pbrMetallicRoughness" : {
                "baseColorTexture" : {
                    "index" : 1,
                    "texCoord" : 0
                },
                "metallicFactor" : 0,
                "roughnessFactor" : 0.5
            }
        },
        {
            "doubleSided" : true,
            "emissiveFactor" : [
                0,
                0,
                0
            ],
            "name" : "Material.029",
            "pbrMetallicRoughness" : {
                "baseColorTexture" : {
                    "index" : 2,
                    "texCoord" : 0
                },
                "metallicFactor" : 0,
                "roughnessFactor" : 0.4000000059604645
            }
        },
        {
            "doubleSided" : true,
            "emissiveFactor" : [
                0,
                0,
                0
            ],
            "name" : "Material.030",
            "pbrMetallicRoughness" : {
                "baseColorTexture" : {
                    "index" : 3,
                    "texCoord" : 0
                },
                "metallicFactor" : 0,
                "roughnessFactor" : 0.5
            }
        },
        {
            "doubleSided" : true,
            "emissiveFactor" : [
                0,
                0,
                0
            ],
            "name" : "Material.031",
            "pbrMetallicRoughness" : {
                "baseColorTexture" : {
                    "index" : 4,
                    "texCoord" : 0
                },
                "metallicFactor" : 0,
                "roughnessFactor" : 0.5
            }
        },
        {
            "doubleSided" : true,
            "emissiveFactor" : [
                0,
                0,
                0
            ],
            "name" : "Material.032",
            "pbrMetallicRoughness" : {
                "baseColorTexture" : {
                    "index" : 5,
                    "texCoord" : 0
                },
                "metallicFactor" : 0,
                "roughnessFactor" : 0.5
            }
        },
        {
            "doubleSided" : true,
            "emissiveFactor" : [
                0,
                0,
                0
            ],
            "name" : "Material.033",
            "pbrMetallicRoughness" : {
                "baseColorTexture" : {
                    "index" : 6,
                    "texCoord" : 0
                },
                "metallicFactor" : 0,
                "roughnessFactor" : 0.5
            }
        },
        {
            "doubleSided" : true,
            "emissiveFactor" : [
                0,
                0,
                0
            ],
            "name" : "Material.034",
            "pbrMetallicRoughness" : {
                "baseColorTexture" : {
                    "index" : 7,
                    "texCoord" : 0
                },
                "metallicFactor" : 0,
                "roughnessFactor" : 0.5
            }
        }
    ],
    "meshes" : [
        {
            "name" : "Cube.053_Cube.018",
            "primitives" : [
                {
                    "attributes" : {
                        "POSITION" : 0,
                        "NORMAL" : 1,
                        "TEXCOORD_0" : 2
                    },
                    "indices" : 3,
                    "material" : 0
                },
                {
                    "attributes" : {
                        "POSITION" : 4,
                        "NORMAL" : 5,
                        "TEXCOORD_0" : 6
                    },
                    "indices" : 7,
                    "material" : 1
                },
                {
                    "attributes" : {
                        "POSITION" : 8,
                        "NORMAL" : 9,
                        "TEXCOORD_0" : 10
                    },
                    "indices" : 11,
                    "material" : 2
                },
                {
                    "attributes" : {
                        "POSITION" : 12,
                        "NORMAL" : 13,
                        "TEXCOORD_0" : 14
                    },
                    "indices" : 15,
                    "material" : 3
                },
                {
                    "attributes" : {
                        "POSITION" : 16,
                        "NORMAL" : 17,
                        "TEXCOORD_0" : 18
                    },
                    "indices" : 19,
                    "material" : 4
                },
                {
                    "attributes" : {
                        "POSITION" : 20,
                        "NORMAL" : 21,
                        "TEXCOORD_0" : 22
                    },
                    "indices" : 23,
                    "material" : 5
                },
                {
                    "attributes" : {
                        "POSITION" : 24,
                        "NORMAL" : 25,
                        "TEXCOORD_0" : 26
                    },
                    "indices" : 27,
                    "material" : 6
                },
                {
                    "attributes" : {
                        "POSITION" : 28,
                        "NORMAL" : 29,
                        "TEXCOORD_0" : 30
                    },
                    "indices" : 31,
                    "material" : 7
                }
            ]
        }
    ],
    "textures" : [
        {
            "source" : 0
        },
        {
            "source" : 1
        },
        {
            "source" : 2
        },
        {
            "source" : 1
        },
        {
            "source" : 3
        },
        {
            "source" : 4
        },
        {
            "source" : 5
        },
        {
            "source" : 6
        }
    ],
    "images" : [
        {
            "mimeType" : "image/png",
            "name" : "rouge",
            "uri" : "rouge.png"
        },
        {
            "mimeType" : "image/png",
            "name" : "brun",
            "uri" : "brun.png"
        },
        {
            "mimeType" : "image/png",
            "name" : "lime",
            "uri" : "lime.png"
        },
        {
            "mimeType" : "image/png",
            "name" : "saumon",
            "uri" : "saumon.png"
        },
        {
            "mimeType" : "image/png",
            "name" : "banane",
            "uri" : "banane.png"
        },
        {
            "mimeType" : "image/png",
            "name" : "gris",
            "uri" : "gris.png"
        },
        {
            "mimeType" : "image/png",
            "name" : "midnight",
            "uri" : "midnight.png"
        }
    ],
    "accessors" : [
        {
            "bufferView" : 0,
            "componentType" : 5126,
            "count" : 75,
            "max" : [
                1.4424877166748047,
                0.15202856063842773,
                0.5588256120681763
            ],
            "min" : [
                -1.4203433990478516,
                -0.1519017219543457,
                0.19613957405090332
            ],
            "type" : "VEC3"
        },
        {
            "bufferView" : 1,
            "componentType" : 5126,
            "count" : 75,
            "type" : "VEC3"
        },
        {
            "bufferView" : 2,
            "componentType" : 5126,
            "count" : 75,
            "type" : "VEC2"
        },
        {
            "bufferView" : 3,
            "componentType" : 5123,
            "count" : 96,
            "type" : "SCALAR"
        },
        {
            "bufferView" : 4,
            "componentType" : 5126,
            "count" : 54466,
            "max" : [
                1.8095836639404297,
                1.3825078010559082,
                3.450305700302124
            ],
            "min" : [
                -1.7985038757324219,
                -1.3823800086975098,
                0.18601560592651367
            ],
            "type" : "VEC3"
        },
        {
            "bufferView" : 5,
            "componentType" : 5126,
            "count" : 54466,
            "type" : "VEC3"
        },
        {
            "bufferView" : 6,
            "componentType" : 5126,
            "count" : 54466,
            "type" : "VEC2"
        },
        {
            "bufferView" : 7,
            "componentType" : 5123,
            "count" : 68196,
            "type" : "SCALAR"
        },
        {
            "bufferView" : 8,
            "componentType" : 5126,
            "count" : 486,
            "max" : [
                1.8095836639404297,
                1.361405849456787,
                3.686859607696533
            ],
            "min" : [
                -1.7985038757324219,
                -1.3612780570983887,
                0.15621459484100342
            ],
            "type" : "VEC3"
        },
        {
            "bufferView" : 9,
            "componentType" : 5126,
            "count" : 486,
            "type" : "VEC3"
        },
        {
            "bufferView" : 10,
            "componentType" : 5126,
            "count" : 486,
            "type" : "VEC2"
        },
        {
            "bufferView" : 11,
            "componentType" : 5123,
            "count" : 594,
            "type" : "SCALAR"
        },
        {
            "bufferView" : 12,
            "componentType" : 5126,
            "count" : 492,
            "max" : [
                1.8095836639404297,
                1.3825078010559082,
                3.686859607696533
            ],
            "min" : [
                -1.7985038757324219,
                -1.3823800086975098,
                0.8448606729507446
            ],
            "type" : "VEC3"
        },
        {
            "bufferView" : 13,
            "componentType" : 5126,
            "count" : 492,
            "type" : "VEC3"
        },
        {
            "bufferView" : 14,
            "componentType" : 5126,
            "count" : 492,
            "type" : "VEC2"
        },
        {
            "bufferView" : 15,
            "componentType" : 5123,
            "count" : 606,
            "type" : "SCALAR"
        },
        {
            "bufferView" : 16,
            "componentType" : 5126,
            "count" : 162,
            "max" : [
                1.7333564758300781,
                1.0778837203979492,
                3.438110589981079
            ],
            "min" : [
                -1.7205753326416016,
                -1.10225248336792,
                2.3375935554504395
            ],
            "type" : "VEC3"
        },
        {
            "bufferView" : 17,
            "componentType" : 5126,
            "count" : 162,
            "type" : "VEC3"
        },
        {
            "bufferView" : 18,
            "componentType" : 5126,
            "count" : 162,
            "type" : "VEC2"
        },
        {
            "bufferView" : 19,
            "componentType" : 5123,
            "count" : 246,
            "type" : "SCALAR"
        },
        {
            "bufferView" : 20,
            "componentType" : 5126,
            "count" : 172,
            "max" : [
                1.518350601196289,
                1.2079696655273438,
                0.8197176456451416
            ],
            "min" : [
                -1.507272720336914,
                -1.2078423500061035,
                0.18924665451049805
            ],
            "type" : "VEC3"
        },
        {
            "bufferView" : 21,
            "componentType" : 5126,
            "count" : 172,
            "type" : "VEC3"
        },
        {
            "bufferView" : 22,
            "componentType" : 5126,
            "count" : 172,
            "type" : "VEC2"
        },
        {
            "bufferView" : 23,
            "componentType" : 5123,
            "count" : 192,
            "type" : "SCALAR"
        },
        {
            "bufferView" : 24,
            "componentType" : 5126,
            "count" : 188,
            "max" : [
                1.4650001525878906,
                1.17893648147583,
                0.18924665451049805
            ],
            "min" : [
                -1.4539203643798828,
                -1.178809642791748,
                0.15621459484100342
            ],
            "type" : "VEC3"
        },
        {
            "bufferView" : 25,
            "componentType" : 5126,
            "count" : 188,
            "type" : "VEC3"
        },
        {
            "bufferView" : 26,
            "componentType" : 5126,
            "count" : 188,
            "type" : "VEC2"
        },
        {
            "bufferView" : 27,
            "componentType" : 5123,
            "count" : 204,
            "type" : "SCALAR"
        },
        {
            "bufferView" : 28,
            "componentType" : 5126,
            "count" : 1996,
            "max" : [
                1.7432327270507812,
                1.3145499229431152,
                3.075742721557617
            ],
            "min" : [
                -1.7398185729980469,
                -1.3115487098693848,
                0.9727907180786133
            ],
            "type" : "VEC3"
        },
        {
            "bufferView" : 29,
            "componentType" : 5126,
            "count" : 1996,
            "type" : "VEC3"
        },
        {
            "bufferView" : 30,
            "componentType" : 5126,
            "count" : 1996,
            "type" : "VEC2"
        },
        {
            "bufferView" : 31,
            "componentType" : 5123,
            "count" : 2208,
            "type" : "SCALAR"
        }
    ],
    "bufferViews" : [
        {
            "buffer" : 0,
            "byteLength" : 900,
            "byteOffset" : 0
        },
        {
            "buffer" : 0,
            "byteLength" : 900,
            "byteOffset" : 900
        },
        {
            "buffer" : 0,
            "byteLength" : 600,
            "byteOffset" : 1800
        },
        {
            "buffer" : 0,
            "byteLength" : 192,
            "byteOffset" : 2400
        },
        {
            "buffer" : 0,
            "byteLength" : 653592,
            "byteOffset" : 2592
        },
        {
            "buffer" : 0,
            "byteLength" : 653592,
            "byteOffset" : 656184
        },
        {
            "buffer" : 0,
            "byteLength" : 435728,
            "byteOffset" : 1309776
        },
        {
            "buffer" : 0,
            "byteLength" : 136392,
            "byteOffset" : 1745504
        },
        {
            "buffer" : 0,
            "byteLength" : 5832,
            "byteOffset" : 1881896
        },
        {
            "buffer" : 0,
            "byteLength" : 5832,
            "byteOffset" : 1887728
        },
        {
            "buffer" : 0,
            "byteLength" : 3888,
            "byteOffset" : 1893560
        },
        {
            "buffer" : 0,
            "byteLength" : 1188,
            "byteOffset" : 1897448
        },
        {
            "buffer" : 0,
            "byteLength" : 5904,
            "byteOffset" : 1898636
        },
        {
            "buffer" : 0,
            "byteLength" : 5904,
            "byteOffset" : 1904540
        },
        {
            "buffer" : 0,
            "byteLength" : 3936,
            "byteOffset" : 1910444
        },
        {
            "buffer" : 0,
            "byteLength" : 1212,
            "byteOffset" : 1914380
        },
        {
            "buffer" : 0,
            "byteLength" : 1944,
            "byteOffset" : 1915592
        },
        {
            "buffer" : 0,
            "byteLength" : 1944,
            "byteOffset" : 1917536
        },
        {
            "buffer" : 0,
            "byteLength" : 1296,
            "byteOffset" : 1919480
        },
        {
            "buffer" : 0,
            "byteLength" : 492,
            "byteOffset" : 1920776
        },
        {
            "buffer" : 0,
            "byteLength" : 2064,
            "byteOffset" : 1921268
        },
        {
            "buffer" : 0,
            "byteLength" : 2064,
            "byteOffset" : 1923332
        },
        {
            "buffer" : 0,
            "byteLength" : 1376,
            "byteOffset" : 1925396
        },
        {
            "buffer" : 0,
            "byteLength" : 384,
            "byteOffset" : 1926772
        },
        {
            "buffer" : 0,
            "byteLength" : 2256,
            "byteOffset" : 1927156
        },
        {
            "buffer" : 0,
            "byteLength" : 2256,
            "byteOffset" : 1929412
        },
        {
            "buffer" : 0,
            "byteLength" : 1504,
            "byteOffset" : 1931668
        },
        {
            "buffer" : 0,
            "byteLength" : 408,
            "byteOffset" : 1933172
        },
        {
            "buffer" : 0,
            "byteLength" : 23952,
            "byteOffset" : 1933580
        },
        {
            "buffer" : 0,
            "byteLength" : 23952,
            "byteOffset" : 1957532
        },
        {
            "buffer" : 0,
            "byteLength" : 15968,
            "byteOffset" : 1981484
        },
        {
            "buffer" : 0,
            "byteLength" : 4416,
            "byteOffset" : 1997452
        }
    ],
    "buffers" : [
        {
            "byteLength" : 2001868,
            "uri" : "H7_2.bin"
        }
    ]
}
