{"buffers":[{"uri":"H7_2.bin","byteLength":956124}],"asset":{"version":"2.0","generator":"gltfpack 0.14"},"extensionsUsed":["KHR_mesh_quantization","KHR_texture_transform"],"extensionsRequired":["KHR_mesh_quantization"],"bufferViews":[{"buffer":0,"byteOffset":0,"byteLength":405720,"byteStride":8,"target":34962},{"buffer":0,"byteOffset":405720,"byteLength":202860,"byteStride":4,"target":34962},{"buffer":0,"byteOffset":608580,"byteLength":202860,"byteStride":4,"target":34962},{"buffer":0,"byteOffset":811440,"byteLength":144684,"target":34963}],"accessors":[{"bufferView":0,"byteOffset":0,"componentType":5123,"count":40,"type":"VEC3","min":[5587,181,1667],"max":[6967,1828,14666]},{"bufferView":1,"byteOffset":0,"componentType":5120,"count":40,"type":"VEC3","normalized":true},{"bufferView":2,"byteOffset":0,"componentType":5123,"count":40,"type":"VEC2"},{"bufferView":3,"byteOffset":0,"componentType":5123,"count":96,"type":"SCALAR"},{"bufferView":0,"byteOffset":320,"componentType":5123,"count":47427,"type":"VEC3","min":[0,135,0],"max":[12554,14957,16383]},{"bufferView":1,"byteOffset":160,"componentType":5120,"count":47427,"type":"VEC3","normalized":true},{"bufferView":2,"byteOffset":160,"componentType":5123,"count":47427,"type":"VEC2"},{"bufferView":3,"byteOffset":192,"componentType":5123,"count":68196,"type":"SCALAR"},{"bufferView":0,"byteOffset":379736,"componentType":5123,"count":422,"type":"VEC3","min":[96,0,0],"max":[12459,16031,16383]},{"bufferView":1,"byteOffset":189868,"componentType":5120,"count":422,"type":"VEC3","normalized":true},{"bufferView":2,"byteOffset":189868,"componentType":5123,"count":422,"type":"VEC2"},{"bufferView":3,"byteOffset":136584,"componentType":5123,"count":594,"type":"SCALAR"},{"bufferView":0,"byteOffset":383112,"componentType":5123,"count":450,"type":"VEC3","min":[0,3127,0],"max":[12554,16031,16383]},{"bufferView":1,"byteOffset":191556,"componentType":5120,"count":450,"type":"VEC3","normalized":true},{"bufferView":2,"byteOffset":191556,"componentType":5123,"count":450,"type":"VEC2"},{"bufferView":3,"byteOffset":137772,"componentType":5123,"count":606,"type":"SCALAR"},{"bufferView":0,"byteOffset":386712,"componentType":5123,"count":160,"type":"VEC3","min":[1383,9905,346],"max":[11282,14902,16029]},{"bufferView":1,"byteOffset":193356,"componentType":5120,"count":160,"type":"VEC3","normalized":true},{"bufferView":2,"byteOffset":193356,"componentType":5123,"count":160,"type":"VEC2"},{"bufferView":3,"byteOffset":138984,"componentType":5123,"count":246,"type":"SCALAR"},{"bufferView":0,"byteOffset":387992,"componentType":5123,"count":157,"type":"VEC3","min":[793,150,1322],"max":[11762,3013,15061]},{"bufferView":1,"byteOffset":193996,"componentType":5120,"count":157,"type":"VEC3","normalized":true},{"bufferView":2,"byteOffset":193996,"componentType":5123,"count":157,"type":"VEC2"},{"bufferView":3,"byteOffset":139476,"componentType":5123,"count":192,"type":"SCALAR"},{"bufferView":0,"byteOffset":389248,"componentType":5123,"count":157,"type":"VEC3","min":[924,0,1565],"max":[11630,150,14818]},{"bufferView":1,"byteOffset":194624,"componentType":5120,"count":157,"type":"VEC3","normalized":true},{"bufferView":2,"byteOffset":194624,"componentType":5123,"count":157,"type":"VEC2"},{"bufferView":3,"byteOffset":139860,"componentType":5123,"count":204,"type":"SCALAR"},{"bufferView":0,"byteOffset":390504,"componentType":5123,"count":1902,"type":"VEC3","min":[309,3708,301],"max":[12233,13257,16117]},{"bufferView":1,"byteOffset":195252,"componentType":5120,"count":1902,"type":"VEC3","normalized":true},{"bufferView":2,"byteOffset":195252,"componentType":5123,"count":1902,"type":"VEC2"},{"bufferView":3,"byteOffset":140268,"componentType":5123,"count":2208,"type":"SCALAR"}],"images":[{"uri":"rouge.png"},{"uri":"brun.png"},{"uri":"lime.png"},{"uri":"saumon.png"},{"uri":"banane.png"},{"uri":"gris.png"},{"uri":"midnight.png"}],"textures":[{"source":0},{"source":1},{"source":2},{"source":1},{"source":3},{"source":4},{"source":5},{"source":6}],"materials":[{"name":"Material.027","pbrMetallicRoughness":{"baseColorTexture":{"index":0,"texCoord":0,"extensions":{"KHR_texture_transform":{"offset":[0.375,0.25],"scale":[6.10500647e-05,3.01147702e-05]}}},"metallicFactor":0,"roughnessFactor":0.5},"doubleSided":true},{"name":"Material.028","pbrMetallicRoughness":{"baseColorTexture":{"index":1,"texCoord":0,"extensions":{"KHR_texture_transform":{"offset":[0,0],"scale":[0.000213675215,0.000244200259]}}},"metallicFactor":0,"roughnessFactor":0.5},"doubleSided":true},{"name":"Material.029","pbrMetallicRoughness":{"baseColorTexture":{"index":2,"texCoord":0,"extensions":{"KHR_texture_transform":{"offset":[0,0],"scale":[0.000152625158,0.000244200259]}}},"metallicFactor":0,"roughnessFactor":0.400000006},"doubleSided":true},{"name":"Material.030","pbrMetallicRoughness":{"baseColorTexture":{"index":3,"texCoord":0,"extensions":{"KHR_texture_transform":{"offset":[0.625,0],"scale":[6.10500647e-05,0.000244200259]}}},"metallicFactor":0,"roughnessFactor":0.5},"doubleSided":true},{"name":"Material.031","pbrMetallicRoughness":{"baseColorTexture":{"index":4,"texCoord":0,"extensions":{"KHR_texture_transform":{"offset":[0.125,0],"scale":[0.000122100129,0.000244200259]}}},"metallicFactor":0,"roughnessFactor":0.5},"doubleSided":true},{"name":"Material.032","pbrMetallicRoughness":{"baseColorTexture":{"index":5,"texCoord":0,"extensions":{"KHR_texture_transform":{"offset":[0,0],"scale":[0.000152625158,0.000244200259]}}},"metallicFactor":0,"roughnessFactor":0.5},"doubleSided":true},{"name":"Material.033","pbrMetallicRoughness":{"baseColorTexture":{"index":6,"texCoord":0,"extensions":{"KHR_texture_transform":{"offset":[0.125,0],"scale":[0.000122100129,0.000244200259]}}},"metallicFactor":0,"roughnessFactor":0.5},"doubleSided":true},{"name":"Material.034","pbrMetallicRoughness":{"baseColorTexture":{"index":7,"texCoord":0,"extensions":{"KHR_texture_transform":{"offset":[0.380847007,0.254864991],"scale":[5.83833898e-05,2.77990239e-05]}}},"metallicFactor":0,"roughnessFactor":0.5},"doubleSided":true}],"meshes":[{"primitives":[{"attributes":{"POSITION":0,"NORMAL":1,"TEXCOORD_0":2},"mode":4,"indices":3,"material":0},{"attributes":{"POSITION":4,"NORMAL":5,"TEXCOORD_0":6},"mode":4,"indices":7,"material":1},{"attributes":{"POSITION":8,"NORMAL":9,"TEXCOORD_0":10},"mode":4,"indices":11,"material":2},{"attributes":{"POSITION":12,"NORMAL":13,"TEXCOORD_0":14},"mode":4,"indices":15,"material":3},{"attributes":{"POSITION":16,"NORMAL":17,"TEXCOORD_0":18},"mode":4,"indices":19,"material":4},{"attributes":{"POSITION":20,"NORMAL":21,"TEXCOORD_0":22},"mode":4,"indices":23,"material":5},{"attributes":{"POSITION":24,"NORMAL":25,"TEXCOORD_0":26},"mode":4,"indices":27,"material":6},{"attributes":{"POSITION":28,"NORMAL":29,"TEXCOORD_0":30},"mode":4,"indices":31,"material":7}]}],"nodes":[{"mesh":0,"translation":[1.54984593,0.0119367987,-1.14941001],"scale":[1.68287315e-05,1.68287315e-05,1.68287315e-05]}],"scenes":[{"nodes":[0]}],"scene":0}