{"buffers":[{"uri":"M2_1_4.bin","byteLength":75600}],"asset":{"version":"2.0","generator":"gltfpack 0.14"},"extensionsUsed":["KHR_mesh_quantization","KHR_texture_transform"],"extensionsRequired":["KHR_mesh_quantization"],"bufferViews":[{"buffer":0,"byteOffset":0,"byteLength":31224,"byteStride":8,"target":34962},{"buffer":0,"byteOffset":31224,"byteLength":15612,"byteStride":4,"target":34962},{"buffer":0,"byteOffset":46836,"byteLength":15612,"byteStride":4,"target":34962},{"buffer":0,"byteOffset":62448,"byteLength":13152,"target":34963}],"accessors":[{"bufferView":0,"byteOffset":0,"componentType":5123,"count":796,"type":"VEC3","min":[471,0,332],"max":[10845,16383,8313]},{"bufferView":1,"byteOffset":0,"componentType":5120,"count":796,"type":"VEC3","normalized":true},{"bufferView":2,"byteOffset":0,"componentType":5123,"count":796,"type":"VEC2"},{"bufferView":3,"byteOffset":0,"componentType":5123,"count":1290,"type":"SCALAR"},{"bufferView":0,"byteOffset":6368,"componentType":5123,"count":2794,"type":"VEC3","min":[0,451,0],"max":[11304,15272,8590]},{"bufferView":1,"byteOffset":3184,"componentType":5120,"count":2794,"type":"VEC3","normalized":true},{"bufferView":2,"byteOffset":3184,"componentType":5123,"count":2794,"type":"VEC2"},{"bufferView":3,"byteOffset":2580,"componentType":5123,"count":4659,"type":"SCALAR"},{"bufferView":0,"byteOffset":28720,"componentType":5123,"count":96,"type":"VEC3","min":[194,2302,173],"max":[11097,12276,8487]},{"bufferView":1,"byteOffset":14360,"componentType":5120,"count":96,"type":"VEC3","normalized":true},{"bufferView":2,"byteOffset":14360,"componentType":5123,"count":96,"type":"VEC2"},{"bufferView":3,"byteOffset":11898,"componentType":5123,"count":144,"type":"SCALAR"},{"bufferView":0,"byteOffset":29488,"componentType":5123,"count":217,"type":"VEC3","min":[259,547,217],"max":[11044,14683,8499]},{"bufferView":1,"byteOffset":14744,"componentType":5120,"count":217,"type":"VEC3","normalized":true},{"bufferView":2,"byteOffset":14744,"componentType":5123,"count":217,"type":"VEC2"},{"bufferView":3,"byteOffset":12186,"componentType":5123,"count":483,"type":"SCALAR"}],"images":[{"uri":"gris.png"},{"uri":"brun.png"},{"uri":"sky.png"},{"uri":"caseM1.png"}],"textures":[{"source":0},{"source":1},{"source":2},{"source":3}],"materials":[{"name":"gris.001","pbrMetallicRoughness":{"baseColorTexture":{"index":0,"texCoord":0,"extensions":{"KHR_texture_transform":{"offset":[0.125,0],"scale":[0.000183150187,0.000244200259]}}},"metallicFactor":0,"roughnessFactor":0.5},"doubleSided":true},{"name":"brun.002","pbrMetallicRoughness":{"baseColorTexture":{"index":1,"texCoord":0,"extensions":{"KHR_texture_transform":{"offset":[0.125,0],"scale":[0.000183150187,0.000244200259]}}},"metallicFactor":0},"doubleSided":true},{"name":"sky","pbrMetallicRoughness":{"baseColorTexture":{"index":2,"texCoord":0,"extensions":{"KHR_texture_transform":{"offset":[0.375,0.25],"scale":[6.10500647e-05,6.10500647e-05]}}},"metallicFactor":0,"roughnessFactor":0.5},"doubleSided":true},{"name":"caseM1","pbrMetallicRoughness":{"baseColorTexture":{"index":3,"texCoord":0,"extensions":{"KHR_texture_transform":{"offset":[0.625,0],"scale":[0,0.000244200259]}}},"metallicFactor":0,"roughnessFactor":0.5},"doubleSided":true}],"meshes":[{"primitives":[{"attributes":{"POSITION":0,"NORMAL":1,"TEXCOORD_0":2},"mode":4,"indices":3,"material":0},{"attributes":{"POSITION":4,"NORMAL":5,"TEXCOORD_0":6},"mode":4,"indices":7,"material":1},{"attributes":{"POSITION":8,"NORMAL":9,"TEXCOORD_0":10},"mode":4,"indices":11,"material":2},{"attributes":{"POSITION":12,"NORMAL":13,"TEXCOORD_0":14},"mode":4,"indices":15,"material":3}]}],"nodes":[{"mesh":0,"translation":[-0.49851495,-0.000395502633,1.55480146],"scale":[1.44628902e-05,1.44628902e-05,1.44628902e-05]}],"scenes":[{"nodes":[0]}],"scene":0}