{"buffers":[{"uri":"tracteur.bin","byteLength":204136}],"asset":{"version":"2.0","generator":"gltfpack 0.14"},"extensionsUsed":["KHR_mesh_quantization","KHR_texture_transform"],"extensionsRequired":["KHR_mesh_quantization"],"bufferViews":[{"buffer":0,"byteOffset":0,"byteLength":83144,"byteStride":8,"target":34962},{"buffer":0,"byteOffset":83144,"byteLength":41572,"byteStride":4,"target":34962},{"buffer":0,"byteOffset":124716,"byteLength":41572,"byteStride":4,"target":34962},{"buffer":0,"byteOffset":166288,"byteLength":37848,"target":34963}],"accessors":[{"bufferView":0,"byteOffset":0,"componentType":5123,"count":3292,"type":"VEC3","min":[500,2355,429],"max":[10143,13333,15828]},{"bufferView":1,"byteOffset":0,"componentType":5120,"count":3292,"type":"VEC3","normalized":true},{"bufferView":2,"byteOffset":0,"componentType":5123,"count":3292,"type":"VEC2"},{"bufferView":3,"byteOffset":0,"componentType":5123,"count":7896,"type":"SCALAR"},{"bufferView":0,"byteOffset":26336,"componentType":5123,"count":12,"type":"VEC3","min":[2598,5662,15298],"max":[8045,6305,15315]},{"bufferView":1,"byteOffset":13168,"componentType":5120,"count":12,"type":"VEC3","normalized":true},{"bufferView":2,"byteOffset":13168,"componentType":5123,"count":12,"type":"VEC2"},{"bufferView":3,"byteOffset":15792,"componentType":5123,"count":24,"type":"SCALAR"},{"bufferView":0,"byteOffset":26432,"componentType":5123,"count":1018,"type":"VEC3","min":[500,2355,766],"max":[10143,10070,15828]},{"bufferView":1,"byteOffset":13216,"componentType":5120,"count":1018,"type":"VEC3","normalized":true},{"bufferView":2,"byteOffset":13216,"componentType":5123,"count":1018,"type":"VEC2"},{"bufferView":3,"byteOffset":15840,"componentType":5123,"count":1668,"type":"SCALAR"},{"bufferView":0,"byteOffset":34576,"componentType":5123,"count":1407,"type":"VEC3","min":[203,1173,814],"max":[10592,13333,15210]},{"bufferView":1,"byteOffset":17288,"componentType":5120,"count":1407,"type":"VEC3","normalized":true},{"bufferView":2,"byteOffset":17288,"componentType":5123,"count":1407,"type":"VEC2"},{"bufferView":3,"byteOffset":19176,"componentType":5123,"count":2292,"type":"SCALAR"},{"bufferView":0,"byteOffset":45832,"componentType":5123,"count":48,"type":"VEC3","min":[1221,7064,3317],"max":[9422,10066,9526]},{"bufferView":1,"byteOffset":22916,"componentType":5120,"count":48,"type":"VEC3","normalized":true},{"bufferView":2,"byteOffset":22916,"componentType":5123,"count":48,"type":"VEC2"},{"bufferView":3,"byteOffset":23760,"componentType":5123,"count":72,"type":"SCALAR"},{"bufferView":0,"byteOffset":46216,"componentType":5123,"count":24,"type":"VEC3","min":[2227,6421,848],"max":[8416,7005,15305]},{"bufferView":1,"byteOffset":23108,"componentType":5120,"count":24,"type":"VEC3","normalized":true},{"bufferView":2,"byteOffset":23108,"componentType":5123,"count":24,"type":"VEC2"},{"bufferView":3,"byteOffset":23904,"componentType":5123,"count":36,"type":"SCALAR"},{"bufferView":0,"byteOffset":46408,"componentType":5123,"count":4592,"type":"VEC3","min":[0,0,0],"max":[10874,6850,16383]},{"bufferView":1,"byteOffset":23204,"componentType":5120,"count":4592,"type":"VEC3","normalized":true},{"bufferView":2,"byteOffset":23204,"componentType":5123,"count":4592,"type":"VEC2"},{"bufferView":3,"byteOffset":23976,"componentType":5123,"count":6936,"type":"SCALAR"}],"images":[{"uri":"cayenne.png"},{"uri":"blanc.png"},{"uri":"noir.png"},{"uri":"gris.png"},{"uri":"ice.png"}],"textures":[{"source":0},{"source":1},{"source":2},{"source":3},{"source":4},{"source":0},{"source":2}],"materials":[{"name":"team_color","pbrMetallicRoughness":{"baseColorTexture":{"index":0,"texCoord":0,"extensions":{"KHR_texture_transform":{"offset":[0,0.125],"scale":[0.000183150187,0.000213675215]}}},"metallicFactor":0.216666669,"roughnessFactor":0.541666687},"doubleSided":true},{"name":"lights","pbrMetallicRoughness":{},"emissiveTexture":{"index":1,"texCoord":0,"extensions":{"KHR_texture_transform":{"offset":[0.517757058,0.210934877],"scale":[1.23356576e-05,8.53353686e-06]}}},"emissiveFactor":[1,1,1],"doubleSided":true},{"name":"retro","pbrMetallicRoughness":{"baseColorTexture":{"index":2,"texCoord":0,"extensions":{"KHR_texture_transform":{"offset":[0,0.125],"scale":[0.000183150187,0.000213675215]}}},"metallicFactor":0,"roughnessFactor":0.5},"doubleSided":true},{"name":"gris","pbrMetallicRoughness":{"baseColorTexture":{"index":3,"texCoord":0,"extensions":{"KHR_texture_transform":{"offset":[0,0.391304374],"scale":[0.000163170262,0.000148643623]}}},"metallicFactor":0.725000024,"roughnessFactor":0.416666657},"doubleSided":true},{"name":"Vitres","pbrMetallicRoughness":{"baseColorTexture":{"index":4,"texCoord":0,"extensions":{"KHR_texture_transform":{"offset":[0.62499994,0.49999994],"scale":[3.05250469e-05,2.91109394e-11]}}},"metallicFactor":0,"roughnessFactor":0.5},"doubleSided":true},{"name":"feu","pbrMetallicRoughness":{},"emissiveTexture":{"index":5,"texCoord":0,"extensions":{"KHR_texture_transform":{"offset":[0.51491189,0.207842529],"scale":[1.69035575e-05,7.13449554e-05]}}},"emissiveFactor":[1,1,1],"doubleSided":true},{"name":"pneu","pbrMetallicRoughness":{"baseColorTexture":{"index":6,"texCoord":0,"extensions":{"KHR_texture_transform":{"offset":[0,1],"scale":[0,0]}}},"metallicFactor":0,"roughnessFactor":0.5},"doubleSided":true}],"meshes":[{"primitives":[{"attributes":{"POSITION":0,"NORMAL":1,"TEXCOORD_0":2},"mode":4,"indices":3,"material":0},{"attributes":{"POSITION":4,"NORMAL":5,"TEXCOORD_0":6},"mode":4,"indices":7,"material":1},{"attributes":{"POSITION":8,"NORMAL":9,"TEXCOORD_0":10},"mode":4,"indices":11,"material":2},{"attributes":{"POSITION":12,"NORMAL":13,"TEXCOORD_0":14},"mode":4,"indices":15,"material":3},{"attributes":{"POSITION":16,"NORMAL":17,"TEXCOORD_0":18},"mode":4,"indices":19,"material":4},{"attributes":{"POSITION":20,"NORMAL":21,"TEXCOORD_0":22},"mode":4,"indices":23,"material":5},{"attributes":{"POSITION":24,"NORMAL":25,"TEXCOORD_0":26},"mode":4,"indices":27,"material":6}]}],"nodes":[{"mesh":0,"translation":[-0.0450510494,-9.56266886e-05,-0.0696046874],"scale":[8.28066914e-06,8.28066914e-06,8.28066914e-06]}],"scenes":[{"nodes":[0]}],"scene":0}