{
    "asset" : {
        "generator" : "Khronos glTF Blender I/O v1.1.45",
        "version" : "2.0"
    },
    "scene" : 0,
    "scenes" : [
        {
            "name" : "Scene",
            "nodes" : [
                0
            ]
        }
    ],
    "nodes" : [
        {
            "mesh" : 0,
            "name" : "droit",
            "rotation" : [
                0.7035219669342041,
                -0.07111184298992157,
                0.07111185789108276,
                0.7035218477249146
            ],
            "scale" : [
                0.015540857799351215,
                0.015540857799351215,
                0.015540857799351215
            ]
        }
    ],
    "materials" : [
        {
            "doubleSided" : true,
            "emissiveFactor" : [
                0,
                0,
                0
            ],
            "name" : "Material.009",
            "pbrMetallicRoughness" : {
                "baseColorTexture" : {
                    "index" : 0,
                    "texCoord" : 0
                },
                "metallicFactor" : 0,
                "roughnessFactor" : 0.5
            }
        },
        {
            "doubleSided" : true,
            "emissiveFactor" : [
                0,
                0,
                0
            ],
            "name" : "Material.014",
            "pbrMetallicRoughness" : {
                "baseColorTexture" : {
                    "index" : 1,
                    "texCoord" : 0
                },
                "metallicFactor" : 0,
                "roughnessFactor" : 0.5
            }
        },
        {
            "doubleSided" : true,
            "emissiveFactor" : [
                0,
                0,
                0
            ],
            "name" : "Material.015",
            "pbrMetallicRoughness" : {
                "baseColorTexture" : {
                    "index" : 2,
                    "texCoord" : 0
                },
                "metallicFactor" : 0,
                "roughnessFactor" : 0.5
            }
        },
        {
            "doubleSided" : true,
            "emissiveFactor" : [
                0,
                0,
                0
            ],
            "name" : "Material",
            "pbrMetallicRoughness" : {
                "baseColorTexture" : {
                    "index" : 3,
                    "texCoord" : 0
                },
                "metallicFactor" : 0,
                "roughnessFactor" : 0.4000000059604645
            }
        },
        {
            "doubleSided" : true,
            "emissiveFactor" : [
                0,
                0,
                0
            ],
            "name" : "brun.001",
            "pbrMetallicRoughness" : {
                "baseColorTexture" : {
                    "index" : 4,
                    "texCoord" : 0
                },
                "metallicFactor" : 0,
                "roughnessFactor" : 0.5
            }
        },
        {
            "doubleSided" : true,
            "emissiveFactor" : [
                0,
                0,
                0
            ],
            "name" : "gris",
            "pbrMetallicRoughness" : {
                "baseColorTexture" : {
                    "index" : 5,
                    "texCoord" : 0
                },
                "metallicFactor" : 0,
                "roughnessFactor" : 0.5
            }
        },
        {
            "doubleSided" : true,
            "emissiveFactor" : [
                0,
                0,
                0
            ],
            "name" : "magnesium",
            "pbrMetallicRoughness" : {
                "baseColorTexture" : {
                    "index" : 6,
                    "texCoord" : 0
                },
                "metallicFactor" : 0,
                "roughnessFactor" : 0.5
            }
        },
        {
            "doubleSided" : true,
            "emissiveFactor" : [
                0,
                0,
                0
            ],
            "name" : "tungsten.001",
            "pbrMetallicRoughness" : {
                "baseColorTexture" : {
                    "index" : 7,
                    "texCoord" : 0
                },
                "metallicFactor" : 0,
                "roughnessFactor" : 0.5
            }
        },
        {
            "doubleSided" : true,
            "emissiveFactor" : [
                0,
                0,
                0
            ],
            "name" : "Material.013",
            "pbrMetallicRoughness" : {
                "baseColorTexture" : {
                    "index" : 8,
                    "texCoord" : 0
                },
                "metallicFactor" : 0,
                "roughnessFactor" : 0.5
            }
        }
    ],
    "meshes" : [
        {
            "name" : "Plane",
            "primitives" : [
                {
                    "attributes" : {
                        "POSITION" : 0,
                        "NORMAL" : 1,
                        "TEXCOORD_0" : 2
                    },
                    "indices" : 3,
                    "material" : 0
                },
                {
                    "attributes" : {
                        "POSITION" : 4,
                        "NORMAL" : 5,
                        "TEXCOORD_0" : 6
                    },
                    "indices" : 7,
                    "material" : 1
                },
                {
                    "attributes" : {
                        "POSITION" : 8,
                        "NORMAL" : 9,
                        "TEXCOORD_0" : 10
                    },
                    "indices" : 11,
                    "material" : 2
                },
                {
                    "attributes" : {
                        "POSITION" : 12,
                        "NORMAL" : 13,
                        "TEXCOORD_0" : 14
                    },
                    "indices" : 15,
                    "material" : 3
                },
                {
                    "attributes" : {
                        "POSITION" : 16,
                        "NORMAL" : 17,
                        "TEXCOORD_0" : 18
                    },
                    "indices" : 19,
                    "material" : 4
                },
                {
                    "attributes" : {
                        "POSITION" : 20,
                        "NORMAL" : 21,
                        "TEXCOORD_0" : 22
                    },
                    "indices" : 23,
                    "material" : 5
                },
                {
                    "attributes" : {
                        "POSITION" : 24,
                        "NORMAL" : 25,
                        "TEXCOORD_0" : 26
                    },
                    "indices" : 27,
                    "material" : 6
                },
                {
                    "attributes" : {
                        "POSITION" : 28,
                        "NORMAL" : 29,
                        "TEXCOORD_0" : 30
                    },
                    "indices" : 31,
                    "material" : 7
                },
                {
                    "attributes" : {
                        "POSITION" : 32,
                        "NORMAL" : 33,
                        "TEXCOORD_0" : 34
                    },
                    "indices" : 35,
                    "material" : 8
                }
            ]
        }
    ],
    "textures" : [
        {
            "source" : 0
        },
        {
            "source" : 1
        },
        {
            "source" : 2
        },
        {
            "source" : 1
        },
        {
            "source" : 3
        },
        {
            "source" : 4
        },
        {
            "source" : 1
        },
        {
            "source" : 5
        },
        {
            "source" : 6
        }
    ],
    "images" : [
        {
            "mimeType" : "image/png",
            "name" : "blueberry",
            "uri" : "blueberry.png"
        },
        {
            "mimeType" : "image/png",
            "name" : "magnesium",
            "uri" : "magnesium.png"
        },
        {
            "mimeType" : "image/png",
            "name" : "rouge",
            "uri" : "rouge.png"
        },
        {
            "mimeType" : "image/png",
            "name" : "brun",
            "uri" : "brun.png"
        },
        {
            "mimeType" : "image/png",
            "name" : "gris",
            "uri" : "gris.png"
        },
        {
            "mimeType" : "image/png",
            "name" : "tungsten",
            "uri" : "tungsten.png"
        },
        {
            "mimeType" : "image/png",
            "name" : "sky",
            "uri" : "sky.png"
        }
    ],
    "accessors" : [
        {
            "bufferView" : 0,
            "componentType" : 5126,
            "count" : 476,
            "max" : [
                104.05611419677734,
                -145.4001922607422,
                -1.7088087797164917
            ],
            "min" : [
                77.0416488647461,
                -147.6192169189453,
                -6.64908504486084
            ],
            "type" : "VEC3"
        },
        {
            "bufferView" : 1,
            "componentType" : 5126,
            "count" : 476,
            "type" : "VEC3"
        },
        {
            "bufferView" : 2,
            "componentType" : 5126,
            "count" : 476,
            "type" : "VEC2"
        },
        {
            "bufferView" : 3,
            "componentType" : 5123,
            "count" : 816,
            "type" : "SCALAR"
        },
        {
            "bufferView" : 4,
            "componentType" : 5126,
            "count" : 1630,
            "max" : [
                104.05611419677734,
                -145.4001922607422,
                0.1875501424074173
            ],
            "min" : [
                77.0416488647461,
                -149.6512908935547,
                -7.705903053283691
            ],
            "type" : "VEC3"
        },
        {
            "bufferView" : 5,
            "componentType" : 5126,
            "count" : 1630,
            "type" : "VEC3"
        },
        {
            "bufferView" : 6,
            "componentType" : 5126,
            "count" : 1630,
            "type" : "VEC2"
        },
        {
            "bufferView" : 7,
            "componentType" : 5123,
            "count" : 4008,
            "type" : "SCALAR"
        },
        {
            "bufferView" : 8,
            "componentType" : 5126,
            "count" : 472,
            "max" : [
                104.05611419677734,
                -145.4001922607422,
                -2.1519908905029297
            ],
            "min" : [
                77.0416488647461,
                -147.6192169189453,
                -7.705903053283691
            ],
            "type" : "VEC3"
        },
        {
            "bufferView" : 9,
            "componentType" : 5126,
            "count" : 472,
            "type" : "VEC3"
        },
        {
            "bufferView" : 10,
            "componentType" : 5126,
            "count" : 472,
            "type" : "VEC2"
        },
        {
            "bufferView" : 11,
            "componentType" : 5123,
            "count" : 816,
            "type" : "SCALAR"
        },
        {
            "bufferView" : 12,
            "componentType" : 5126,
            "count" : 59,
            "max" : [
                86.52455139160156,
                -133.91815185546875,
                0.37199097871780396
            ],
            "min" : [
                79.18560791015625,
                -143.7415008544922,
                -1.2572795152664185
            ],
            "type" : "VEC3"
        },
        {
            "bufferView" : 13,
            "componentType" : 5126,
            "count" : 59,
            "type" : "VEC3"
        },
        {
            "bufferView" : 14,
            "componentType" : 5126,
            "count" : 59,
            "type" : "VEC2"
        },
        {
            "bufferView" : 15,
            "componentType" : 5123,
            "count" : 120,
            "type" : "SCALAR"
        },
        {
            "bufferView" : 16,
            "componentType" : 5126,
            "count" : 17,
            "max" : [
                86.52455139160156,
                -133.91815185546875,
                -1.2572792768478394
            ],
            "min" : [
                79.18560791015625,
                -143.7415008544922,
                -1.2572795152664185
            ],
            "type" : "VEC3"
        },
        {
            "bufferView" : 17,
            "componentType" : 5126,
            "count" : 17,
            "type" : "VEC3"
        },
        {
            "bufferView" : 18,
            "componentType" : 5126,
            "count" : 17,
            "type" : "VEC2"
        },
        {
            "bufferView" : 19,
            "componentType" : 5123,
            "count" : 60,
            "type" : "SCALAR"
        },
        {
            "bufferView" : 20,
            "componentType" : 5126,
            "count" : 28,
            "max" : [
                86.52455139160156,
                -133.91815185546875,
                -0.8992666602134705
            ],
            "min" : [
                79.18560791015625,
                -143.7415008544922,
                -1.2572795152664185
            ],
            "type" : "VEC3"
        },
        {
            "bufferView" : 21,
            "componentType" : 5126,
            "count" : 28,
            "type" : "VEC3"
        },
        {
            "bufferView" : 22,
            "componentType" : 5126,
            "count" : 28,
            "type" : "VEC2"
        },
        {
            "bufferView" : 23,
            "componentType" : 5123,
            "count" : 60,
            "type" : "SCALAR"
        },
        {
            "bufferView" : 24,
            "componentType" : 5126,
            "count" : 613,
            "max" : [
                85.75143432617188,
                -133.3568878173828,
                0.3695926070213318
            ],
            "min" : [
                77.02693176269531,
                -144.41146850585938,
                -4.143034934997559
            ],
            "type" : "VEC3"
        },
        {
            "bufferView" : 25,
            "componentType" : 5126,
            "count" : 613,
            "type" : "VEC3"
        },
        {
            "bufferView" : 26,
            "componentType" : 5126,
            "count" : 613,
            "type" : "VEC2"
        },
        {
            "bufferView" : 27,
            "componentType" : 5123,
            "count" : 2118,
            "type" : "SCALAR"
        },
        {
            "bufferView" : 28,
            "componentType" : 5126,
            "count" : 26,
            "max" : [
                85.75143432617188,
                -133.3621826171875,
                -1.5006310939788818
            ],
            "min" : [
                78.22473907470703,
                -143.46713256835938,
                -4.143034934997559
            ],
            "type" : "VEC3"
        },
        {
            "bufferView" : 29,
            "componentType" : 5126,
            "count" : 26,
            "type" : "VEC3"
        },
        {
            "bufferView" : 30,
            "componentType" : 5126,
            "count" : 26,
            "type" : "VEC2"
        },
        {
            "bufferView" : 31,
            "componentType" : 5123,
            "count" : 54,
            "type" : "SCALAR"
        },
        {
            "bufferView" : 32,
            "componentType" : 5126,
            "count" : 168,
            "max" : [
                80.94361114501953,
                -134.0078582763672,
                -1.346426010131836
            ],
            "min" : [
                78.87457275390625,
                -144.13800048828125,
                -3.054985761642456
            ],
            "type" : "VEC3"
        },
        {
            "bufferView" : 33,
            "componentType" : 5126,
            "count" : 168,
            "type" : "VEC3"
        },
        {
            "bufferView" : 34,
            "componentType" : 5126,
            "count" : 168,
            "type" : "VEC2"
        },
        {
            "bufferView" : 35,
            "componentType" : 5123,
            "count" : 252,
            "type" : "SCALAR"
        }
    ],
    "bufferViews" : [
        {
            "buffer" : 0,
            "byteLength" : 5712,
            "byteOffset" : 0
        },
        {
            "buffer" : 0,
            "byteLength" : 5712,
            "byteOffset" : 5712
        },
        {
            "buffer" : 0,
            "byteLength" : 3808,
            "byteOffset" : 11424
        },
        {
            "buffer" : 0,
            "byteLength" : 1632,
            "byteOffset" : 15232
        },
        {
            "buffer" : 0,
            "byteLength" : 19560,
            "byteOffset" : 16864
        },
        {
            "buffer" : 0,
            "byteLength" : 19560,
            "byteOffset" : 36424
        },
        {
            "buffer" : 0,
            "byteLength" : 13040,
            "byteOffset" : 55984
        },
        {
            "buffer" : 0,
            "byteLength" : 8016,
            "byteOffset" : 69024
        },
        {
            "buffer" : 0,
            "byteLength" : 5664,
            "byteOffset" : 77040
        },
        {
            "buffer" : 0,
            "byteLength" : 5664,
            "byteOffset" : 82704
        },
        {
            "buffer" : 0,
            "byteLength" : 3776,
            "byteOffset" : 88368
        },
        {
            "buffer" : 0,
            "byteLength" : 1632,
            "byteOffset" : 92144
        },
        {
            "buffer" : 0,
            "byteLength" : 708,
            "byteOffset" : 93776
        },
        {
            "buffer" : 0,
            "byteLength" : 708,
            "byteOffset" : 94484
        },
        {
            "buffer" : 0,
            "byteLength" : 472,
            "byteOffset" : 95192
        },
        {
            "buffer" : 0,
            "byteLength" : 240,
            "byteOffset" : 95664
        },
        {
            "buffer" : 0,
            "byteLength" : 204,
            "byteOffset" : 95904
        },
        {
            "buffer" : 0,
            "byteLength" : 204,
            "byteOffset" : 96108
        },
        {
            "buffer" : 0,
            "byteLength" : 136,
            "byteOffset" : 96312
        },
        {
            "buffer" : 0,
            "byteLength" : 120,
            "byteOffset" : 96448
        },
        {
            "buffer" : 0,
            "byteLength" : 336,
            "byteOffset" : 96568
        },
        {
            "buffer" : 0,
            "byteLength" : 336,
            "byteOffset" : 96904
        },
        {
            "buffer" : 0,
            "byteLength" : 224,
            "byteOffset" : 97240
        },
        {
            "buffer" : 0,
            "byteLength" : 120,
            "byteOffset" : 97464
        },
        {
            "buffer" : 0,
            "byteLength" : 7356,
            "byteOffset" : 97584
        },
        {
            "buffer" : 0,
            "byteLength" : 7356,
            "byteOffset" : 104940
        },
        {
            "buffer" : 0,
            "byteLength" : 4904,
            "byteOffset" : 112296
        },
        {
            "buffer" : 0,
            "byteLength" : 4236,
            "byteOffset" : 117200
        },
        {
            "buffer" : 0,
            "byteLength" : 312,
            "byteOffset" : 121436
        },
        {
            "buffer" : 0,
            "byteLength" : 312,
            "byteOffset" : 121748
        },
        {
            "buffer" : 0,
            "byteLength" : 208,
            "byteOffset" : 122060
        },
        {
            "buffer" : 0,
            "byteLength" : 108,
            "byteOffset" : 122268
        },
        {
            "buffer" : 0,
            "byteLength" : 2016,
            "byteOffset" : 122376
        },
        {
            "buffer" : 0,
            "byteLength" : 2016,
            "byteOffset" : 124392
        },
        {
            "buffer" : 0,
            "byteLength" : 1344,
            "byteOffset" : 126408
        },
        {
            "buffer" : 0,
            "byteLength" : 504,
            "byteOffset" : 127752
        }
    ],
    "buffers" : [
        {
            "byteLength" : 128256,
            "uri" : "campus.bin"
        }
    ]
}
