{
    "asset" : {
        "generator" : "Khronos glTF Blender I/O v1.1.45",
        "version" : "2.0"
    },
    "scene" : 0,
    "scenes" : [
        {
            "name" : "Scene",
            "nodes" : [
                0,
                1
            ]
        }
    ],
    "nodes" : [
        {
            "mesh" : 0,
            "name" : "BezierCurve.013",
            "rotation" : [
                0,
                0.7071067690849304,
                0,
                0.7071067690849304
            ]
        },
        {
            "mesh" : 1,
            "name" : "BezierCurve.014",
            "rotation" : [
                0,
                1,
                0,
                -1.6292068494294654e-07
            ]
        }
    ],
    "materials" : [
        {
            "doubleSided" : true,
            "emissiveFactor" : [
                0,
                0,
                0
            ],
            "name" : "eau",
            "pbrMetallicRoughness" : {
                "baseColorTexture" : {
                    "index" : 0,
                    "texCoord" : 0
                },
                "metallicFactor" : 0,
                "roughnessFactor" : 0.5
            }
        }
    ],
    "meshes" : [
        {
            "name" : "BezierCurve.013",
            "primitives" : [
                {
                    "attributes" : {
                        "POSITION" : 0,
                        "NORMAL" : 1,
                        "TEXCOORD_0" : 2
                    },
                    "indices" : 3,
                    "material" : 0
                }
            ]
        },
        {
            "name" : "BezierCurve.014",
            "primitives" : [
                {
                    "attributes" : {
                        "POSITION" : 4,
                        "NORMAL" : 5,
                        "TEXCOORD_0" : 6
                    },
                    "indices" : 7,
                    "material" : 0
                }
            ]
        }
    ],
    "textures" : [
        {
            "source" : 0
        }
    ],
    "images" : [
        {
            "mimeType" : "image/png",
            "name" : "bleu",
            "uri" : "bleu.png"
        }
    ],
    "accessors" : [
        {
            "bufferView" : 0,
            "componentType" : 5126,
            "count" : 169,
            "max" : [
                -1.9626659154891968,
                -0.10206391662359238,
                0.4071529507637024
            ],
            "min" : [
                -2.084651470184326,
                -0.5795721411705017,
                0.27173760533332825
            ],
            "type" : "VEC3"
        },
        {
            "bufferView" : 1,
            "componentType" : 5126,
            "count" : 169,
            "type" : "VEC3"
        },
        {
            "bufferView" : 2,
            "componentType" : 5126,
            "count" : 169,
            "type" : "VEC2"
        },
        {
            "bufferView" : 3,
            "componentType" : 5123,
            "count" : 864,
            "type" : "SCALAR"
        },
        {
            "bufferView" : 4,
            "componentType" : 5126,
            "count" : 169,
            "max" : [
                -1.9872750043869019,
                -0.10206392407417297,
                -0.18714448809623718
            ],
            "min" : [
                -2.1092605590820312,
                -0.5795721411705017,
                -0.32255983352661133
            ],
            "type" : "VEC3"
        },
        {
            "bufferView" : 5,
            "componentType" : 5126,
            "count" : 169,
            "type" : "VEC3"
        },
        {
            "bufferView" : 6,
            "componentType" : 5126,
            "count" : 169,
            "type" : "VEC2"
        },
        {
            "bufferView" : 7,
            "componentType" : 5123,
            "count" : 864,
            "type" : "SCALAR"
        }
    ],
    "bufferViews" : [
        {
            "buffer" : 0,
            "byteLength" : 2028,
            "byteOffset" : 0
        },
        {
            "buffer" : 0,
            "byteLength" : 2028,
            "byteOffset" : 2028
        },
        {
            "buffer" : 0,
            "byteLength" : 1352,
            "byteOffset" : 4056
        },
        {
            "buffer" : 0,
            "byteLength" : 1728,
            "byteOffset" : 5408
        },
        {
            "buffer" : 0,
            "byteLength" : 2028,
            "byteOffset" : 7136
        },
        {
            "buffer" : 0,
            "byteLength" : 2028,
            "byteOffset" : 9164
        },
        {
            "buffer" : 0,
            "byteLength" : 1352,
            "byteOffset" : 11192
        },
        {
            "buffer" : 0,
            "byteLength" : 1728,
            "byteOffset" : 12544
        }
    ],
    "buffers" : [
        {
            "byteLength" : 14272,
            "uri" : "cascade.bin"
        }
    ]
}
