{
    "asset" : {
        "generator" : "Khronos glTF Blender I/O v1.1.45",
        "version" : "2.0"
    },
    "scene" : 0,
    "scenes" : [
        {
            "name" : "Scene",
            "nodes" : [
                0
            ]
        }
    ],
    "nodes" : [
        {
            "mesh" : 0,
            "name" : "socle.002",
            "scale" : [
                2.0312752723693848,
                0.12093093991279602,
                2.0312752723693848
            ]
        }
    ],
    "materials" : [
        {
            "doubleSided" : true,
            "emissiveFactor" : [
                0,
                0,
                0
            ],
            "name" : "Material.027",
            "pbrMetallicRoughness" : {
                "baseColorTexture" : {
                    "index" : 0,
                    "texCoord" : 0
                },
                "metallicFactor" : 0,
                "roughnessFactor" : 0.5
            }
        }
    ],
    "meshes" : [
        {
            "name" : "Cube.023",
            "primitives" : [
                {
                    "attributes" : {
                        "POSITION" : 0,
                        "NORMAL" : 1,
                        "TEXCOORD_0" : 2,
                        "TEXCOORD_1" : 3
                    },
                    "indices" : 4,
                    "material" : 0
                }
            ]
        }
    ],
    "textures" : [
        {
            "source" : 0
        }
    ],
    "images" : [
        {
            "mimeType" : "image/png",
            "name" : "plateau",
            "uri" : "plateau.png"
        }
    ],
    "accessors" : [
        {
            "bufferView" : 0,
            "componentType" : 5126,
            "count" : 24498,
            "max" : [
                1.038392424583435,
                0.0692063644528389,
                1.0262773036956787
            ],
            "min" : [
                -1.0011152029037476,
                -4.792587757110596,
                -0.998033881187439
            ],
            "type" : "VEC3"
        },
        {
            "bufferView" : 1,
            "componentType" : 5126,
            "count" : 24498,
            "type" : "VEC3"
        },
        {
            "bufferView" : 2,
            "componentType" : 5126,
            "count" : 24498,
            "type" : "VEC2"
        },
        {
            "bufferView" : 3,
            "componentType" : 5126,
            "count" : 24498,
            "type" : "VEC2"
        },
        {
            "bufferView" : 4,
            "componentType" : 5123,
            "count" : 130896,
            "type" : "SCALAR"
        }
    ],
    "bufferViews" : [
        {
            "buffer" : 0,
            "byteLength" : 293976,
            "byteOffset" : 0
        },
        {
            "buffer" : 0,
            "byteLength" : 293976,
            "byteOffset" : 293976
        },
        {
            "buffer" : 0,
            "byteLength" : 195984,
            "byteOffset" : 587952
        },
        {
            "buffer" : 0,
            "byteLength" : 195984,
            "byteOffset" : 783936
        },
        {
            "buffer" : 0,
            "byteLength" : 261792,
            "byteOffset" : 979920
        }
    ],
    "buffers" : [
        {
            "byteLength" : 1241712,
            "uri" : "plateau.bin"
        }
    ]
}
