{"buffers":[{"uri":"plateau2.bin","byteLength":703772}],"asset":{"version":"2.0","generator":"gltfpack 0.14"},"extensionsUsed":["KHR_mesh_quantization","KHR_texture_transform"],"extensionsRequired":["KHR_mesh_quantization"],"bufferViews":[{"buffer":0,"byteOffset":0,"byteLength":65285},{"buffer":0,"byteOffset":65288,"byteLength":190088,"byteStride":8,"target":34962},{"buffer":0,"byteOffset":255376,"byteLength":95044,"byteStride":4,"target":34962},{"buffer":0,"byteOffset":350420,"byteLength":95044,"byteStride":4,"target":34962},{"buffer":0,"byteOffset":445464,"byteLength":258306,"target":34963}],"accessors":[{"bufferView":1,"byteOffset":0,"componentType":5123,"count":23761,"type":"VEC3","min":[0,0,0],"max":[16383,2325,16261]},{"bufferView":2,"byteOffset":0,"componentType":5120,"count":23761,"type":"VEC3","normalized":true},{"bufferView":3,"byteOffset":0,"componentType":5123,"count":23761,"type":"VEC2"},{"bufferView":4,"byteOffset":0,"componentType":5123,"count":129153,"type":"SCALAR"}],"images":[{"bufferView":0,"mimeType":"image/png"}],"textures":[{"source":0}],"materials":[{"name":"Material.027","pbrMetallicRoughness":{"baseColorTexture":{"index":0,"texCoord":0,"extensions":{"KHR_texture_transform":{"offset":[0,0],"scale":[0.000244200259,0.000244200259]}}},"metallicFactor":0,"roughnessFactor":0.5},"doubleSided":true}],"meshes":[{"primitives":[{"attributes":{"POSITION":0,"NORMAL":1,"TEXCOORD_0":2},"mode":4,"indices":3,"material":0}]}],"nodes":[{"mesh":0,"translation":[-2.03354049,-0.579572141,-2.02728152],"scale":[0.000252871949,0.000252871949,0.000252871949]}],"scenes":[{"nodes":[0]}],"scene":0}