{
    "asset" : {
        "generator" : "Khronos glTF Blender I/O v1.1.45",
        "version" : "2.0"
    },
    "scene" : 0,
    "scenes" : [
        {
            "name" : "Scene",
            "nodes" : [
                0
            ]
        }
    ],
    "nodes" : [
        {
            "mesh" : 0,
            "name" : "cathedrale.002",
            "rotation" : [
                0.7071068286895752,
                0,
                0,
                0.7071067094802856
            ],
            "scale" : [
                0.04742938652634621,
                0.04742938652634621,
                0.04742938652634621
            ],
            "translation" : [
                0,
                -0.00035005295649170876,
                0
            ]
        }
    ],
    "materials" : [
        {
            "doubleSided" : true,
            "emissiveFactor" : [
                0,
                0,
                0
            ],
            "name" : "Material.010",
            "pbrMetallicRoughness" : {
                "baseColorTexture" : {
                    "index" : 0,
                    "texCoord" : 0
                },
                "metallicFactor" : 0,
                "roughnessFactor" : 1
            }
        }
    ],
    "meshes" : [
        {
            "name" : "Cube.026",
            "primitives" : [
                {
                    "attributes" : {
                        "POSITION" : 0,
                        "NORMAL" : 1,
                        "TEXCOORD_0" : 2
                    },
                    "indices" : 3,
                    "material" : 0
                }
            ]
        }
    ],
    "textures" : [
        {
            "source" : 0
        }
    ],
    "images" : [
        {
            "mimeType" : "image/png",
            "name" : "plateau",
            "uri" : "plateau.png"
        }
    ],
    "accessors" : [
        {
            "bufferView" : 0,
            "componentType" : 5126,
            "count" : 236538,
            "max" : [
                44.4677848815918,
                43.9400634765625,
                12.786120414733887
            ],
            "min" : [
                -44.79111099243164,
                -42.66291427612305,
                -10.876018524169922
            ],
            "type" : "VEC3"
        },
        {
            "bufferView" : 1,
            "componentType" : 5126,
            "count" : 236538,
            "type" : "VEC3"
        },
        {
            "bufferView" : 2,
            "componentType" : 5126,
            "count" : 236538,
            "type" : "VEC2"
        },
        {
            "bufferView" : 3,
            "componentType" : 5125,
            "count" : 440370,
            "type" : "SCALAR"
        }
    ],
    "bufferViews" : [
        {
            "buffer" : 0,
            "byteLength" : 2838456,
            "byteOffset" : 0
        },
        {
            "buffer" : 0,
            "byteLength" : 2838456,
            "byteOffset" : 2838456
        },
        {
            "buffer" : 0,
            "byteLength" : 1892304,
            "byteOffset" : 5676912
        },
        {
            "buffer" : 0,
            "byteLength" : 1761480,
            "byteOffset" : 7569216
        }
    ],
    "buffers" : [
        {
            "byteLength" : 9330696,
            "uri" : "plateau.bin"
        }
    ]
}
