{"buffers":[{"uri":"cascade.bin","byteLength":8864}],"asset":{"version":"2.0","generator":"gltfpack 0.14"},"extensionsUsed":["KHR_mesh_quantization","KHR_texture_transform"],"extensionsRequired":["KHR_mesh_quantization"],"bufferViews":[{"buffer":0,"byteOffset":0,"byteLength":2704,"byteStride":8,"target":34962},{"buffer":0,"byteOffset":2704,"byteLength":1352,"byteStride":4,"target":34962},{"buffer":0,"byteOffset":4056,"byteLength":1352,"byteStride":4,"target":34962},{"buffer":0,"byteOffset":5408,"byteLength":3456,"target":34963}],"accessors":[{"bufferView":0,"byteOffset":0,"componentType":5123,"count":338,"type":"VEC3","min":[0,0,0],"max":[15865,4123,16383]},{"bufferView":1,"byteOffset":0,"componentType":5120,"count":338,"type":"VEC3","normalized":true},{"bufferView":2,"byteOffset":0,"componentType":5123,"count":338,"type":"VEC2"},{"bufferView":3,"byteOffset":0,"componentType":5123,"count":1728,"type":"SCALAR"}],"images":[{"uri":"bleu.png"}],"textures":[{"source":0}],"materials":[{"name":"eau","pbrMetallicRoughness":{"baseColorTexture":{"index":0,"texCoord":0,"extensions":{"KHR_texture_transform":{"offset":[0,0],"scale":[0.000244200259,0.000244200259]}}},"metallicFactor":0,"roughnessFactor":0.5},"doubleSided":true}],"meshes":[{"primitives":[{"attributes":{"POSITION":0,"NORMAL":1,"TEXCOORD_0":2},"mode":4,"indices":3,"material":0}]}],"nodes":[{"mesh":0,"translation":[0.271737456,-0.579572141,0.187143832],"scale":[0.000115821735,0.000115821735,0.000115821735]}],"scenes":[{"nodes":[0]}],"scene":0}