{"buffers":[{"uri":"collections.bin","byteLength":592592}],"asset":{"version":"2.0","generator":"gltfpack 0.14"},"extensionsUsed":["KHR_mesh_quantization","KHR_texture_transform"],"extensionsRequired":["KHR_mesh_quantization"],"bufferViews":[{"buffer":0,"byteOffset":0,"byteLength":177192,"byteStride":8,"target":34962},{"buffer":0,"byteOffset":177192,"byteLength":88596,"byteStride":4,"target":34962},{"buffer":0,"byteOffset":265788,"byteLength":88596,"byteStride":4,"target":34962},{"buffer":0,"byteOffset":354384,"byteLength":238206,"target":34963}],"accessors":[{"bufferView":0,"byteOffset":0,"componentType":5123,"count":12,"type":"VEC3","min":[3614,1012,121],"max":[15384,1012,15333]},{"bufferView":1,"byteOffset":0,"componentType":5120,"count":12,"type":"VEC3","normalized":true},{"bufferView":2,"byteOffset":0,"componentType":5123,"count":12,"type":"VEC2"},{"bufferView":3,"byteOffset":0,"componentType":5123,"count":18,"type":"SCALAR"},{"bufferView":0,"byteOffset":96,"componentType":5123,"count":12,"type":"VEC3","min":[180,1012,4937],"max":[15332,1012,15328]},{"bufferView":1,"byteOffset":48,"componentType":5120,"count":12,"type":"VEC3","normalized":true},{"bufferView":2,"byteOffset":48,"componentType":5123,"count":12,"type":"VEC2"},{"bufferView":3,"byteOffset":36,"componentType":5123,"count":18,"type":"SCALAR"},{"bufferView":0,"byteOffset":192,"componentType":5123,"count":8,"type":"VEC3","min":[9056,1012,11716],"max":[15350,1012,15340]},{"bufferView":1,"byteOffset":96,"componentType":5120,"count":8,"type":"VEC3","normalized":true},{"bufferView":2,"byteOffset":96,"componentType":5123,"count":8,"type":"VEC2"},{"bufferView":3,"byteOffset":72,"componentType":5123,"count":12,"type":"SCALAR"},{"bufferView":0,"byteOffset":256,"componentType":5123,"count":4,"type":"VEC3","min":[180,1012,11734],"max":[1134,1012,12689]},{"bufferView":1,"byteOffset":128,"componentType":5120,"count":4,"type":"VEC3","normalized":true},{"bufferView":2,"byteOffset":128,"componentType":5123,"count":4,"type":"VEC2"},{"bufferView":3,"byteOffset":96,"componentType":5123,"count":6,"type":"SCALAR"},{"bufferView":0,"byteOffset":288,"componentType":5123,"count":4,"type":"VEC3","min":[11818,1012,148],"max":[12772,1012,1102]},{"bufferView":1,"byteOffset":144,"componentType":5120,"count":4,"type":"VEC3","normalized":true},{"bufferView":2,"byteOffset":144,"componentType":5123,"count":4,"type":"VEC2"},{"bufferView":3,"byteOffset":108,"componentType":5123,"count":6,"type":"SCALAR"},{"bufferView":0,"byteOffset":320,"componentType":5123,"count":20578,"type":"VEC3","min":[155,0,146],"max":[16226,1011,16336]},{"bufferView":1,"byteOffset":160,"componentType":5120,"count":20578,"type":"VEC3","normalized":true},{"bufferView":2,"byteOffset":160,"componentType":5123,"count":20578,"type":"VEC2"},{"bufferView":3,"byteOffset":120,"componentType":5123,"count":115962,"type":"SCALAR"},{"bufferView":0,"byteOffset":164944,"componentType":5123,"count":346,"type":"VEC3","min":[0,751,0],"max":[16383,1011,16336]},{"bufferView":1,"byteOffset":82472,"componentType":5120,"count":346,"type":"VEC3","normalized":true},{"bufferView":2,"byteOffset":82472,"componentType":5123,"count":346,"type":"VEC2"},{"bufferView":3,"byteOffset":232044,"componentType":5123,"count":726,"type":"SCALAR"},{"bufferView":0,"byteOffset":167712,"componentType":5123,"count":581,"type":"VEC3","min":[0,751,0],"max":[16383,1011,16336]},{"bufferView":1,"byteOffset":83856,"componentType":5120,"count":581,"type":"VEC3","normalized":true},{"bufferView":2,"byteOffset":83856,"componentType":5123,"count":581,"type":"VEC2"},{"bufferView":3,"byteOffset":233496,"componentType":5123,"count":1299,"type":"SCALAR"},{"bufferView":0,"byteOffset":172360,"componentType":5123,"count":76,"type":"VEC3","min":[2072,806,14289],"max":[7512,1011,16336]},{"bufferView":1,"byteOffset":86180,"componentType":5120,"count":76,"type":"VEC3","normalized":true},{"bufferView":2,"byteOffset":86180,"componentType":5123,"count":76,"type":"VEC2"},{"bufferView":3,"byteOffset":236094,"componentType":5123,"count":126,"type":"SCALAR"},{"bufferView":0,"byteOffset":172968,"componentType":5123,"count":68,"type":"VEC3","min":[0,806,8848],"max":[2072,1011,14289]},{"bufferView":1,"byteOffset":86484,"componentType":5120,"count":68,"type":"VEC3","normalized":true},{"bufferView":2,"byteOffset":86484,"componentType":5123,"count":68,"type":"VEC2"},{"bufferView":3,"byteOffset":236346,"componentType":5123,"count":120,"type":"SCALAR"},{"bufferView":0,"byteOffset":173512,"componentType":5123,"count":56,"type":"VEC3","min":[2072,751,7488],"max":[16383,1011,14289]},{"bufferView":1,"byteOffset":86756,"componentType":5120,"count":56,"type":"VEC3","normalized":true},{"bufferView":2,"byteOffset":86756,"componentType":5123,"count":56,"type":"VEC2"},{"bufferView":3,"byteOffset":236586,"componentType":5123,"count":90,"type":"SCALAR"},{"bufferView":0,"byteOffset":173960,"componentType":5123,"count":60,"type":"VEC3","min":[2072,873,0],"max":[7512,1011,2047]},{"bufferView":1,"byteOffset":86980,"componentType":5120,"count":60,"type":"VEC3","normalized":true},{"bufferView":2,"byteOffset":86980,"componentType":5123,"count":60,"type":"VEC2"},{"bufferView":3,"byteOffset":236766,"componentType":5123,"count":120,"type":"SCALAR"},{"bufferView":0,"byteOffset":174440,"componentType":5123,"count":68,"type":"VEC3","min":[8871,873,0],"max":[14311,1011,2047]},{"bufferView":1,"byteOffset":87220,"componentType":5120,"count":68,"type":"VEC3","normalized":true},{"bufferView":2,"byteOffset":87220,"componentType":5123,"count":68,"type":"VEC2"},{"bufferView":3,"byteOffset":237006,"componentType":5123,"count":132,"type":"SCALAR"},{"bufferView":0,"byteOffset":174984,"componentType":5123,"count":62,"type":"VEC3","min":[14311,806,2047],"max":[16383,1011,7488]},{"bufferView":1,"byteOffset":87492,"componentType":5120,"count":62,"type":"VEC3","normalized":true},{"bufferView":2,"byteOffset":87492,"componentType":5123,"count":62,"type":"VEC2"},{"bufferView":3,"byteOffset":237270,"componentType":5123,"count":132,"type":"SCALAR"},{"bufferView":0,"byteOffset":175480,"componentType":5123,"count":82,"type":"VEC3","min":[0,806,2047],"max":[2072,1011,7488]},{"bufferView":1,"byteOffset":87740,"componentType":5120,"count":82,"type":"VEC3","normalized":true},{"bufferView":2,"byteOffset":87740,"componentType":5123,"count":82,"type":"VEC2"},{"bufferView":3,"byteOffset":237534,"componentType":5123,"count":138,"type":"SCALAR"},{"bufferView":0,"byteOffset":176136,"componentType":5123,"count":8,"type":"VEC3","min":[4826,873,16336],"max":[10202,1011,16336]},{"bufferView":1,"byteOffset":88068,"componentType":5120,"count":8,"type":"VEC3","normalized":true},{"bufferView":2,"byteOffset":88068,"componentType":5123,"count":8,"type":"VEC2"},{"bufferView":3,"byteOffset":237810,"componentType":5123,"count":12,"type":"SCALAR"},{"bufferView":0,"byteOffset":176200,"componentType":5123,"count":72,"type":"VEC3","min":[0,873,0],"max":[16383,1011,16336]},{"bufferView":1,"byteOffset":88100,"componentType":5120,"count":72,"type":"VEC3","normalized":true},{"bufferView":2,"byteOffset":88100,"componentType":5123,"count":72,"type":"VEC2"},{"bufferView":3,"byteOffset":237834,"componentType":5123,"count":108,"type":"SCALAR"},{"bufferView":0,"byteOffset":176776,"componentType":5123,"count":52,"type":"VEC3","min":[110,661,87],"max":[16273,841,16249]},{"bufferView":1,"byteOffset":88388,"componentType":5120,"count":52,"type":"VEC3","normalized":true},{"bufferView":2,"byteOffset":88388,"componentType":5123,"count":52,"type":"VEC2"},{"bufferView":3,"byteOffset":238050,"componentType":5123,"count":78,"type":"SCALAR"}],"images":[{"uri":"chance.png"},{"uri":"caisse%20co.png"},{"uri":"taxe.png"},{"uri":"esenergie.png"},{"uri":"sdea.png"},{"uri":"brun.png"},{"uri":"mercury.png"},{"uri":"noir.png"},{"uri":"bleu_1.png"},{"uri":"grape.png"},{"uri":"blueberry.png"},{"uri":"rouge.png"},{"uri":"jaune.png"},{"uri":"spring.png"},{"uri":"orange.png"},{"uri":"bleu_chance.png"},{"uri":"blanc.png"}],"textures":[{"source":0},{"source":1},{"source":2},{"source":3},{"source":4},{"source":5},{"source":6},{"source":7},{"source":8},{"source":9},{"source":10},{"source":11},{"source":12},{"source":13},{"source":14},{"source":15},{"source":15},{"source":16}],"materials":[{"name":"chance","pbrMetallicRoughness":{"baseColorTexture":{"index":0,"texCoord":0,"extensions":{"KHR_texture_transform":{"offset":[0,0],"scale":[0.000244200259,0.000244200259]}}},"metallicFactor":0,"roughnessFactor":0.5},"doubleSided":true},{"name":"caisseco","pbrMetallicRoughness":{"baseColorTexture":{"index":1,"texCoord":0,"extensions":{"KHR_texture_transform":{"offset":[0,0],"scale":[0.000244200259,0.000244200259]}}},"metallicFactor":0,"roughnessFactor":0.5},"doubleSided":true},{"name":"TAXE","pbrMetallicRoughness":{"baseColorTexture":{"index":2,"texCoord":0,"extensions":{"KHR_texture_transform":{"offset":[0,0],"scale":[0.000244200259,0.000244200259]}}},"metallicFactor":0,"roughnessFactor":0.5},"doubleSided":true},{"name":"esenergie","pbrMetallicRoughness":{"baseColorTexture":{"index":3,"texCoord":0,"extensions":{"KHR_texture_transform":{"offset":[0,0],"scale":[0.000244200259,0.000244200259]}}},"metallicFactor":0,"roughnessFactor":0.5},"doubleSided":true},{"name":"sdea","pbrMetallicRoughness":{"baseColorTexture":{"index":4,"texCoord":0,"extensions":{"KHR_texture_transform":{"offset":[0,0],"scale":[0.000244200259,0.000244200259]}}},"metallicFactor":0,"roughnessFactor":0.5},"doubleSided":true},{"name":"brun","pbrMetallicRoughness":{"baseColorTexture":{"index":5,"texCoord":0,"extensions":{"KHR_texture_transform":{"offset":[0,-1.1920929e-07],"scale":[0.000244200317,0.000244200288]}}},"metallicFactor":0,"roughnessFactor":0.5},"doubleSided":true},{"name":"mercury","pbrMetallicRoughness":{"baseColorTexture":{"index":6,"texCoord":0,"extensions":{"KHR_texture_transform":{"offset":[0,0.25],"scale":[0.000213675215,0.000183150187]}}},"metallicFactor":0,"roughnessFactor":0.5},"doubleSided":true},{"name":"noir","pbrMetallicRoughness":{"baseColorFactor":[0.031064,0.031064,0.031064,1],"metallicFactor":0},"emissiveTexture":{"index":7,"texCoord":0,"extensions":{"KHR_texture_transform":{"offset":[0,0.25],"scale":[0.000213675215,0.000183150187]}}},"emissiveFactor":[1,1,1],"doubleSided":true},{"name":"bleu_1","pbrMetallicRoughness":{"baseColorTexture":{"index":8,"texCoord":0,"extensions":{"KHR_texture_transform":{"offset":[0.759615421,0.25],"scale":[1.87846181e-05,9.39232359e-06]}}},"metallicFactor":0,"roughnessFactor":0.5},"doubleSided":true},{"name":"grape","pbrMetallicRoughness":{"baseColorTexture":{"index":9,"texCoord":0,"extensions":{"KHR_texture_transform":{"offset":[0.836538374,0.288461447],"scale":[9.39233814e-06,1.87846472e-05]}}},"metallicFactor":0,"roughnessFactor":0.5},"doubleSided":true},{"name":"blueberry","pbrMetallicRoughness":{"baseColorTexture":{"index":10,"texCoord":0,"extensions":{"KHR_texture_transform":{"offset":[0,0.288461566],"scale":[0.000204282886,0.000173757857]}}},"metallicFactor":0,"roughnessFactor":0.5},"doubleSided":true},{"name":"rouge","pbrMetallicRoughness":{"baseColorTexture":{"index":11,"texCoord":0,"extensions":{"KHR_texture_transform":{"offset":[0.759615421,0.461538434],"scale":[1.87846181e-05,9.39232359e-06]}}},"metallicFactor":0,"roughnessFactor":0.5},"doubleSided":true},{"name":"jaune","pbrMetallicRoughness":{"baseColorTexture":{"index":12,"texCoord":0,"extensions":{"KHR_texture_transform":{"offset":[0.663461506,0.461538434],"scale":[1.87846472e-05,9.39232359e-06]}}},"metallicFactor":0,"roughnessFactor":0.5},"doubleSided":true},{"name":"spring","pbrMetallicRoughness":{"baseColorTexture":{"index":13,"texCoord":0,"extensions":{"KHR_texture_transform":{"offset":[0.625,0.384615362],"scale":[9.39232359e-06,1.87846326e-05]}}},"metallicFactor":0,"roughnessFactor":0.5},"doubleSided":true},{"name":"orange","pbrMetallicRoughness":{"baseColorTexture":{"index":14,"texCoord":0,"extensions":{"KHR_texture_transform":{"offset":[0.836538434,0.384615302],"scale":[9.39232359e-06,1.87846472e-05]}}},"metallicFactor":0,"roughnessFactor":0.5},"doubleSided":true},{"name":"chance.001","pbrMetallicRoughness":{"baseColorTexture":{"index":15,"texCoord":0,"extensions":{"KHR_texture_transform":{"offset":[0.721569657,0.25],"scale":[1.85661556e-05,1.45554697e-11]}}},"metallicFactor":0,"roughnessFactor":0.5},"doubleSided":true},{"name":"bleu_chance","pbrMetallicRoughness":{"baseColorTexture":{"index":16,"texCoord":0,"extensions":{"KHR_texture_transform":{"offset":[0,0.25],"scale":[0.000213675215,0.000183150187]}}},"metallicFactor":0,"roughnessFactor":0.5},"doubleSided":true},{"name":"blanc","pbrMetallicRoughness":{"baseColorTexture":{"index":17,"texCoord":0,"extensions":{"KHR_texture_transform":{"offset":[0.125,0],"scale":[0.000122100129,0.000244200259]}}},"metallicFactor":0,"roughnessFactor":0.5},"doubleSided":true}],"meshes":[{"primitives":[{"attributes":{"POSITION":0,"NORMAL":1,"TEXCOORD_0":2},"mode":4,"indices":3,"material":0},{"attributes":{"POSITION":4,"NORMAL":5,"TEXCOORD_0":6},"mode":4,"indices":7,"material":1},{"attributes":{"POSITION":8,"NORMAL":9,"TEXCOORD_0":10},"mode":4,"indices":11,"material":2},{"attributes":{"POSITION":12,"NORMAL":13,"TEXCOORD_0":14},"mode":4,"indices":15,"material":3},{"attributes":{"POSITION":16,"NORMAL":17,"TEXCOORD_0":18},"mode":4,"indices":19,"material":4},{"attributes":{"POSITION":20,"NORMAL":21,"TEXCOORD_0":22},"mode":4,"indices":23,"material":5},{"attributes":{"POSITION":24,"NORMAL":25,"TEXCOORD_0":26},"mode":4,"indices":27,"material":6},{"attributes":{"POSITION":28,"NORMAL":29,"TEXCOORD_0":30},"mode":4,"indices":31,"material":7},{"attributes":{"POSITION":32,"NORMAL":33,"TEXCOORD_0":34},"mode":4,"indices":35,"material":8},{"attributes":{"POSITION":36,"NORMAL":37,"TEXCOORD_0":38},"mode":4,"indices":39,"material":9},{"attributes":{"POSITION":40,"NORMAL":41,"TEXCOORD_0":42},"mode":4,"indices":43,"material":10},{"attributes":{"POSITION":44,"NORMAL":45,"TEXCOORD_0":46},"mode":4,"indices":47,"material":11},{"attributes":{"POSITION":48,"NORMAL":49,"TEXCOORD_0":50},"mode":4,"indices":51,"material":12},{"attributes":{"POSITION":52,"NORMAL":53,"TEXCOORD_0":54},"mode":4,"indices":55,"material":13},{"attributes":{"POSITION":56,"NORMAL":57,"TEXCOORD_0":58},"mode":4,"indices":59,"material":14},{"attributes":{"POSITION":60,"NORMAL":61,"TEXCOORD_0":62},"mode":4,"indices":63,"material":15},{"attributes":{"POSITION":64,"NORMAL":65,"TEXCOORD_0":66},"mode":4,"indices":67,"material":16},{"attributes":{"POSITION":68,"NORMAL":69,"TEXCOORD_0":70},"mode":4,"indices":71,"material":17}]}],"nodes":[{"mesh":0,"translation":[-2.03313494,-0.242634758,-2.02728128],"scale":[0.00024820058,0.00024820058,0.00024820058]}],"scenes":[{"nodes":[0]}],"scene":0}