{
    "asset" : {
        "generator" : "Khronos glTF Blender I/O v1.1.45",
        "version" : "2.0"
    },
    "scene" : 0,
    "scenes" : [
        {
            "name" : "Scene",
            "nodes" : [
                0
            ]
        }
    ],
    "nodes" : [
        {
            "mesh" : 0,
            "name" : "Cube.015",
            "rotation" : [
                0.7071068286895752,
                0,
                0,
                0.7071067094802856
            ],
            "scale" : [
                0.04706943780183792,
                0.04706943780183792,
                0.04706943780183792
            ],
            "translation" : [
                1.2397147417068481,
                0.020146917551755905,
                1.390053629875183
            ]
        }
    ],
    "materials" : [
        {
            "doubleSided" : true,
            "emissiveFactor" : [
                0,
                0,
                0
            ],
            "name" : "Material.001",
            "pbrMetallicRoughness" : {
                "baseColorTexture" : {
                    "index" : 0,
                    "texCoord" : 0
                },
                "metallicFactor" : 0,
                "roughnessFactor" : 0.4000000059604645
            }
        },
        {
            "doubleSided" : true,
            "emissiveFactor" : [
                0,
                0,
                0
            ],
            "name" : "Material.010",
            "pbrMetallicRoughness" : {
                "baseColorTexture" : {
                    "index" : 1,
                    "texCoord" : 0
                },
                "metallicFactor" : 0,
                "roughnessFactor" : 0.5
            }
        },
        {
            "doubleSided" : true,
            "emissiveFactor" : [
                0,
                0,
                0
            ],
            "name" : "Material.011",
            "pbrMetallicRoughness" : {
                "baseColorTexture" : {
                    "index" : 2,
                    "texCoord" : 0
                },
                "metallicFactor" : 0,
                "roughnessFactor" : 0.5
            }
        },
        {
            "doubleSided" : true,
            "emissiveFactor" : [
                0,
                0,
                0
            ],
            "name" : "noir.001",
            "pbrMetallicRoughness" : {
                "baseColorTexture" : {
                    "index" : 3,
                    "texCoord" : 0
                },
                "metallicFactor" : 0,
                "roughnessFactor" : 0.5
            }
        },
        {
            "doubleSided" : true,
            "emissiveFactor" : [
                0,
                0,
                0
            ],
            "name" : "Material.012",
            "pbrMetallicRoughness" : {
                "baseColorTexture" : {
                    "index" : 4,
                    "texCoord" : 0
                },
                "metallicFactor" : 0,
                "roughnessFactor" : 0.5
            }
        },
        {
            "doubleSided" : true,
            "emissiveFactor" : [
                0,
                0,
                0
            ],
            "name" : "gris1.001",
            "pbrMetallicRoughness" : {
                "baseColorTexture" : {
                    "index" : 5,
                    "texCoord" : 0
                },
                "metallicFactor" : 0,
                "roughnessFactor" : 0.5
            }
        },
        {
            "doubleSided" : true,
            "emissiveFactor" : [
                0,
                0,
                0
            ],
            "name" : "saumon.001",
            "pbrMetallicRoughness" : {
                "baseColorTexture" : {
                    "index" : 6,
                    "texCoord" : 0
                },
                "metallicFactor" : 0,
                "roughnessFactor" : 0.5
            }
        },
        {
            "doubleSided" : true,
            "emissiveFactor" : [
                0,
                0,
                0
            ],
            "name" : "brun.002",
            "pbrMetallicRoughness" : {
                "baseColorTexture" : {
                    "index" : 7,
                    "texCoord" : 0
                },
                "metallicFactor" : 0,
                "roughnessFactor" : 0.5
            }
        },
        {
            "doubleSided" : true,
            "emissiveFactor" : [
                0,
                0,
                0
            ],
            "name" : "vitre.001",
            "pbrMetallicRoughness" : {
                "baseColorTexture" : {
                    "index" : 8,
                    "texCoord" : 0
                },
                "metallicFactor" : 0,
                "roughnessFactor" : 0.5
            }
        }
    ],
    "meshes" : [
        {
            "name" : "Cube",
            "primitives" : [
                {
                    "attributes" : {
                        "POSITION" : 0,
                        "NORMAL" : 1,
                        "TEXCOORD_0" : 2
                    },
                    "indices" : 3,
                    "material" : 0
                },
                {
                    "attributes" : {
                        "POSITION" : 4,
                        "NORMAL" : 5,
                        "TEXCOORD_0" : 6
                    },
                    "indices" : 7,
                    "material" : 1
                },
                {
                    "attributes" : {
                        "POSITION" : 8,
                        "NORMAL" : 9,
                        "TEXCOORD_0" : 10
                    },
                    "indices" : 11,
                    "material" : 2
                },
                {
                    "attributes" : {
                        "POSITION" : 12,
                        "NORMAL" : 13,
                        "TEXCOORD_0" : 14
                    },
                    "indices" : 15,
                    "material" : 3
                },
                {
                    "attributes" : {
                        "POSITION" : 16,
                        "NORMAL" : 17,
                        "TEXCOORD_0" : 18
                    },
                    "indices" : 19,
                    "material" : 4
                },
                {
                    "attributes" : {
                        "POSITION" : 20,
                        "NORMAL" : 21,
                        "TEXCOORD_0" : 22
                    },
                    "indices" : 23,
                    "material" : 5
                },
                {
                    "attributes" : {
                        "POSITION" : 24,
                        "NORMAL" : 25,
                        "TEXCOORD_0" : 26
                    },
                    "indices" : 27,
                    "material" : 6
                },
                {
                    "attributes" : {
                        "POSITION" : 28,
                        "NORMAL" : 29,
                        "TEXCOORD_0" : 30
                    },
                    "indices" : 31,
                    "material" : 7
                },
                {
                    "attributes" : {
                        "POSITION" : 32,
                        "NORMAL" : 33,
                        "TEXCOORD_0" : 34
                    },
                    "indices" : 35,
                    "material" : 8
                }
            ]
        }
    ],
    "textures" : [
        {
            "source" : 0
        },
        {
            "source" : 1
        },
        {
            "source" : 2
        },
        {
            "source" : 3
        },
        {
            "source" : 4
        },
        {
            "source" : 5
        },
        {
            "source" : 6
        },
        {
            "source" : 0
        },
        {
            "source" : 7
        }
    ],
    "images" : [
        {
            "mimeType" : "image/png",
            "name" : "brun",
            "uri" : "brun.png"
        },
        {
            "mimeType" : "image/png",
            "name" : "sea_foam",
            "uri" : "sea_foam.png"
        },
        {
            "mimeType" : "image/png",
            "name" : "lead",
            "uri" : "lead.png"
        },
        {
            "mimeType" : "image/png",
            "name" : "noir",
            "uri" : "noir.png"
        },
        {
            "mimeType" : "image/png",
            "name" : "banane",
            "uri" : "banane.png"
        },
        {
            "mimeType" : "image/png",
            "name" : "gris",
            "uri" : "gris.png"
        },
        {
            "mimeType" : "image/png",
            "name" : "saumon",
            "uri" : "saumon.png"
        },
        {
            "mimeType" : "image/png",
            "name" : "sky",
            "uri" : "sky.png"
        }
    ],
    "accessors" : [
        {
            "bufferView" : 0,
            "componentType" : 5126,
            "count" : 17962,
            "max" : [
                4.400759220123291,
                1.249776005744934,
                1
            ],
            "min" : [
                -4.400759220123291,
                -11.918713569641113,
                -11
            ],
            "type" : "VEC3"
        },
        {
            "bufferView" : 1,
            "componentType" : 5126,
            "count" : 17962,
            "type" : "VEC3"
        },
        {
            "bufferView" : 2,
            "componentType" : 5126,
            "count" : 17962,
            "type" : "VEC2"
        },
        {
            "bufferView" : 3,
            "componentType" : 5123,
            "count" : 44610,
            "type" : "SCALAR"
        },
        {
            "bufferView" : 4,
            "componentType" : 5126,
            "count" : 401,
            "max" : [
                4.400759220123291,
                0.9161670207977295,
                -1
            ],
            "min" : [
                -4.400759220123291,
                -11.918713569641113,
                -5.331608772277832
            ],
            "type" : "VEC3"
        },
        {
            "bufferView" : 5,
            "componentType" : 5126,
            "count" : 401,
            "type" : "VEC3"
        },
        {
            "bufferView" : 6,
            "componentType" : 5126,
            "count" : 401,
            "type" : "VEC2"
        },
        {
            "bufferView" : 7,
            "componentType" : 5123,
            "count" : 999,
            "type" : "SCALAR"
        },
        {
            "bufferView" : 8,
            "componentType" : 5126,
            "count" : 104,
            "max" : [
                0.9049999713897705,
                -7.828390121459961,
                -4.8914079666137695
            ],
            "min" : [
                -0.8999999761581421,
                -9.918713569641113,
                -6.192253112792969
            ],
            "type" : "VEC3"
        },
        {
            "bufferView" : 9,
            "componentType" : 5126,
            "count" : 104,
            "type" : "VEC3"
        },
        {
            "bufferView" : 10,
            "componentType" : 5126,
            "count" : 104,
            "type" : "VEC2"
        },
        {
            "bufferView" : 11,
            "componentType" : 5123,
            "count" : 198,
            "type" : "SCALAR"
        },
        {
            "bufferView" : 12,
            "componentType" : 5126,
            "count" : 512,
            "max" : [
                2.780216932296753,
                1.0248490571975708,
                0.6483410000801086
            ],
            "min" : [
                -2.776930093765259,
                -9.692852973937988,
                -4.465415954589844
            ],
            "type" : "VEC3"
        },
        {
            "bufferView" : 13,
            "componentType" : 5126,
            "count" : 512,
            "type" : "VEC3"
        },
        {
            "bufferView" : 14,
            "componentType" : 5126,
            "count" : 512,
            "type" : "VEC2"
        },
        {
            "bufferView" : 15,
            "componentType" : 5123,
            "count" : 960,
            "type" : "SCALAR"
        },
        {
            "bufferView" : 16,
            "componentType" : 5126,
            "count" : 30,
            "max" : [
                2.636596918106079,
                0.9161670207977295,
                -4.9437479972839355
            ],
            "min" : [
                0.804265022277832,
                -0.9161649942398071,
                -5.2175469398498535
            ],
            "type" : "VEC3"
        },
        {
            "bufferView" : 17,
            "componentType" : 5126,
            "count" : 30,
            "type" : "VEC3"
        },
        {
            "bufferView" : 18,
            "componentType" : 5126,
            "count" : 30,
            "type" : "VEC2"
        },
        {
            "bufferView" : 19,
            "componentType" : 5123,
            "count" : 54,
            "type" : "SCALAR"
        },
        {
            "bufferView" : 20,
            "componentType" : 5126,
            "count" : 86152,
            "max" : [
                5.6979827880859375,
                2.2268056869506836,
                0.9780036807060242
            ],
            "min" : [
                -58.287879943847656,
                -61.5038948059082,
                -1.1403592824935913
            ],
            "type" : "VEC3"
        },
        {
            "bufferView" : 21,
            "componentType" : 5126,
            "count" : 86152,
            "type" : "VEC3"
        },
        {
            "bufferView" : 22,
            "componentType" : 5126,
            "count" : 86152,
            "type" : "VEC2"
        },
        {
            "bufferView" : 23,
            "componentType" : 5125,
            "count" : 149520,
            "type" : "SCALAR"
        },
        {
            "bufferView" : 24,
            "componentType" : 5126,
            "count" : 108936,
            "max" : [
                5.756728172302246,
                2.290682315826416,
                0.9060569405555725
            ],
            "min" : [
                -58.34662628173828,
                -61.519554138183594,
                -1.0014342069625854
            ],
            "type" : "VEC3"
        },
        {
            "bufferView" : 25,
            "componentType" : 5126,
            "count" : 108936,
            "type" : "VEC3"
        },
        {
            "bufferView" : 26,
            "componentType" : 5126,
            "count" : 108936,
            "type" : "VEC2"
        },
        {
            "bufferView" : 27,
            "componentType" : 5125,
            "count" : 222144,
            "type" : "SCALAR"
        },
        {
            "bufferView" : 28,
            "componentType" : 5126,
            "count" : 418656,
            "max" : [
                5.79332971572876,
                2.329777717590332,
                0.9223228693008423
            ],
            "min" : [
                -58.38322830200195,
                -61.54878234863281,
                -1.0509227514266968
            ],
            "type" : "VEC3"
        },
        {
            "bufferView" : 29,
            "componentType" : 5126,
            "count" : 418656,
            "type" : "VEC3"
        },
        {
            "bufferView" : 30,
            "componentType" : 5126,
            "count" : 418656,
            "type" : "VEC2"
        },
        {
            "bufferView" : 31,
            "componentType" : 5125,
            "count" : 1076544,
            "type" : "SCALAR"
        },
        {
            "bufferView" : 32,
            "componentType" : 5126,
            "count" : 56960,
            "max" : [
                5.754211902618408,
                2.282608985900879,
                0.674356997013092
            ],
            "min" : [
                -58.344112396240234,
                -61.519805908203125,
                -0.5505969524383545
            ],
            "type" : "VEC3"
        },
        {
            "bufferView" : 33,
            "componentType" : 5126,
            "count" : 56960,
            "type" : "VEC3"
        },
        {
            "bufferView" : 34,
            "componentType" : 5126,
            "count" : 56960,
            "type" : "VEC2"
        },
        {
            "bufferView" : 35,
            "componentType" : 5123,
            "count" : 85440,
            "type" : "SCALAR"
        }
    ],
    "bufferViews" : [
        {
            "buffer" : 0,
            "byteLength" : 215544,
            "byteOffset" : 0
        },
        {
            "buffer" : 0,
            "byteLength" : 215544,
            "byteOffset" : 215544
        },
        {
            "buffer" : 0,
            "byteLength" : 143696,
            "byteOffset" : 431088
        },
        {
            "buffer" : 0,
            "byteLength" : 89220,
            "byteOffset" : 574784
        },
        {
            "buffer" : 0,
            "byteLength" : 4812,
            "byteOffset" : 664004
        },
        {
            "buffer" : 0,
            "byteLength" : 4812,
            "byteOffset" : 668816
        },
        {
            "buffer" : 0,
            "byteLength" : 3208,
            "byteOffset" : 673628
        },
        {
            "buffer" : 0,
            "byteLength" : 1998,
            "byteOffset" : 676836
        },
        {
            "buffer" : 0,
            "byteLength" : 1248,
            "byteOffset" : 678836
        },
        {
            "buffer" : 0,
            "byteLength" : 1248,
            "byteOffset" : 680084
        },
        {
            "buffer" : 0,
            "byteLength" : 832,
            "byteOffset" : 681332
        },
        {
            "buffer" : 0,
            "byteLength" : 396,
            "byteOffset" : 682164
        },
        {
            "buffer" : 0,
            "byteLength" : 6144,
            "byteOffset" : 682560
        },
        {
            "buffer" : 0,
            "byteLength" : 6144,
            "byteOffset" : 688704
        },
        {
            "buffer" : 0,
            "byteLength" : 4096,
            "byteOffset" : 694848
        },
        {
            "buffer" : 0,
            "byteLength" : 1920,
            "byteOffset" : 698944
        },
        {
            "buffer" : 0,
            "byteLength" : 360,
            "byteOffset" : 700864
        },
        {
            "buffer" : 0,
            "byteLength" : 360,
            "byteOffset" : 701224
        },
        {
            "buffer" : 0,
            "byteLength" : 240,
            "byteOffset" : 701584
        },
        {
            "buffer" : 0,
            "byteLength" : 108,
            "byteOffset" : 701824
        },
        {
            "buffer" : 0,
            "byteLength" : 1033824,
            "byteOffset" : 701932
        },
        {
            "buffer" : 0,
            "byteLength" : 1033824,
            "byteOffset" : 1735756
        },
        {
            "buffer" : 0,
            "byteLength" : 689216,
            "byteOffset" : 2769580
        },
        {
            "buffer" : 0,
            "byteLength" : 598080,
            "byteOffset" : 3458796
        },
        {
            "buffer" : 0,
            "byteLength" : 1307232,
            "byteOffset" : 4056876
        },
        {
            "buffer" : 0,
            "byteLength" : 1307232,
            "byteOffset" : 5364108
        },
        {
            "buffer" : 0,
            "byteLength" : 871488,
            "byteOffset" : 6671340
        },
        {
            "buffer" : 0,
            "byteLength" : 888576,
            "byteOffset" : 7542828
        },
        {
            "buffer" : 0,
            "byteLength" : 5023872,
            "byteOffset" : 8431404
        },
        {
            "buffer" : 0,
            "byteLength" : 5023872,
            "byteOffset" : 13455276
        },
        {
            "buffer" : 0,
            "byteLength" : 3349248,
            "byteOffset" : 18479148
        },
        {
            "buffer" : 0,
            "byteLength" : 4306176,
            "byteOffset" : 21828396
        },
        {
            "buffer" : 0,
            "byteLength" : 683520,
            "byteOffset" : 26134572
        },
        {
            "buffer" : 0,
            "byteLength" : 683520,
            "byteOffset" : 26818092
        },
        {
            "buffer" : 0,
            "byteLength" : 455680,
            "byteOffset" : 27501612
        },
        {
            "buffer" : 0,
            "byteLength" : 170880,
            "byteOffset" : 27957292
        }
    ],
    "buffers" : [
        {
            "byteLength" : 28128172,
            "uri" : "maison.bin"
        }
    ]
}
