{"buffers":[{"uri":"maison.bin","byteLength":3209596}],"asset":{"version":"2.0","generator":"gltfpack 0.14"},"extensionsUsed":["KHR_mesh_quantization","KHR_texture_transform"],"extensionsRequired":["KHR_mesh_quantization"],"bufferViews":[{"buffer":0,"byteOffset":0,"byteLength":1093520,"byteStride":8,"target":34962},{"buffer":0,"byteOffset":1093520,"byteLength":546760,"byteStride":4,"target":34962},{"buffer":0,"byteOffset":1640280,"byteLength":546760,"byteStride":4,"target":34962},{"buffer":0,"byteOffset":2187040,"byteLength":258156,"target":34963},{"buffer":0,"byteOffset":2445196,"byteLength":764400,"target":34963}],"accessors":[{"bufferView":0,"byteOffset":0,"componentType":5123,"count":11858,"type":"VEC3","min":[18,231,41],"max":[16365,1045,16216]},{"bufferView":1,"byteOffset":0,"componentType":5120,"count":11858,"type":"VEC3","normalized":true},{"bufferView":2,"byteOffset":0,"componentType":5123,"count":11858,"type":"VEC2"},{"bufferView":3,"byteOffset":0,"componentType":5123,"count":20580,"type":"SCALAR"},{"bufferView":0,"byteOffset":94864,"componentType":5123,"count":20482,"type":"VEC3","min":[11,259,16],"max":[16372,1017,16241]},{"bufferView":1,"byteOffset":47432,"componentType":5120,"count":20482,"type":"VEC3","normalized":true},{"bufferView":2,"byteOffset":47432,"componentType":5123,"count":20482,"type":"VEC2"},{"bufferView":3,"byteOffset":41160,"componentType":5123,"count":44688,"type":"SCALAR"},{"bufferView":0,"byteOffset":258720,"componentType":5123,"count":73696,"type":"VEC3","min":[0,278,0],"max":[16383,1036,16257]},{"bufferView":1,"byteOffset":129360,"componentType":5120,"count":73696,"type":"VEC3","normalized":true},{"bufferView":2,"byteOffset":129360,"componentType":5123,"count":73696,"type":"VEC2"},{"bufferView":4,"byteOffset":0,"componentType":5125,"count":191100,"type":"SCALAR"},{"bufferView":0,"byteOffset":848288,"componentType":5123,"count":12544,"type":"VEC3","min":[11,371,18],"max":[16372,837,16238]},{"bufferView":1,"byteOffset":424144,"componentType":5120,"count":12544,"type":"VEC3","normalized":true},{"bufferView":2,"byteOffset":424144,"componentType":5123,"count":12544,"type":"VEC2"},{"bufferView":3,"byteOffset":130536,"componentType":5123,"count":18816,"type":"SCALAR"},{"bufferView":0,"byteOffset":948640,"componentType":5123,"count":17241,"type":"VEC3","min":[13175,0,11725],"max":[15466,3124,15153]},{"bufferView":1,"byteOffset":474320,"componentType":5120,"count":17241,"type":"VEC3","normalized":true},{"bufferView":2,"byteOffset":474320,"componentType":5123,"count":17241,"type":"VEC2"},{"bufferView":3,"byteOffset":168168,"componentType":5123,"count":43059,"type":"SCALAR"},{"bufferView":0,"byteOffset":1086568,"componentType":5123,"count":381,"type":"VEC3","min":[13175,521,11725],"max":[15466,1288,14568]},{"bufferView":1,"byteOffset":543284,"componentType":5120,"count":381,"type":"VEC3","normalized":true},{"bufferView":2,"byteOffset":543284,"componentType":5123,"count":381,"type":"VEC2"},{"bufferView":3,"byteOffset":254286,"componentType":5123,"count":969,"type":"SCALAR"},{"bufferView":0,"byteOffset":1089616,"componentType":5123,"count":104,"type":"VEC3","min":[14086,1534,12246],"max":[14556,1872,12790]},{"bufferView":1,"byteOffset":544808,"componentType":5120,"count":104,"type":"VEC3","normalized":true},{"bufferView":2,"byteOffset":544808,"componentType":5123,"count":104,"type":"VEC2"},{"bufferView":3,"byteOffset":256224,"componentType":5123,"count":198,"type":"SCALAR"},{"bufferView":0,"byteOffset":1090448,"componentType":5123,"count":384,"type":"VEC3","min":[13598,92,12305],"max":[15044,1423,15067]},{"bufferView":1,"byteOffset":545224,"componentType":5120,"count":384,"type":"VEC3","normalized":true},{"bufferView":2,"byteOffset":545224,"componentType":5123,"count":384,"type":"VEC2"},{"bufferView":3,"byteOffset":256620,"componentType":5123,"count":768,"type":"SCALAR"}],"images":[{"uri":"gris.png"},{"uri":"saumon.png"},{"uri":"brun.png"},{"uri":"sky.png"},{"uri":"sea_foam.png"},{"uri":"lead.png"},{"uri":"noir.png"}],"textures":[{"source":0},{"source":1},{"source":2},{"source":3},{"source":2},{"source":4},{"source":5},{"source":6}],"materials":[{"name":"gris1.001","pbrMetallicRoughness":{"baseColorTexture":{"index":0,"texCoord":0,"extensions":{"KHR_texture_transform":{"offset":[0,0],"scale":[0.000231750179,0.000244200259]}}},"metallicFactor":0,"roughnessFactor":0.5},"doubleSided":true},{"name":"saumon.024","pbrMetallicRoughness":{"baseColorTexture":{"index":1,"texCoord":0,"extensions":{"KHR_texture_transform":{"offset":[0.0125299999,0.197007],"scale":[0.000196751396,0.000193162399]}}},"metallicFactor":0,"roughnessFactor":0.5},"doubleSided":true},{"name":"brun.091","pbrMetallicRoughness":{"baseColorTexture":{"index":2,"texCoord":0,"extensions":{"KHR_texture_transform":{"offset":[0,0],"scale":[0.000244200259,0.000244200259]}}},"metallicFactor":0,"roughnessFactor":0.5},"doubleSided":true},{"name":"vitre.001","pbrMetallicRoughness":{"baseColorTexture":{"index":3,"texCoord":0,"extensions":{"KHR_texture_transform":{"offset":[0.390650988,0.751227021],"scale":[3.94771669e-05,5.32227132e-05]}}},"metallicFactor":0,"roughnessFactor":0.5},"doubleSided":true},{"name":"Material.027","pbrMetallicRoughness":{"baseColorTexture":{"index":4,"texCoord":0,"extensions":{"KHR_texture_transform":{"offset":[0.125,0],"scale":[0.000183150187,0.000244200259]}}},"metallicFactor":0,"roughnessFactor":0.400000006},"doubleSided":true},{"name":"Material.028","pbrMetallicRoughness":{"baseColorTexture":{"index":5,"texCoord":0,"extensions":{"KHR_texture_transform":{"offset":[0.625,0.5],"scale":[0,6.10500647e-05]}}},"metallicFactor":0,"roughnessFactor":0.5},"doubleSided":true},{"name":"Material.029","pbrMetallicRoughness":{"baseColorTexture":{"index":6,"texCoord":0,"extensions":{"KHR_texture_transform":{"offset":[0.625,0.511875033],"scale":[0,5.50976765e-05]}}},"metallicFactor":0,"roughnessFactor":0.5},"doubleSided":true},{"name":"noir.005","pbrMetallicRoughness":{"baseColorTexture":{"index":7,"texCoord":0,"extensions":{"KHR_texture_transform":{"offset":[0.625,0],"scale":[0,6.10500647e-05]}}},"metallicFactor":0,"roughnessFactor":0.5},"doubleSided":true}],"meshes":[{"primitives":[{"attributes":{"POSITION":0,"NORMAL":1,"TEXCOORD_0":2},"mode":4,"indices":3,"material":0},{"attributes":{"POSITION":4,"NORMAL":5,"TEXCOORD_0":6},"mode":4,"indices":7,"material":1},{"attributes":{"POSITION":8,"NORMAL":9,"TEXCOORD_0":10},"mode":4,"indices":11,"material":2},{"attributes":{"POSITION":12,"NORMAL":13,"TEXCOORD_0":14},"mode":4,"indices":15,"material":3},{"attributes":{"POSITION":16,"NORMAL":17,"TEXCOORD_0":18},"mode":4,"indices":19,"material":4},{"attributes":{"POSITION":20,"NORMAL":21,"TEXCOORD_0":22},"mode":4,"indices":23,"material":5},{"attributes":{"POSITION":24,"NORMAL":25,"TEXCOORD_0":26},"mode":4,"indices":27,"material":6},{"attributes":{"POSITION":28,"NORMAL":29,"TEXCOORD_0":30},"mode":4,"indices":31,"material":7}]}],"nodes":[{"mesh":0,"translation":[-1.50516355,-0.0474293903,-1.47421193],"scale":[0.000182195188,0.000182195188,0.000182195188]}],"scenes":[{"nodes":[0]}],"scene":0}