{"buffers":[{"uri":"orangerie.bin","byteLength":258964}],"asset":{"version":"2.0","generator":"gltfpack 0.14"},"extensionsUsed":["KHR_mesh_quantization","KHR_texture_transform"],"extensionsRequired":["KHR_mesh_quantization"],"bufferViews":[{"buffer":0,"byteOffset":0,"byteLength":109616,"byteStride":8,"target":34962},{"buffer":0,"byteOffset":109616,"byteLength":54808,"byteStride":4,"target":34962},{"buffer":0,"byteOffset":164424,"byteLength":54808,"byteStride":4,"target":34962},{"buffer":0,"byteOffset":219232,"byteLength":39732,"target":34963}],"accessors":[{"bufferView":0,"byteOffset":0,"componentType":5123,"count":52,"type":"VEC3","min":[140,0,69],"max":[16383,181,16312]},{"bufferView":1,"byteOffset":0,"componentType":5120,"count":52,"type":"VEC3","normalized":true},{"bufferView":2,"byteOffset":0,"componentType":5123,"count":52,"type":"VEC2"},{"bufferView":3,"byteOffset":0,"componentType":5123,"count":78,"type":"SCALAR"},{"bufferView":0,"byteOffset":416,"componentType":5123,"count":7522,"type":"VEC3","min":[152,211,118],"max":[16314,815,14147]},{"bufferView":1,"byteOffset":208,"componentType":5120,"count":7522,"type":"VEC3","normalized":true},{"bufferView":2,"byteOffset":208,"componentType":5123,"count":7522,"type":"VEC2"},{"bufferView":3,"byteOffset":156,"componentType":5123,"count":10872,"type":"SCALAR"},{"bufferView":0,"byteOffset":60592,"componentType":5123,"count":2080,"type":"VEC3","min":[102,211,102],"max":[16212,494,14045]},{"bufferView":1,"byteOffset":30296,"componentType":5120,"count":2080,"type":"VEC3","normalized":true},{"bufferView":2,"byteOffset":30296,"componentType":5123,"count":2080,"type":"VEC2"},{"bufferView":3,"byteOffset":21900,"componentType":5123,"count":3120,"type":"SCALAR"},{"bufferView":0,"byteOffset":77232,"componentType":5123,"count":4048,"type":"VEC3","min":[0,211,0],"max":[13867,815,13915]},{"bufferView":1,"byteOffset":38616,"componentType":5120,"count":4048,"type":"VEC3","normalized":true},{"bufferView":2,"byteOffset":38616,"componentType":5123,"count":4048,"type":"VEC2"},{"bufferView":3,"byteOffset":28140,"componentType":5123,"count":5796,"type":"SCALAR"}],"images":[{"uri":"blanc.png"},{"uri":"vert.png"},{"uri":"brun.png"},{"uri":"orange.png"}],"textures":[{"source":0},{"source":1},{"source":2},{"source":3}],"materials":[{"name":"blanc","pbrMetallicRoughness":{"baseColorTexture":{"index":0,"texCoord":0,"extensions":{"KHR_texture_transform":{"offset":[0.125,0],"scale":[0.000122100129,0.000244200259]}}},"metallicFactor":0,"roughnessFactor":0.5},"doubleSided":true},{"name":"vert","pbrMetallicRoughness":{"baseColorTexture":{"index":1,"texCoord":0,"extensions":{"KHR_texture_transform":{"offset":[0,0],"scale":[0.000244200259,0.000244200259]}}},"metallicFactor":0,"roughnessFactor":0.5},"doubleSided":true},{"name":"brun","pbrMetallicRoughness":{"baseColorTexture":{"index":2,"texCoord":0,"extensions":{"KHR_texture_transform":{"offset":[0.375,0],"scale":[6.10500647e-05,0.000244200259]}}},"metallicFactor":0,"roughnessFactor":0.5},"doubleSided":true},{"name":"orange","pbrMetallicRoughness":{"baseColorTexture":{"index":3,"texCoord":0,"extensions":{"KHR_texture_transform":{"offset":[0.125,0],"scale":[0.000183150187,0.000244200259]}}},"metallicFactor":0,"roughnessFactor":0.5},"doubleSided":true}],"meshes":[{"primitives":[{"attributes":{"POSITION":0,"NORMAL":1,"TEXCOORD_0":2},"mode":4,"indices":3,"material":0},{"attributes":{"POSITION":4,"NORMAL":5,"TEXCOORD_0":6},"mode":4,"indices":7,"material":1},{"attributes":{"POSITION":8,"NORMAL":9,"TEXCOORD_0":10},"mode":4,"indices":11,"material":2},{"attributes":{"POSITION":12,"NORMAL":13,"TEXCOORD_0":14},"mode":4,"indices":15,"material":3}]}],"nodes":[{"mesh":0,"translation":[-2.04020762,-0.078648001,-2.022789],"scale":[0.00024695936,0.00024695936,0.00024695936]}],"scenes":[{"nodes":[0]}],"scene":0}