{"buffers":[{"uri":"pont.bin","byteLength":40724}],"asset":{"version":"2.0","generator":"gltfpack 0.14"},"extensionsUsed":["KHR_mesh_quantization","KHR_texture_transform"],"extensionsRequired":["KHR_mesh_quantization"],"bufferViews":[{"buffer":0,"byteOffset":0,"byteLength":17056,"byteStride":8,"target":34962},{"buffer":0,"byteOffset":17056,"byteLength":8528,"byteStride":4,"target":34962},{"buffer":0,"byteOffset":25584,"byteLength":8528,"byteStride":4,"target":34962},{"buffer":0,"byteOffset":34112,"byteLength":6612,"target":34963}],"accessors":[{"bufferView":0,"byteOffset":0,"componentType":5123,"count":1208,"type":"VEC3","min":[0,0,0],"max":[8759,172,11212]},{"bufferView":1,"byteOffset":0,"componentType":5120,"count":1208,"type":"VEC3","normalized":true},{"bufferView":2,"byteOffset":0,"componentType":5123,"count":1208,"type":"VEC2"},{"bufferView":3,"byteOffset":0,"componentType":5123,"count":1950,"type":"SCALAR"},{"bufferView":0,"byteOffset":9664,"componentType":5123,"count":128,"type":"VEC3","min":[2995,168,2742],"max":[4582,182,4329]},{"bufferView":1,"byteOffset":4832,"componentType":5120,"count":128,"type":"VEC3","normalized":true},{"bufferView":2,"byteOffset":4832,"componentType":5123,"count":128,"type":"VEC2"},{"bufferView":3,"byteOffset":3900,"componentType":5123,"count":192,"type":"SCALAR"},{"bufferView":0,"byteOffset":10688,"componentType":5123,"count":796,"type":"VEC3","min":[3041,68,2788],"max":[16383,228,5121]},{"bufferView":1,"byteOffset":5344,"componentType":5120,"count":796,"type":"VEC3","normalized":true},{"bufferView":2,"byteOffset":5344,"componentType":5123,"count":796,"type":"VEC2"},{"bufferView":3,"byteOffset":4284,"componentType":5123,"count":1164,"type":"SCALAR"}],"images":[{"uri":"vert.png"},{"uri":"tangerine.png"}],"textures":[{"source":0},{"source":1},{"source":0}],"materials":[{"name":"Material.017","pbrMetallicRoughness":{"baseColorTexture":{"index":0,"texCoord":0,"extensions":{"KHR_texture_transform":{"offset":[0,0],"scale":[0.000213675215,0.000244200259]}}},"metallicFactor":0,"roughnessFactor":0.5},"doubleSided":true},{"name":"tangerine","pbrMetallicRoughness":{"baseColorTexture":{"index":1,"texCoord":0,"extensions":{"KHR_texture_transform":{"offset":[0,0.374999881],"scale":[0.000244200288,1.52625453e-05]}}},"metallicFactor":0,"roughnessFactor":0.5},"doubleSided":true},{"name":"vert","pbrMetallicRoughness":{"baseColorTexture":{"index":2,"texCoord":0,"extensions":{"KHR_texture_transform":{"offset":[0,0],"scale":[0.000244200317,0.000244200259]}}},"metallicFactor":0,"roughnessFactor":0.5},"doubleSided":true}],"meshes":[{"primitives":[{"attributes":{"POSITION":0,"NORMAL":1,"TEXCOORD_0":2},"mode":4,"indices":3,"material":0},{"attributes":{"POSITION":4,"NORMAL":5,"TEXCOORD_0":6},"mode":4,"indices":7,"material":1},{"attributes":{"POSITION":8,"NORMAL":9,"TEXCOORD_0":10},"mode":4,"indices":11,"material":2}]}],"nodes":[{"mesh":0,"translation":[-0.457074583,-0.0446608327,-0.426524371],"scale":[0.000120644137,0.000120644137,0.000120644137]}],"scenes":[{"nodes":[0]}],"scene":0}