{
    "asset" : {
        "generator" : "Khronos glTF Blender I/O v1.1.45",
        "version" : "2.0"
    },
    "scene" : 0,
    "scenes" : [
        {
            "name" : "Scene",
            "nodes" : [
                0,
                1,
                2,
                3,
                4,
                5,
                6,
                7
            ]
        }
    ],
    "nodes" : [
        {
            "mesh" : 0,
            "name" : "rail1"
        },
        {
            "mesh" : 1,
            "name" : "rail2",
            "rotation" : [
                0,
                -0.7031155824661255,
                0,
                0.7110755443572998
            ]
        },
        {
            "mesh" : 2,
            "name" : "rail3",
            "rotation" : [
                0,
                -0.9999870657920837,
                0,
                -0.005086682271212339
            ]
        },
        {
            "mesh" : 3,
            "name" : "rail4",
            "rotation" : [
                0,
                -0.7079924941062927,
                0,
                -0.7062199711799622
            ]
        },
        {
            "mesh" : 4,
            "name" : "rail5",
            "rotation" : [
                0,
                -0.7056345343589783,
                0,
                0.708575963973999
            ]
        },
        {
            "mesh" : 5,
            "name" : "rail6",
            "rotation" : [
                0,
                -0.9999796748161316,
                0,
                0.006379278842359781
            ]
        },
        {
            "mesh" : 6,
            "name" : "rail7",
            "rotation" : [
                0,
                -0.01274780835956335,
                0,
                -0.9999187588691711
            ]
        },
        {
            "mesh" : 7,
            "name" : "rail8",
            "rotation" : [
                0,
                -0.01274780835956335,
                0,
                -0.9999187588691711
            ],
            "scale" : [
                -1,
                1,
                1
            ]
        }
    ],
    "materials" : [
        {
            "doubleSided" : true,
            "emissiveFactor" : [
                0,
                0,
                0
            ],
            "name" : "brun",
            "pbrMetallicRoughness" : {
                "baseColorTexture" : {
                    "index" : 0,
                    "texCoord" : 0
                },
                "metallicFactor" : 0,
                "roughnessFactor" : 0.5
            }
        }
    ],
    "meshes" : [
        {
            "name" : "BezierCurve.003",
            "primitives" : [
                {
                    "attributes" : {
                        "POSITION" : 0,
                        "NORMAL" : 1,
                        "TEXCOORD_0" : 2
                    },
                    "indices" : 3,
                    "material" : 0
                }
            ]
        },
        {
            "name" : "BezierCurve.005",
            "primitives" : [
                {
                    "attributes" : {
                        "POSITION" : 4,
                        "NORMAL" : 5,
                        "TEXCOORD_0" : 6
                    },
                    "indices" : 7,
                    "material" : 0
                }
            ]
        },
        {
            "name" : "BezierCurve.006",
            "primitives" : [
                {
                    "attributes" : {
                        "POSITION" : 8,
                        "NORMAL" : 9,
                        "TEXCOORD_0" : 10
                    },
                    "indices" : 11,
                    "material" : 0
                }
            ]
        },
        {
            "name" : "BezierCurve.007",
            "primitives" : [
                {
                    "attributes" : {
                        "POSITION" : 12,
                        "NORMAL" : 13,
                        "TEXCOORD_0" : 14
                    },
                    "indices" : 15,
                    "material" : 0
                }
            ]
        },
        {
            "name" : "BezierCurve.008",
            "primitives" : [
                {
                    "attributes" : {
                        "POSITION" : 16,
                        "NORMAL" : 17,
                        "TEXCOORD_0" : 18
                    },
                    "indices" : 19,
                    "material" : 0
                }
            ]
        },
        {
            "name" : "BezierCurve.009",
            "primitives" : [
                {
                    "attributes" : {
                        "POSITION" : 20,
                        "NORMAL" : 21,
                        "TEXCOORD_0" : 22
                    },
                    "indices" : 23,
                    "material" : 0
                }
            ]
        },
        {
            "name" : "BezierCurve.010",
            "primitives" : [
                {
                    "attributes" : {
                        "POSITION" : 24,
                        "NORMAL" : 25,
                        "TEXCOORD_0" : 26
                    },
                    "indices" : 27,
                    "material" : 0
                }
            ]
        },
        {
            "name" : "BezierCurve.011",
            "primitives" : [
                {
                    "attributes" : {
                        "POSITION" : 28,
                        "NORMAL" : 29,
                        "TEXCOORD_0" : 30
                    },
                    "indices" : 31,
                    "material" : 0
                }
            ]
        }
    ],
    "textures" : [
        {
            "source" : 0
        }
    ],
    "images" : [
        {
            "mimeType" : "image/png",
            "name" : "brun",
            "uri" : "brun.png"
        }
    ],
    "accessors" : [
        {
            "bufferView" : 0,
            "componentType" : 5126,
            "count" : 2426,
            "max" : [
                -0.034315962344408035,
                -0.022283537313342094,
                1.99407958984375
            ],
            "min" : [
                -1.994521141052246,
                -0.02253473550081253,
                -0.00898924469947815
            ],
            "type" : "VEC3"
        },
        {
            "bufferView" : 1,
            "componentType" : 5126,
            "count" : 2426,
            "type" : "VEC3"
        },
        {
            "bufferView" : 2,
            "componentType" : 5126,
            "count" : 2426,
            "type" : "VEC2"
        },
        {
            "bufferView" : 3,
            "componentType" : 5123,
            "count" : 13824,
            "type" : "SCALAR"
        },
        {
            "bufferView" : 4,
            "componentType" : 5126,
            "count" : 2426,
            "max" : [
                -0.03145372495055199,
                -0.023806720972061157,
                1.9941085577011108
            ],
            "min" : [
                -1.989588737487793,
                -0.024057919159531593,
                -0.0174509659409523
            ],
            "type" : "VEC3"
        },
        {
            "bufferView" : 5,
            "componentType" : 5126,
            "count" : 2426,
            "type" : "VEC3"
        },
        {
            "bufferView" : 6,
            "componentType" : 5126,
            "count" : 2426,
            "type" : "VEC2"
        },
        {
            "bufferView" : 7,
            "componentType" : 5123,
            "count" : 13824,
            "type" : "SCALAR"
        },
        {
            "bufferView" : 8,
            "componentType" : 5126,
            "count" : 2426,
            "max" : [
                -0.0009400426642969251,
                -0.022858642041683197,
                1.9911072254180908
            ],
            "min" : [
                -1.993752360343933,
                -0.023109840229153633,
                -0.014716621488332748
            ],
            "type" : "VEC3"
        },
        {
            "bufferView" : 9,
            "componentType" : 5126,
            "count" : 2426,
            "type" : "VEC3"
        },
        {
            "bufferView" : 10,
            "componentType" : 5126,
            "count" : 2426,
            "type" : "VEC2"
        },
        {
            "bufferView" : 11,
            "componentType" : 5123,
            "count" : 13824,
            "type" : "SCALAR"
        },
        {
            "bufferView" : 12,
            "componentType" : 5126,
            "count" : 2426,
            "max" : [
                -0.03443402796983719,
                -0.022858642041683197,
                1.99407958984375
            ],
            "min" : [
                -1.995548129081726,
                -0.023109840229153633,
                -0.03124561719596386
            ],
            "type" : "VEC3"
        },
        {
            "bufferView" : 13,
            "componentType" : 5126,
            "count" : 2426,
            "type" : "VEC3"
        },
        {
            "bufferView" : 14,
            "componentType" : 5126,
            "count" : 2426,
            "type" : "VEC2"
        },
        {
            "bufferView" : 15,
            "componentType" : 5123,
            "count" : 13824,
            "type" : "SCALAR"
        },
        {
            "bufferView" : 16,
            "componentType" : 5126,
            "count" : 2426,
            "max" : [
                0.045488953590393066,
                -0.022931812331080437,
                0.5147602558135986
            ],
            "min" : [
                -0.44289615750312805,
                -0.023035617545247078,
                -0.058860186487436295
            ],
            "type" : "VEC3"
        },
        {
            "bufferView" : 17,
            "componentType" : 5126,
            "count" : 2426,
            "type" : "VEC3"
        },
        {
            "bufferView" : 18,
            "componentType" : 5126,
            "count" : 2426,
            "type" : "VEC2"
        },
        {
            "bufferView" : 19,
            "componentType" : 5123,
            "count" : 13824,
            "type" : "SCALAR"
        },
        {
            "bufferView" : 20,
            "componentType" : 5126,
            "count" : 2426,
            "max" : [
                0.03832956776022911,
                -0.022931812331080437,
                0.5093513131141663
            ],
            "min" : [
                -0.47329574823379517,
                -0.023035617545247078,
                -0.07870441675186157
            ],
            "type" : "VEC3"
        },
        {
            "bufferView" : 21,
            "componentType" : 5126,
            "count" : 2426,
            "type" : "VEC3"
        },
        {
            "bufferView" : 22,
            "componentType" : 5126,
            "count" : 2426,
            "type" : "VEC2"
        },
        {
            "bufferView" : 23,
            "componentType" : 5123,
            "count" : 13824,
            "type" : "SCALAR"
        },
        {
            "bufferView" : 24,
            "componentType" : 5126,
            "count" : 2426,
            "max" : [
                0.028482649475336075,
                -0.022931812331080437,
                0.4983383119106293
            ],
            "min" : [
                -0.47329574823379517,
                -0.023035619407892227,
                -0.07870897650718689
            ],
            "type" : "VEC3"
        },
        {
            "bufferView" : 25,
            "componentType" : 5126,
            "count" : 2426,
            "type" : "VEC3"
        },
        {
            "bufferView" : 26,
            "componentType" : 5126,
            "count" : 2426,
            "type" : "VEC2"
        },
        {
            "bufferView" : 27,
            "componentType" : 5123,
            "count" : 13824,
            "type" : "SCALAR"
        },
        {
            "bufferView" : 28,
            "componentType" : 5126,
            "count" : 2426,
            "max" : [
                0.08051034808158875,
                -0.022931812331080437,
                0.5137788653373718
            ],
            "min" : [
                -0.41434338688850403,
                -0.023035619407892227,
                -0.0402352474629879
            ],
            "type" : "VEC3"
        },
        {
            "bufferView" : 29,
            "componentType" : 5126,
            "count" : 2426,
            "type" : "VEC3"
        },
        {
            "bufferView" : 30,
            "componentType" : 5126,
            "count" : 2426,
            "type" : "VEC2"
        },
        {
            "bufferView" : 31,
            "componentType" : 5123,
            "count" : 13824,
            "type" : "SCALAR"
        }
    ],
    "bufferViews" : [
        {
            "buffer" : 0,
            "byteLength" : 29112,
            "byteOffset" : 0
        },
        {
            "buffer" : 0,
            "byteLength" : 29112,
            "byteOffset" : 29112
        },
        {
            "buffer" : 0,
            "byteLength" : 19408,
            "byteOffset" : 58224
        },
        {
            "buffer" : 0,
            "byteLength" : 27648,
            "byteOffset" : 77632
        },
        {
            "buffer" : 0,
            "byteLength" : 29112,
            "byteOffset" : 105280
        },
        {
            "buffer" : 0,
            "byteLength" : 29112,
            "byteOffset" : 134392
        },
        {
            "buffer" : 0,
            "byteLength" : 19408,
            "byteOffset" : 163504
        },
        {
            "buffer" : 0,
            "byteLength" : 27648,
            "byteOffset" : 182912
        },
        {
            "buffer" : 0,
            "byteLength" : 29112,
            "byteOffset" : 210560
        },
        {
            "buffer" : 0,
            "byteLength" : 29112,
            "byteOffset" : 239672
        },
        {
            "buffer" : 0,
            "byteLength" : 19408,
            "byteOffset" : 268784
        },
        {
            "buffer" : 0,
            "byteLength" : 27648,
            "byteOffset" : 288192
        },
        {
            "buffer" : 0,
            "byteLength" : 29112,
            "byteOffset" : 315840
        },
        {
            "buffer" : 0,
            "byteLength" : 29112,
            "byteOffset" : 344952
        },
        {
            "buffer" : 0,
            "byteLength" : 19408,
            "byteOffset" : 374064
        },
        {
            "buffer" : 0,
            "byteLength" : 27648,
            "byteOffset" : 393472
        },
        {
            "buffer" : 0,
            "byteLength" : 29112,
            "byteOffset" : 421120
        },
        {
            "buffer" : 0,
            "byteLength" : 29112,
            "byteOffset" : 450232
        },
        {
            "buffer" : 0,
            "byteLength" : 19408,
            "byteOffset" : 479344
        },
        {
            "buffer" : 0,
            "byteLength" : 27648,
            "byteOffset" : 498752
        },
        {
            "buffer" : 0,
            "byteLength" : 29112,
            "byteOffset" : 526400
        },
        {
            "buffer" : 0,
            "byteLength" : 29112,
            "byteOffset" : 555512
        },
        {
            "buffer" : 0,
            "byteLength" : 19408,
            "byteOffset" : 584624
        },
        {
            "buffer" : 0,
            "byteLength" : 27648,
            "byteOffset" : 604032
        },
        {
            "buffer" : 0,
            "byteLength" : 29112,
            "byteOffset" : 631680
        },
        {
            "buffer" : 0,
            "byteLength" : 29112,
            "byteOffset" : 660792
        },
        {
            "buffer" : 0,
            "byteLength" : 19408,
            "byteOffset" : 689904
        },
        {
            "buffer" : 0,
            "byteLength" : 27648,
            "byteOffset" : 709312
        },
        {
            "buffer" : 0,
            "byteLength" : 29112,
            "byteOffset" : 736960
        },
        {
            "buffer" : 0,
            "byteLength" : 29112,
            "byteOffset" : 766072
        },
        {
            "buffer" : 0,
            "byteLength" : 19408,
            "byteOffset" : 795184
        },
        {
            "buffer" : 0,
            "byteLength" : 27648,
            "byteOffset" : 814592
        }
    ],
    "buffers" : [
        {
            "byteLength" : 842240,
            "uri" : "rail.bin"
        }
    ]
}
