{"buffers":[{"uri":"maisonProp.bin","byteLength":79536}],"asset":{"version":"2.0","generator":"gltfpack 0.14"},"extensionsUsed":["KHR_mesh_quantization","KHR_texture_transform"],"extensionsRequired":["KHR_mesh_quantization"],"bufferViews":[{"buffer":0,"byteOffset":0,"byteLength":33192,"byteStride":8,"target":34962},{"buffer":0,"byteOffset":33192,"byteLength":16596,"byteStride":4,"target":34962},{"buffer":0,"byteOffset":49788,"byteLength":16596,"byteStride":4,"target":34962},{"buffer":0,"byteOffset":66384,"byteLength":13152,"target":34963}],"accessors":[{"bufferView":0,"byteOffset":0,"componentType":5123,"count":796,"type":"VEC3","min":[332,0,459],"max":[8313,16383,10833]},{"bufferView":1,"byteOffset":0,"componentType":5120,"count":796,"type":"VEC3","normalized":true},{"bufferView":2,"byteOffset":0,"componentType":5123,"count":796,"type":"VEC2"},{"bufferView":3,"byteOffset":0,"componentType":5123,"count":1290,"type":"SCALAR"},{"bufferView":0,"byteOffset":6368,"componentType":5123,"count":2990,"type":"VEC3","min":[0,451,0],"max":[8590,15272,11304]},{"bufferView":1,"byteOffset":3184,"componentType":5120,"count":2990,"type":"VEC3","normalized":true},{"bufferView":2,"byteOffset":3184,"componentType":5123,"count":2990,"type":"VEC2"},{"bufferView":3,"byteOffset":2580,"componentType":5123,"count":4659,"type":"SCALAR"},{"bufferView":0,"byteOffset":30288,"componentType":5123,"count":96,"type":"VEC3","min":[173,2302,207],"max":[8487,12276,11110]},{"bufferView":1,"byteOffset":15144,"componentType":5120,"count":96,"type":"VEC3","normalized":true},{"bufferView":2,"byteOffset":15144,"componentType":5123,"count":96,"type":"VEC2"},{"bufferView":3,"byteOffset":11898,"componentType":5123,"count":144,"type":"SCALAR"},{"bufferView":0,"byteOffset":31056,"componentType":5123,"count":267,"type":"VEC3","min":[217,547,260],"max":[8499,14683,11044]},{"bufferView":1,"byteOffset":15528,"componentType":5120,"count":267,"type":"VEC3","normalized":true},{"bufferView":2,"byteOffset":15528,"componentType":5123,"count":267,"type":"VEC2"},{"bufferView":3,"byteOffset":12186,"componentType":5123,"count":483,"type":"SCALAR"}],"images":[{"uri":"gris.png"},{"uri":"brun.png"},{"uri":"sky.png"},{"uri":"saumon.png"}],"textures":[{"source":0},{"source":1},{"source":2},{"source":3}],"materials":[{"name":"gris","pbrMetallicRoughness":{"baseColorTexture":{"index":0,"texCoord":0,"extensions":{"KHR_texture_transform":{"offset":[0.125,0],"scale":[0.000183150187,0.000244200259]}}},"metallicFactor":0,"roughnessFactor":0.5},"doubleSided":true},{"name":"brun","pbrMetallicRoughness":{"baseColorTexture":{"index":1,"texCoord":0,"extensions":{"KHR_texture_transform":{"offset":[0.125,0],"scale":[0.000183150187,0.000244200259]}}},"metallicFactor":0},"doubleSided":true},{"name":"sky","pbrMetallicRoughness":{"baseColorTexture":{"index":2,"texCoord":0,"extensions":{"KHR_texture_transform":{"offset":[0.375,0.25],"scale":[6.10500647e-05,6.10500647e-05]}}},"metallicFactor":0,"roughnessFactor":0.5},"doubleSided":true},{"name":"saumon","pbrMetallicRoughness":{"baseColorTexture":{"index":3,"texCoord":0,"extensions":{"KHR_texture_transform":{"offset":[0.62499994,0],"scale":[2.91109394e-11,0.000244200259]}}},"metallicFactor":0,"roughnessFactor":0.5},"doubleSided":true}],"meshes":[{"primitives":[{"attributes":{"POSITION":0,"NORMAL":1,"TEXCOORD_0":2},"mode":4,"indices":3,"material":0},{"attributes":{"POSITION":4,"NORMAL":5,"TEXCOORD_0":6},"mode":4,"indices":7,"material":1},{"attributes":{"POSITION":8,"NORMAL":9,"TEXCOORD_0":10},"mode":4,"indices":11,"material":2},{"attributes":{"POSITION":12,"NORMAL":13,"TEXCOORD_0":14},"mode":4,"indices":15,"material":3}]}],"nodes":[{"mesh":0,"translation":[-0.0485501699,-0.000386372791,-0.0803784579],"scale":[1.41282007e-05,1.41282007e-05,1.41282007e-05]}],"scenes":[{"nodes":[0]}],"scene":0}