{
    "asset" : {
        "generator" : "Khronos glTF Blender I/O v1.1.45",
        "version" : "2.0"
    },
    "scene" : 0,
    "scenes" : [
        {
            "name" : "Scene",
            "nodes" : [
                0
            ]
        }
    ],
    "nodes" : [
        {
            "mesh" : 0,
            "name" : "base_Cube.001",
            "rotation" : [
                0.5,
                -0.4999999701976776,
                0.5000000596046448,
                0.4999999403953552
            ],
            "scale" : [
                0.10088206082582474,
                0.10088206082582474,
                0.10088206082582474
            ]
        }
    ],
    "materials" : [
        {
            "doubleSided" : true,
            "emissiveFactor" : [
                0,
                0,
                0
            ],
            "name" : "gris.001",
            "pbrMetallicRoughness" : {
                "baseColorTexture" : {
                    "index" : 0,
                    "texCoord" : 0
                },
                "metallicFactor" : 0,
                "roughnessFactor" : 0.5
            }
        },
        {
            "doubleSided" : true,
            "emissiveFactor" : [
                0,
                0,
                0
            ],
            "name" : "brun.002",
            "pbrMetallicRoughness" : {
                "baseColorTexture" : {
                    "index" : 1,
                    "texCoord" : 0
                },
                "metallicFactor" : 0,
                "roughnessFactor" : 1
            }
        },
        {
            "doubleSided" : true,
            "emissiveFactor" : [
                0,
                0,
                0
            ],
            "name" : "sky",
            "pbrMetallicRoughness" : {
                "baseColorTexture" : {
                    "index" : 2,
                    "texCoord" : 0
                },
                "metallicFactor" : 0,
                "roughnessFactor" : 0.5
            }
        },
        {
            "doubleSided" : true,
            "emissiveFactor" : [
                0,
                0,
                0
            ],
            "name" : "caseM1",
            "pbrMetallicRoughness" : {
                "baseColorTexture" : {
                    "index" : 3,
                    "texCoord" : 0
                },
                "metallicFactor" : 0,
                "roughnessFactor" : 0.5
            }
        }
    ],
    "meshes" : [
        {
            "name" : "base_Cube.001",
            "primitives" : [
                {
                    "attributes" : {
                        "POSITION" : 0,
                        "NORMAL" : 1,
                        "TEXCOORD_0" : 2
                    },
                    "indices" : 3,
                    "material" : 0
                },
                {
                    "attributes" : {
                        "POSITION" : 4,
                        "NORMAL" : 5,
                        "TEXCOORD_0" : 6
                    },
                    "indices" : 7,
                    "material" : 1
                },
                {
                    "attributes" : {
                        "POSITION" : 8,
                        "NORMAL" : 9,
                        "TEXCOORD_0" : 10
                    },
                    "indices" : 11,
                    "material" : 2
                },
                {
                    "attributes" : {
                        "POSITION" : 12,
                        "NORMAL" : 13,
                        "TEXCOORD_0" : 14
                    },
                    "indices" : 15,
                    "material" : 3
                }
            ]
        }
    ],
    "textures" : [
        {
            "source" : 0
        },
        {
            "source" : 1
        },
        {
            "source" : 2
        },
        {
            "source" : 3
        }
    ],
    "images" : [
        {
            "mimeType" : "image/png",
            "name" : "gris",
            "uri" : "gris.png"
        },
        {
            "mimeType" : "image/png",
            "name" : "brun",
            "uri" : "brun.png"
        },
        {
            "mimeType" : "image/png",
            "name" : "sky",
            "uri" : "sky.png"
        },
        {
            "mimeType" : "image/png",
            "name" : "caseM1",
            "uri" : "caseM1.png"
        }
    ],
    "accessors" : [
        {
            "bufferView" : 0,
            "componentType" : 5126,
            "count" : 798,
            "max" : [
                18.049850463867188,
                -13.434491157531738,
                0.003923308569937944
            ],
            "min" : [
                16.905555725097656,
                -14.921770095825195,
                -2.3448145389556885
            ],
            "type" : "VEC3"
        },
        {
            "bufferView" : 1,
            "componentType" : 5126,
            "count" : 798,
            "type" : "VEC3"
        },
        {
            "bufferView" : 2,
            "componentType" : 5126,
            "count" : 798,
            "type" : "VEC2"
        },
        {
            "bufferView" : 3,
            "componentType" : 5123,
            "count" : 1290,
            "type" : "SCALAR"
        },
        {
            "bufferView" : 4,
            "componentType" : 5126,
            "count" : 2798,
            "max" : [
                18.08953094482422,
                -13.3670015335083,
                -0.06077568978071213
            ],
            "min" : [
                16.858001708984375,
                -14.987573623657227,
                -2.1855406761169434
            ],
            "type" : "VEC3"
        },
        {
            "bufferView" : 5,
            "componentType" : 5126,
            "count" : 2798,
            "type" : "VEC3"
        },
        {
            "bufferView" : 6,
            "componentType" : 5126,
            "count" : 2798,
            "type" : "VEC2"
        },
        {
            "bufferView" : 7,
            "componentType" : 5123,
            "count" : 4659,
            "type" : "SCALAR"
        },
        {
            "bufferView" : 8,
            "componentType" : 5126,
            "count" : 96,
            "max" : [
                18.0747127532959,
                -13.394765853881836,
                -0.32615670561790466
            ],
            "min" : [
                16.882741928100586,
                -14.957918167114258,
                -1.7560007572174072
            ],
            "type" : "VEC3"
        },
        {
            "bufferView" : 9,
            "componentType" : 5126,
            "count" : 96,
            "type" : "VEC3"
        },
        {
            "bufferView" : 10,
            "componentType" : 5126,
            "count" : 96,
            "type" : "VEC2"
        },
        {
            "bufferView" : 11,
            "componentType" : 5123,
            "count" : 144,
            "type" : "SCALAR"
        },
        {
            "bufferView" : 12,
            "componentType" : 5126,
            "count" : 250,
            "max" : [
                18.07649040222168,
                -13.404194831848145,
                -0.07453369349241257
            ],
            "min" : [
                16.889108657836914,
                -14.950325965881348,
                -2.1010355949401855
            ],
            "type" : "VEC3"
        },
        {
            "bufferView" : 13,
            "componentType" : 5126,
            "count" : 250,
            "type" : "VEC3"
        },
        {
            "bufferView" : 14,
            "componentType" : 5126,
            "count" : 250,
            "type" : "VEC2"
        },
        {
            "bufferView" : 15,
            "componentType" : 5123,
            "count" : 582,
            "type" : "SCALAR"
        }
    ],
    "bufferViews" : [
        {
            "buffer" : 0,
            "byteLength" : 9576,
            "byteOffset" : 0
        },
        {
            "buffer" : 0,
            "byteLength" : 9576,
            "byteOffset" : 9576
        },
        {
            "buffer" : 0,
            "byteLength" : 6384,
            "byteOffset" : 19152
        },
        {
            "buffer" : 0,
            "byteLength" : 2580,
            "byteOffset" : 25536
        },
        {
            "buffer" : 0,
            "byteLength" : 33576,
            "byteOffset" : 28116
        },
        {
            "buffer" : 0,
            "byteLength" : 33576,
            "byteOffset" : 61692
        },
        {
            "buffer" : 0,
            "byteLength" : 22384,
            "byteOffset" : 95268
        },
        {
            "buffer" : 0,
            "byteLength" : 9318,
            "byteOffset" : 117652
        },
        {
            "buffer" : 0,
            "byteLength" : 1152,
            "byteOffset" : 126972
        },
        {
            "buffer" : 0,
            "byteLength" : 1152,
            "byteOffset" : 128124
        },
        {
            "buffer" : 0,
            "byteLength" : 768,
            "byteOffset" : 129276
        },
        {
            "buffer" : 0,
            "byteLength" : 288,
            "byteOffset" : 130044
        },
        {
            "buffer" : 0,
            "byteLength" : 3000,
            "byteOffset" : 130332
        },
        {
            "buffer" : 0,
            "byteLength" : 3000,
            "byteOffset" : 133332
        },
        {
            "buffer" : 0,
            "byteLength" : 2000,
            "byteOffset" : 136332
        },
        {
            "buffer" : 0,
            "byteLength" : 1164,
            "byteOffset" : 138332
        }
    ],
    "buffers" : [
        {
            "byteLength" : 139496,
            "uri" : "M1_1_1.bin"
        }
    ]
}
