{"buffers":[{"uri":"boat.bin","byteLength":448052}],"asset":{"version":"2.0","generator":"gltfpack 0.14"},"extensionsUsed":["KHR_mesh_quantization","KHR_texture_transform"],"extensionsRequired":["KHR_mesh_quantization"],"bufferViews":[{"buffer":0,"byteOffset":0,"byteLength":197200,"byteStride":8,"target":34962},{"buffer":0,"byteOffset":197200,"byteLength":98600,"byteStride":4,"target":34962},{"buffer":0,"byteOffset":295800,"byteLength":98600,"byteStride":4,"target":34962},{"buffer":0,"byteOffset":394400,"byteLength":53652,"target":34963}],"accessors":[{"bufferView":0,"byteOffset":0,"componentType":5123,"count":4,"type":"VEC3","min":[2965,6153,4282],"max":[3668,6153,5050]},{"bufferView":1,"byteOffset":0,"componentType":5120,"count":4,"type":"VEC3","normalized":true},{"bufferView":2,"byteOffset":0,"componentType":5123,"count":4,"type":"VEC2"},{"bufferView":3,"byteOffset":0,"componentType":5123,"count":6,"type":"SCALAR"},{"bufferView":0,"byteOffset":32,"componentType":5123,"count":166,"type":"VEC3","min":[2482,6119,4243],"max":[3699,6543,5084]},{"bufferView":1,"byteOffset":16,"componentType":5120,"count":166,"type":"VEC3","normalized":true},{"bufferView":2,"byteOffset":16,"componentType":5123,"count":166,"type":"VEC2"},{"bufferView":3,"byteOffset":12,"componentType":5123,"count":198,"type":"SCALAR"},{"bufferView":0,"byteOffset":1360,"componentType":5123,"count":2064,"type":"VEC3","min":[160,0,1448],"max":[7852,6490,16383]},{"bufferView":1,"byteOffset":680,"componentType":5120,"count":2064,"type":"VEC3","normalized":true},{"bufferView":2,"byteOffset":680,"componentType":5123,"count":2064,"type":"VEC2"},{"bufferView":3,"byteOffset":408,"componentType":5123,"count":2340,"type":"SCALAR"},{"bufferView":0,"byteOffset":17872,"componentType":5123,"count":951,"type":"VEC3","min":[435,0,393],"max":[7577,6152,16383]},{"bufferView":1,"byteOffset":8936,"componentType":5120,"count":951,"type":"VEC3","normalized":true},{"bufferView":2,"byteOffset":8936,"componentType":5123,"count":951,"type":"VEC2"},{"bufferView":3,"byteOffset":5088,"componentType":5123,"count":1272,"type":"SCALAR"},{"bufferView":0,"byteOffset":25480,"componentType":5123,"count":543,"type":"VEC3","min":[2124,1806,2905],"max":[5889,6041,9512]},{"bufferView":1,"byteOffset":12740,"componentType":5120,"count":543,"type":"VEC3","normalized":true},{"bufferView":2,"byteOffset":12740,"componentType":5123,"count":543,"type":"VEC2"},{"bufferView":3,"byteOffset":7632,"componentType":5123,"count":600,"type":"SCALAR"},{"bufferView":0,"byteOffset":29824,"componentType":5123,"count":2670,"type":"VEC3","min":[0,1654,2921],"max":[8012,6490,16383]},{"bufferView":1,"byteOffset":14912,"componentType":5120,"count":2670,"type":"VEC3","normalized":true},{"bufferView":2,"byteOffset":14912,"componentType":5123,"count":2670,"type":"VEC2"},{"bufferView":3,"byteOffset":8832,"componentType":5123,"count":2832,"type":"SCALAR"},{"bufferView":0,"byteOffset":51184,"componentType":5123,"count":6695,"type":"VEC3","min":[571,1806,1217],"max":[7441,6489,13500]},{"bufferView":1,"byteOffset":25592,"componentType":5120,"count":6695,"type":"VEC3","normalized":true},{"bufferView":2,"byteOffset":25592,"componentType":5123,"count":6695,"type":"VEC2"},{"bufferView":3,"byteOffset":14496,"componentType":5123,"count":6840,"type":"SCALAR"},{"bufferView":0,"byteOffset":104744,"componentType":5123,"count":3321,"type":"VEC3","min":[0,1752,1217],"max":[8012,5211,13500]},{"bufferView":1,"byteOffset":52372,"componentType":5120,"count":3321,"type":"VEC3","normalized":true},{"bufferView":2,"byteOffset":52372,"componentType":5123,"count":3321,"type":"VEC2"},{"bufferView":3,"byteOffset":28176,"componentType":5123,"count":3654,"type":"SCALAR"},{"bufferView":0,"byteOffset":131312,"componentType":5123,"count":284,"type":"VEC3","min":[583,2994,1224],"max":[7429,5155,13496]},{"bufferView":1,"byteOffset":65656,"componentType":5120,"count":284,"type":"VEC3","normalized":true},{"bufferView":2,"byteOffset":65656,"componentType":5123,"count":284,"type":"VEC2"},{"bufferView":3,"byteOffset":35484,"componentType":5123,"count":324,"type":"SCALAR"},{"bufferView":0,"byteOffset":133584,"componentType":5123,"count":894,"type":"VEC3","min":[330,2736,5226],"max":[7717,3928,10976]},{"bufferView":1,"byteOffset":66792,"componentType":5120,"count":894,"type":"VEC3","normalized":true},{"bufferView":2,"byteOffset":66792,"componentType":5123,"count":894,"type":"VEC2"},{"bufferView":3,"byteOffset":36132,"componentType":5123,"count":900,"type":"SCALAR"},{"bufferView":0,"byteOffset":140736,"componentType":5123,"count":898,"type":"VEC3","min":[330,2736,5226],"max":[7717,3928,10976]},{"bufferView":1,"byteOffset":70368,"componentType":5120,"count":898,"type":"VEC3","normalized":true},{"bufferView":2,"byteOffset":70368,"componentType":5123,"count":898,"type":"VEC2"},{"bufferView":3,"byteOffset":37932,"componentType":5123,"count":900,"type":"SCALAR"},{"bufferView":0,"byteOffset":147920,"componentType":5123,"count":51,"type":"VEC3","min":[3522,6257,5968],"max":[5052,6740,7413]},{"bufferView":1,"byteOffset":73960,"componentType":5120,"count":51,"type":"VEC3","normalized":true},{"bufferView":2,"byteOffset":73960,"componentType":5123,"count":51,"type":"VEC2"},{"bufferView":3,"byteOffset":39732,"componentType":5123,"count":66,"type":"SCALAR"},{"bufferView":0,"byteOffset":148328,"componentType":5123,"count":397,"type":"VEC3","min":[3522,6132,5908],"max":[5052,6740,7413]},{"bufferView":1,"byteOffset":74164,"componentType":5120,"count":397,"type":"VEC3","normalized":true},{"bufferView":2,"byteOffset":74164,"componentType":5123,"count":397,"type":"VEC2"},{"bufferView":3,"byteOffset":39864,"componentType":5123,"count":552,"type":"SCALAR"},{"bufferView":0,"byteOffset":151504,"componentType":5123,"count":601,"type":"VEC3","min":[5648,1070,489],"max":[6155,2767,910]},{"bufferView":1,"byteOffset":75752,"componentType":5120,"count":601,"type":"VEC3","normalized":true},{"bufferView":2,"byteOffset":75752,"componentType":5123,"count":601,"type":"VEC2"},{"bufferView":3,"byteOffset":40968,"componentType":5123,"count":660,"type":"SCALAR"},{"bufferView":0,"byteOffset":156312,"componentType":5123,"count":266,"type":"VEC3","min":[4255,6146,6610],"max":[4363,7495,7229]},{"bufferView":1,"byteOffset":78156,"componentType":5120,"count":266,"type":"VEC3","normalized":true},{"bufferView":2,"byteOffset":78156,"componentType":5123,"count":266,"type":"VEC2"},{"bufferView":3,"byteOffset":42288,"componentType":5123,"count":276,"type":"SCALAR"},{"bufferView":0,"byteOffset":158440,"componentType":5123,"count":144,"type":"VEC3","min":[3658,7019,6592],"max":[4956,7592,7757]},{"bufferView":1,"byteOffset":79220,"componentType":5120,"count":144,"type":"VEC3","normalized":true},{"bufferView":2,"byteOffset":79220,"componentType":5123,"count":144,"type":"VEC2"},{"bufferView":3,"byteOffset":42840,"componentType":5123,"count":144,"type":"SCALAR"},{"bufferView":0,"byteOffset":159592,"componentType":5123,"count":172,"type":"VEC3","min":[3523,6913,6453],"max":[5070,7596,7842]},{"bufferView":1,"byteOffset":79796,"componentType":5120,"count":172,"type":"VEC3","normalized":true},{"bufferView":2,"byteOffset":79796,"componentType":5123,"count":172,"type":"VEC2"},{"bufferView":3,"byteOffset":43128,"componentType":5123,"count":174,"type":"SCALAR"},{"bufferView":0,"byteOffset":160968,"componentType":5123,"count":3659,"type":"VEC3","min":[3387,984,0],"max":[4664,3076,1406]},{"bufferView":1,"byteOffset":80484,"componentType":5120,"count":3659,"type":"VEC3","normalized":true},{"bufferView":2,"byteOffset":80484,"componentType":5123,"count":3659,"type":"VEC2"},{"bufferView":3,"byteOffset":43476,"componentType":5123,"count":4098,"type":"SCALAR"},{"bufferView":0,"byteOffset":190240,"componentType":5123,"count":648,"type":"VEC3","min":[3412,885,6],"max":[4655,3061,1406]},{"bufferView":1,"byteOffset":95120,"componentType":5120,"count":648,"type":"VEC3","normalized":true},{"bufferView":2,"byteOffset":95120,"componentType":5123,"count":648,"type":"VEC2"},{"bufferView":3,"byteOffset":51672,"componentType":5123,"count":738,"type":"SCALAR"},{"bufferView":0,"byteOffset":195424,"componentType":5123,"count":222,"type":"VEC3","min":[795,2414,610],"max":[3210,2966,1182]},{"bufferView":1,"byteOffset":97712,"componentType":5120,"count":222,"type":"VEC3","normalized":true},{"bufferView":2,"byteOffset":97712,"componentType":5123,"count":222,"type":"VEC2"},{"bufferView":3,"byteOffset":53148,"componentType":5123,"count":252,"type":"SCALAR"}],"images":[{"uri":"noir_png.png"},{"uri":"gris_png.png"},{"uri":"brun.png"},{"uri":"cayenne.png"},{"uri":"ice.png"},{"uri":"blanc.png"},{"uri":"rouge.png"},{"uri":"aqua.png"}],"textures":[{"source":0},{"source":1},{"source":2},{"source":3},{"source":4},{"source":5},{"source":0},{"source":1},{"source":5},{"source":6},{"source":5},{"source":5},{"source":7},{"source":5},{"source":0},{"source":5},{"source":7},{"source":0},{"source":5},{"source":5}],"materials":[{"name":"Material.007","pbrMetallicRoughness":{"baseColorTexture":{"index":0,"texCoord":0,"extensions":{"KHR_texture_transform":{"offset":[0.635187507,0.260187507],"scale":[5.60744775e-05,5.60744775e-05]}}},"metallicFactor":0,"roughnessFactor":0.5},"doubleSided":true},{"name":"Material.008","pbrMetallicRoughness":{"baseColorTexture":{"index":1,"texCoord":0,"extensions":{"KHR_texture_transform":{"offset":[0.125,0],"scale":[0.000183150187,0.000244200259]}}},"roughnessFactor":0.5},"doubleSided":true},{"name":"bois","pbrMetallicRoughness":{"baseColorTexture":{"index":2,"texCoord":0,"extensions":{"KHR_texture_transform":{"offset":[-6.92744579e-05,-1.1920929e-07],"scale":[0.000240884881,0.000244200288]}}},"metallicFactor":0,"roughnessFactor":0.400000006},"doubleSided":true},{"name":"team_color","pbrMetallicRoughness":{"baseColorTexture":{"index":3,"texCoord":0,"extensions":{"KHR_texture_transform":{"offset":[0,0.125],"scale":[0.000183150187,0.000213675215]}}},"metallicFactor":0,"roughnessFactor":0.5},"doubleSided":true},{"name":"fenetre","pbrMetallicRoughness":{},"emissiveTexture":{"index":4,"texCoord":0,"extensions":{"KHR_texture_transform":{"offset":[0,0.24999994],"scale":[0.000182769028,0.000183150201]}}},"emissiveFactor":[1,1,1],"doubleSided":true},{"name":"blanc.001","pbrMetallicRoughness":{"baseColorTexture":{"index":5,"texCoord":0,"extensions":{"KHR_texture_transform":{"offset":[0,0],"scale":[0.000244200259,0.000244200259]}}},"metallicFactor":0,"roughnessFactor":0.5},"doubleSided":true},{"name":"Material.011","pbrMetallicRoughness":{"baseColorTexture":{"index":6,"texCoord":0,"extensions":{"KHR_texture_transform":{"offset":[-1.11022302e-16,0],"scale":[0.000244200259,0.000244200259]}}},"metallicFactor":0,"roughnessFactor":0.5},"doubleSided":true},{"name":"gris.001","pbrMetallicRoughness":{"baseColorTexture":{"index":7,"texCoord":0,"extensions":{"KHR_texture_transform":{"offset":[4.47034836e-08,-1.1920929e-07],"scale":[0.00024420023,0.000238223452]}}},"metallicFactor":0,"roughnessFactor":0.5},"doubleSided":true},{"name":"lumiere","pbrMetallicRoughness":{},"emissiveTexture":{"index":8,"texCoord":0,"extensions":{"KHR_texture_transform":{"offset":[0.00537404697,-1.1920929e-07],"scale":[0.000241560308,4.36664073e-11]}}},"emissiveFactor":[1,1,1],"doubleSided":true},{"name":"rouge","pbrMetallicRoughness":{"baseColorTexture":{"index":9,"texCoord":0,"extensions":{"KHR_texture_transform":{"offset":[0.099999994,0],"scale":[0.00021978021,0.000244200259]}}},"metallicFactor":0,"roughnessFactor":0.5},"doubleSided":true},{"name":"blanc.002","pbrMetallicRoughness":{"baseColorTexture":{"index":10,"texCoord":0,"extensions":{"KHR_texture_transform":{"offset":[-1.11022302e-16,0],"scale":[0.000219780239,0.000244200259]}}},"metallicFactor":0,"roughnessFactor":0.5},"doubleSided":true},{"name":"Material.012","pbrMetallicRoughness":{"baseColorTexture":{"index":11,"texCoord":0,"extensions":{"KHR_texture_transform":{"offset":[0,0.263395309],"scale":[0.000213675215,0.000179879047]}}},"metallicFactor":0,"roughnessFactor":0.5},"doubleSided":true},{"name":"Material.016","pbrMetallicRoughness":{"baseColorTexture":{"index":12,"texCoord":0,"extensions":{"KHR_texture_transform":{"offset":[0.125,0],"scale":[0.000183150187,0.000244200259]}}},"metallicFactor":0,"roughnessFactor":0.5},"doubleSided":true},{"name":"blanc","pbrMetallicRoughness":{"baseColorTexture":{"index":13,"texCoord":0,"extensions":{"KHR_texture_transform":{"offset":[0.125,0],"scale":[0.000183150187,0.000244200259]}}},"metallicFactor":0.633333325,"roughnessFactor":0.5},"doubleSided":true},{"name":"noir.001","pbrMetallicRoughness":{"baseColorTexture":{"index":14,"texCoord":0,"extensions":{"KHR_texture_transform":{"offset":[7.4505806e-08,0],"scale":[0.00024420023,0.000241758244]}}},"metallicFactor":0,"roughnessFactor":0.5},"doubleSided":true},{"name":"Material.014","pbrMetallicRoughness":{"baseColorTexture":{"index":15,"texCoord":0,"extensions":{"KHR_texture_transform":{"offset":[0,1],"scale":[0,0]}}},"metallicFactor":0,"roughnessFactor":0.5},"doubleSided":true},{"name":"Material.015","pbrMetallicRoughness":{"baseColorTexture":{"index":16,"texCoord":0,"extensions":{"KHR_texture_transform":{"offset":[0,1],"scale":[0,0]}}},"metallicFactor":0,"roughnessFactor":0.5},"doubleSided":true},{"name":"noir","pbrMetallicRoughness":{"baseColorTexture":{"index":17,"texCoord":0,"extensions":{"KHR_texture_transform":{"offset":[0,0],"scale":[0.000244200259,0.000244200259]}}},"metallicFactor":0,"roughnessFactor":0.5},"doubleSided":true},{"name":"gris","pbrMetallicRoughness":{"baseColorTexture":{"index":18,"texCoord":0,"extensions":{"KHR_texture_transform":{"offset":[0,0.0255434513],"scale":[0.000213675215,0.000237962522]}}},"metallicFactor":0.891666651,"roughnessFactor":0.5},"doubleSided":true},{"name":"Gris","pbrMetallicRoughness":{"baseColorTexture":{"index":19,"texCoord":0,"extensions":{"KHR_texture_transform":{"offset":[0,0],"scale":[0.000213675215,0.000244200259]}}},"metallicFactor":0,"roughnessFactor":0.616666675},"doubleSided":true}],"meshes":[{"primitives":[{"attributes":{"POSITION":0,"NORMAL":1,"TEXCOORD_0":2},"mode":4,"indices":3,"material":0},{"attributes":{"POSITION":4,"NORMAL":5,"TEXCOORD_0":6},"mode":4,"indices":7,"material":1},{"attributes":{"POSITION":8,"NORMAL":9,"TEXCOORD_0":10},"mode":4,"indices":11,"material":2},{"attributes":{"POSITION":12,"NORMAL":13,"TEXCOORD_0":14},"mode":4,"indices":15,"material":3},{"attributes":{"POSITION":16,"NORMAL":17,"TEXCOORD_0":18},"mode":4,"indices":19,"material":4},{"attributes":{"POSITION":20,"NORMAL":21,"TEXCOORD_0":22},"mode":4,"indices":23,"material":5},{"attributes":{"POSITION":24,"NORMAL":25,"TEXCOORD_0":26},"mode":4,"indices":27,"material":6},{"attributes":{"POSITION":28,"NORMAL":29,"TEXCOORD_0":30},"mode":4,"indices":31,"material":7},{"attributes":{"POSITION":32,"NORMAL":33,"TEXCOORD_0":34},"mode":4,"indices":35,"material":8},{"attributes":{"POSITION":36,"NORMAL":37,"TEXCOORD_0":38},"mode":4,"indices":39,"material":9},{"attributes":{"POSITION":40,"NORMAL":41,"TEXCOORD_0":42},"mode":4,"indices":43,"material":10},{"attributes":{"POSITION":44,"NORMAL":45,"TEXCOORD_0":46},"mode":4,"indices":47,"material":11},{"attributes":{"POSITION":48,"NORMAL":49,"TEXCOORD_0":50},"mode":4,"indices":51,"material":12},{"attributes":{"POSITION":52,"NORMAL":53,"TEXCOORD_0":54},"mode":4,"indices":55,"material":13},{"attributes":{"POSITION":56,"NORMAL":57,"TEXCOORD_0":58},"mode":4,"indices":59,"material":14},{"attributes":{"POSITION":60,"NORMAL":61,"TEXCOORD_0":62},"mode":4,"indices":63,"material":15},{"attributes":{"POSITION":64,"NORMAL":65,"TEXCOORD_0":66},"mode":4,"indices":67,"material":16},{"attributes":{"POSITION":68,"NORMAL":69,"TEXCOORD_0":70},"mode":4,"indices":71,"material":17},{"attributes":{"POSITION":72,"NORMAL":73,"TEXCOORD_0":74},"mode":4,"indices":75,"material":18},{"attributes":{"POSITION":76,"NORMAL":77,"TEXCOORD_0":78},"mode":4,"indices":79,"material":19}]}],"nodes":[{"mesh":0,"translation":[-0.0622467138,-0.00730678672,-0.110643819],"scale":[1.55962189e-05,1.55962189e-05,1.55962189e-05]}],"scenes":[{"nodes":[0]}],"scene":0}