{"buffers":[{"uri":"citroen C4.bin","byteLength":396440}],"asset":{"version":"2.0","generator":"gltfpack 0.14"},"extensionsUsed":["KHR_mesh_quantization","KHR_texture_transform"],"extensionsRequired":["KHR_mesh_quantization"],"bufferViews":[{"buffer":0,"byteOffset":0,"byteLength":192392,"byteStride":8,"target":34962},{"buffer":0,"byteOffset":192392,"byteLength":96196,"byteStride":4,"target":34962},{"buffer":0,"byteOffset":288588,"byteLength":54788,"byteStride":4,"target":34962},{"buffer":0,"byteOffset":343376,"byteLength":53064,"target":34963}],"accessors":[{"bufferView":0,"byteOffset":0,"componentType":5123,"count":126,"type":"VEC3","min":[1399,1769,681],"max":[5475,5297,14947]},{"bufferView":1,"byteOffset":0,"componentType":5120,"count":126,"type":"VEC3","normalized":true},{"bufferView":2,"byteOffset":0,"componentType":5123,"count":126,"type":"VEC2"},{"bufferView":3,"byteOffset":0,"componentType":5123,"count":186,"type":"SCALAR"},{"bufferView":0,"byteOffset":1008,"componentType":5123,"count":33,"type":"VEC3","min":[1605,5149,805],"max":[5269,7211,8735]},{"bufferView":1,"byteOffset":504,"componentType":5120,"count":33,"type":"VEC3","normalized":true},{"bufferView":2,"byteOffset":504,"componentType":5123,"count":33,"type":"VEC2"},{"bufferView":3,"byteOffset":372,"componentType":5123,"count":48,"type":"SCALAR"},{"bufferView":0,"byteOffset":1272,"componentType":5123,"count":13538,"type":"VEC3","min":[0,0,0],"max":[6801,7601,16383]},{"bufferView":1,"byteOffset":636,"componentType":5120,"count":13538,"type":"VEC3","normalized":true},{"bufferView":2,"byteOffset":636,"componentType":5123,"count":13538,"type":"VEC2"},{"bufferView":3,"byteOffset":468,"componentType":5123,"count":14418,"type":"SCALAR"},{"bufferView":0,"byteOffset":109576,"componentType":5123,"count":10352,"type":"VEC3","min":[225,446,805],"max":[6576,3003,15703]},{"bufferView":1,"byteOffset":54788,"componentType":5120,"count":10352,"type":"VEC3","normalized":true},{"bufferView":3,"byteOffset":29304,"componentType":5123,"count":11880,"type":"SCALAR"}],"images":[{"uri":"fern.png"},{"uri":"sky.png"},{"uri":"noir_png.png"}],"textures":[{"source":0},{"source":1},{"source":2}],"materials":[{"name":"fern","pbrMetallicRoughness":{"baseColorTexture":{"index":0,"texCoord":0,"extensions":{"KHR_texture_transform":{"offset":[0.125,0],"scale":[0.000122100129,0.000244200259]}}},"metallicFactor":0,"roughnessFactor":0.400000006},"doubleSided":true},{"name":"sky.001","pbrMetallicRoughness":{"baseColorTexture":{"index":1,"texCoord":0,"extensions":{"KHR_texture_transform":{"offset":[0.62499994,0.00293213129],"scale":[4.36664073e-11,0.00024273865]}}},"metallicFactor":0,"roughnessFactor":0.5},"doubleSided":true},{"name":"noir.002","pbrMetallicRoughness":{"baseColorTexture":{"index":2,"texCoord":0,"extensions":{"KHR_texture_transform":{"offset":[0,0],"scale":[0.000244200317,0.000245211355]}}},"metallicFactor":0,"roughnessFactor":0.5},"doubleSided":true},{"name":"Material.021","pbrMetallicRoughness":{},"doubleSided":true}],"meshes":[{"primitives":[{"attributes":{"POSITION":0,"NORMAL":1,"TEXCOORD_0":2},"mode":4,"indices":3,"material":0},{"attributes":{"POSITION":4,"NORMAL":5,"TEXCOORD_0":6},"mode":4,"indices":7,"material":1},{"attributes":{"POSITION":8,"NORMAL":9,"TEXCOORD_0":10},"mode":4,"indices":11,"material":2},{"attributes":{"POSITION":12,"NORMAL":13},"mode":4,"indices":14,"material":3}]}],"nodes":[{"mesh":0,"translation":[-0.0388832241,0.00081443321,-0.0768786743],"scale":[1.13138422e-05,1.13138422e-05,1.13138422e-05]}],"scenes":[{"nodes":[0]}],"scene":0}