{"buffers":[{"uri":"montgolfiere.bin","byteLength":98184}],"asset":{"version":"2.0","generator":"gltfpack 0.14"},"extensionsUsed":["KHR_mesh_quantization","KHR_texture_transform"],"extensionsRequired":["KHR_mesh_quantization"],"bufferViews":[{"buffer":0,"byteOffset":0,"byteLength":41160,"byteStride":8,"target":34962},{"buffer":0,"byteOffset":41160,"byteLength":20580,"byteStride":4,"target":34962},{"buffer":0,"byteOffset":61740,"byteLength":20580,"byteStride":4,"target":34962},{"buffer":0,"byteOffset":82320,"byteLength":15864,"target":34963}],"accessors":[{"bufferView":0,"byteOffset":0,"componentType":5123,"count":69,"type":"VEC3","min":[3724,0,3535],"max":[6419,3055,6827]},{"bufferView":1,"byteOffset":0,"componentType":5120,"count":69,"type":"VEC3","normalized":true},{"bufferView":2,"byteOffset":0,"componentType":5123,"count":69,"type":"VEC2"},{"bufferView":3,"byteOffset":0,"componentType":5123,"count":144,"type":"SCALAR"},{"bufferView":0,"byteOffset":552,"componentType":5123,"count":936,"type":"VEC3","min":[3771,2906,3662],"max":[6372,5144,6735]},{"bufferView":1,"byteOffset":276,"componentType":5120,"count":936,"type":"VEC3","normalized":true},{"bufferView":2,"byteOffset":276,"componentType":5123,"count":936,"type":"VEC2"},{"bufferView":3,"byteOffset":288,"componentType":5123,"count":1716,"type":"SCALAR"},{"bufferView":0,"byteOffset":8040,"componentType":5123,"count":2136,"type":"VEC3","min":[0,0,0],"max":[10143,16383,10143]},{"bufferView":1,"byteOffset":4020,"componentType":5120,"count":2136,"type":"VEC3","normalized":true},{"bufferView":2,"byteOffset":4020,"componentType":5123,"count":2136,"type":"VEC2"},{"bufferView":3,"byteOffset":3720,"componentType":5123,"count":3168,"type":"SCALAR"},{"bufferView":0,"byteOffset":25128,"componentType":5123,"count":2004,"type":"VEC3","min":[0,6042,0],"max":[10143,16383,10143]},{"bufferView":1,"byteOffset":12564,"componentType":5120,"count":2004,"type":"VEC3","normalized":true},{"bufferView":2,"byteOffset":12564,"componentType":5123,"count":2004,"type":"VEC2"},{"bufferView":3,"byteOffset":10056,"componentType":5123,"count":2904,"type":"SCALAR"}],"images":[{"uri":"orange.png"},{"uri":"gris.png"},{"uri":"rouge.png"},{"uri":"blanc.png"}],"textures":[{"source":0},{"source":1},{"source":2},{"source":3}],"materials":[{"name":"Panier","pbrMetallicRoughness":{"baseColorTexture":{"index":0,"texCoord":0,"extensions":{"KHR_texture_transform":{"offset":[0.25,0.125],"scale":[0.000122100129,0.000122100129]}}},"metallicFactor":0,"roughnessFactor":0.5},"doubleSided":true},{"name":"fer","pbrMetallicRoughness":{"baseColorTexture":{"index":1,"texCoord":0,"extensions":{"KHR_texture_transform":{"offset":[0,0],"scale":[0.000244200259,0.000244200259]}}},"metallicFactor":0.491666675,"roughnessFactor":0.5},"doubleSided":true},{"name":"team_color","pbrMetallicRoughness":{"baseColorTexture":{"index":2,"texCoord":0,"extensions":{"KHR_texture_transform":{"offset":[0.0312499702,0],"scale":[0.000228937788,0.000244200259]}}},"metallicFactor":0,"roughnessFactor":0.5},"doubleSided":true},{"name":"base_balloon","pbrMetallicRoughness":{"baseColorTexture":{"index":3,"texCoord":0,"extensions":{"KHR_texture_transform":{"offset":[0,0],"scale":[0.000244200317,0.000244200259]}}},"metallicFactor":0,"roughnessFactor":0.5},"doubleSided":true}],"meshes":[{"primitives":[{"attributes":{"POSITION":0,"NORMAL":1,"TEXCOORD_0":2},"mode":4,"indices":3,"material":0},{"attributes":{"POSITION":4,"NORMAL":5,"TEXCOORD_0":6},"mode":4,"indices":7,"material":1},{"attributes":{"POSITION":8,"NORMAL":9,"TEXCOORD_0":10},"mode":4,"indices":11,"material":2},{"attributes":{"POSITION":12,"NORMAL":13,"TEXCOORD_0":14},"mode":4,"indices":15,"material":3}]}],"nodes":[{"mesh":0,"translation":[-0.0528173782,0.0263061747,-0.0534272343],"scale":[1.05751988e-05,1.05751988e-05,1.05751988e-05]}],"scenes":[{"nodes":[0]}],"scene":0}