{"buffers":[{"uri":"overboard.bin","byteLength":468624}],"asset":{"version":"2.0","generator":"gltfpack 0.14"},"extensionsUsed":["KHR_mesh_quantization","KHR_texture_transform"],"extensionsRequired":["KHR_mesh_quantization"],"bufferViews":[{"buffer":0,"byteOffset":0,"byteLength":205152,"byteStride":8,"target":34962},{"buffer":0,"byteOffset":205152,"byteLength":102576,"byteStride":4,"target":34962},{"buffer":0,"byteOffset":307728,"byteLength":102576,"byteStride":4,"target":34962},{"buffer":0,"byteOffset":410304,"byteLength":58320,"target":34963}],"accessors":[{"bufferView":0,"byteOffset":0,"componentType":5123,"count":9378,"type":"VEC3","min":[102,1489,0],"max":[16281,5198,5193]},{"bufferView":1,"byteOffset":0,"componentType":5120,"count":9378,"type":"VEC3","normalized":true},{"bufferView":2,"byteOffset":0,"componentType":5123,"count":9378,"type":"VEC2"},{"bufferView":3,"byteOffset":0,"componentType":5123,"count":11664,"type":"SCALAR"},{"bufferView":0,"byteOffset":75024,"componentType":5123,"count":8260,"type":"VEC3","min":[87,0,121],"max":[16296,4950,5072]},{"bufferView":1,"byteOffset":37512,"componentType":5120,"count":8260,"type":"VEC3","normalized":true},{"bufferView":2,"byteOffset":37512,"componentType":5123,"count":8260,"type":"VEC2"},{"bufferView":3,"byteOffset":23328,"componentType":5123,"count":9048,"type":"SCALAR"},{"bufferView":0,"byteOffset":141104,"componentType":5123,"count":40,"type":"VEC3","min":[2281,1706,229],"max":[14102,2530,4964]},{"bufferView":1,"byteOffset":70552,"componentType":5120,"count":40,"type":"VEC3","normalized":true},{"bufferView":2,"byteOffset":70552,"componentType":5123,"count":40,"type":"VEC2"},{"bufferView":3,"byteOffset":41424,"componentType":5123,"count":48,"type":"SCALAR"},{"bufferView":0,"byteOffset":141424,"componentType":5123,"count":7966,"type":"VEC3","min":[0,240,362],"max":[16383,4710,4832]},{"bufferView":1,"byteOffset":70712,"componentType":5120,"count":7966,"type":"VEC3","normalized":true},{"bufferView":2,"byteOffset":70712,"componentType":5123,"count":7966,"type":"VEC2"},{"bufferView":3,"byteOffset":41520,"componentType":5123,"count":8400,"type":"SCALAR"}],"images":[{"uri":"blueberry.png"},{"uri":"noir.png"},{"uri":"rouge.png"},{"uri":"gris.png"}],"textures":[{"source":0},{"source":1},{"source":2},{"source":3}],"materials":[{"name":"blueberry.001","pbrMetallicRoughness":{"baseColorTexture":{"index":0,"texCoord":0,"extensions":{"KHR_texture_transform":{"offset":[0,0],"scale":[0.000244200259,0.000244200259]}}},"metallicFactor":0,"roughnessFactor":0.5},"doubleSided":true},{"name":"noir.004","pbrMetallicRoughness":{"baseColorTexture":{"index":1,"texCoord":0,"extensions":{"KHR_texture_transform":{"offset":[0,0.0145180821],"scale":[0.000244200259,0.0002242724]}}},"metallicFactor":0,"roughnessFactor":0.5},"doubleSided":true},{"name":"Material.025","pbrMetallicRoughness":{"baseColorTexture":{"index":2,"texCoord":0,"extensions":{"KHR_texture_transform":{"offset":[0.375,0.265225768],"scale":[7.27773484e-12,1.35770506e-05]}}},"metallicFactor":0,"roughnessFactor":0.5},"doubleSided":true},{"name":"Material.026","pbrMetallicRoughness":{"baseColorTexture":{"index":3,"texCoord":0,"extensions":{"KHR_texture_transform":{"offset":[0.0472807065,0.54728055],"scale":[0.00021702853,9.90082481e-05]}}},"metallicFactor":0,"roughnessFactor":0.5},"doubleSided":true}],"meshes":[{"primitives":[{"attributes":{"POSITION":0,"NORMAL":1,"TEXCOORD_0":2},"mode":4,"indices":3,"material":0},{"attributes":{"POSITION":4,"NORMAL":5,"TEXCOORD_0":6},"mode":4,"indices":7,"material":1},{"attributes":{"POSITION":8,"NORMAL":9,"TEXCOORD_0":10},"mode":4,"indices":11,"material":2},{"attributes":{"POSITION":12,"NORMAL":13,"TEXCOORD_0":14},"mode":4,"indices":15,"material":3}]}],"nodes":[{"mesh":0,"translation":[-0.0540100597,2.89518721e-05,-0.0171204098],"scale":[6.59342777e-06,6.59342777e-06,6.59342777e-06]}],"scenes":[{"nodes":[0]}],"scene":0}