{"buffers":[{"uri":"schoolbus.bin","byteLength":162076}],"asset":{"version":"2.0","generator":"gltfpack 0.14"},"extensionsUsed":["KHR_mesh_quantization","KHR_texture_transform"],"extensionsRequired":["KHR_mesh_quantization"],"bufferViews":[{"buffer":0,"byteOffset":0,"byteLength":67664,"byteStride":8,"target":34962},{"buffer":0,"byteOffset":67664,"byteLength":33832,"byteStride":4,"target":34962},{"buffer":0,"byteOffset":101496,"byteLength":33832,"byteStride":4,"target":34962},{"buffer":0,"byteOffset":135328,"byteLength":26748,"target":34963}],"accessors":[{"bufferView":0,"byteOffset":0,"componentType":5123,"count":3180,"type":"VEC3","min":[464,370,0],"max":[6515,5663,16383]},{"bufferView":1,"byteOffset":0,"componentType":5120,"count":3180,"type":"VEC3","normalized":true},{"bufferView":2,"byteOffset":0,"componentType":5123,"count":3180,"type":"VEC2"},{"bufferView":3,"byteOffset":0,"componentType":5123,"count":5292,"type":"SCALAR"},{"bufferView":0,"byteOffset":25440,"componentType":5123,"count":14,"type":"VEC3","min":[635,1467,15834],"max":[6345,1854,16013]},{"bufferView":1,"byteOffset":12720,"componentType":5120,"count":14,"type":"VEC3","normalized":true},{"bufferView":2,"byteOffset":12720,"componentType":5123,"count":14,"type":"VEC2"},{"bufferView":3,"byteOffset":10584,"componentType":5123,"count":30,"type":"SCALAR"},{"bufferView":0,"byteOffset":25552,"componentType":5123,"count":1328,"type":"VEC3","min":[282,0,3480],"max":[6697,2436,16383]},{"bufferView":1,"byteOffset":12776,"componentType":5120,"count":1328,"type":"VEC3","normalized":true},{"bufferView":2,"byteOffset":12776,"componentType":5123,"count":1328,"type":"VEC2"},{"bufferView":3,"byteOffset":10644,"componentType":5123,"count":1992,"type":"SCALAR"},{"bufferView":0,"byteOffset":36176,"componentType":5123,"count":1616,"type":"VEC3","min":[353,370,3849],"max":[6626,2436,16183]},{"bufferView":1,"byteOffset":18088,"componentType":5120,"count":1616,"type":"VEC3","normalized":true},{"bufferView":2,"byteOffset":18088,"componentType":5123,"count":1616,"type":"VEC2"},{"bufferView":3,"byteOffset":14628,"componentType":5123,"count":2520,"type":"SCALAR"},{"bufferView":0,"byteOffset":49104,"componentType":5123,"count":224,"type":"VEC3","min":[32,1048,244],"max":[6947,5239,13544]},{"bufferView":1,"byteOffset":24552,"componentType":5120,"count":224,"type":"VEC3","normalized":true},{"bufferView":2,"byteOffset":24552,"componentType":5123,"count":224,"type":"VEC2"},{"bufferView":3,"byteOffset":19668,"componentType":5123,"count":336,"type":"SCALAR"},{"bufferView":0,"byteOffset":50896,"componentType":5123,"count":2080,"type":"VEC3","min":[0,735,6],"max":[6979,5261,13061]},{"bufferView":1,"byteOffset":25448,"componentType":5120,"count":2080,"type":"VEC3","normalized":true},{"bufferView":2,"byteOffset":25448,"componentType":5123,"count":2080,"type":"VEC2"},{"bufferView":3,"byteOffset":20340,"componentType":5123,"count":3180,"type":"SCALAR"},{"bufferView":0,"byteOffset":67536,"componentType":5123,"count":16,"type":"VEC3","min":[913,2661,56],"max":[6066,3076,57]},{"bufferView":1,"byteOffset":33768,"componentType":5120,"count":16,"type":"VEC3","normalized":true},{"bufferView":2,"byteOffset":33768,"componentType":5123,"count":16,"type":"VEC2"},{"bufferView":3,"byteOffset":26700,"componentType":5123,"count":24,"type":"SCALAR"}],"images":[{"uri":"orange.png"},{"uri":"blanc.png"},{"uri":"noir.png"},{"uri":"gris.png"},{"uri":"ice.png"},{"uri":"cayenne.png"}],"textures":[{"source":0},{"source":1},{"source":2},{"source":3},{"source":4},{"source":2},{"source":5}],"materials":[{"name":"carrosserie","pbrMetallicRoughness":{"baseColorTexture":{"index":0,"texCoord":0,"extensions":{"KHR_texture_transform":{"offset":[0,0.125],"scale":[0.000183150201,0.000213675215]}}},"metallicFactor":0.350877196,"roughnessFactor":0.400000006},"doubleSided":true},{"name":"phares avants","pbrMetallicRoughness":{},"emissiveTexture":{"index":1,"texCoord":0,"extensions":{"KHR_texture_transform":{"offset":[0.439551204,0.50000006],"scale":[1.70345047e-05,1.45554697e-11]}}},"emissiveFactor":[1,1,1],"doubleSided":true},{"name":"pneus","pbrMetallicRoughness":{"baseColorTexture":{"index":2,"texCoord":0,"extensions":{"KHR_texture_transform":{"offset":[0,0.537602246],"scale":[0.000136442657,0.000112917645]}}},"metallicFactor":0,"roughnessFactor":0.798245609},"doubleSided":true},{"name":"jantes","pbrMetallicRoughness":{"baseColorTexture":{"index":3,"texCoord":0,"extensions":{"KHR_texture_transform":{"offset":[0,0.537602246],"scale":[0.000136442657,0.000112917645]}}},"metallicFactor":0,"roughnessFactor":0.508771896},"doubleSided":true},{"name":"vitres","pbrMetallicRoughness":{"baseColorTexture":{"index":4,"texCoord":0,"extensions":{"KHR_texture_transform":{"offset":[0.441761076,0.131425798],"scale":[7.52720225e-05,2.89558775e-05]}}},"metallicFactor":0,"roughnessFactor":0.5},"doubleSided":true},{"name":"Material","pbrMetallicRoughness":{"baseColorTexture":{"index":5,"texCoord":0,"extensions":{"KHR_texture_transform":{"offset":[0.386938214,0.128203869],"scale":[5.81370768e-05,2.97426741e-05]}}},"metallicFactor":0,"roughnessFactor":0.342105269},"doubleSided":true},{"name":"phares arri\u00e8res","pbrMetallicRoughness":{},"emissiveTexture":{"index":6,"texCoord":0,"extensions":{"KHR_texture_transform":{"offset":[0.524680257,0.249999881],"scale":[2.18302775e-05,5.82218787e-11]}}},"emissiveFactor":[1,1,1],"doubleSided":true}],"meshes":[{"primitives":[{"attributes":{"POSITION":0,"NORMAL":1,"TEXCOORD_0":2},"mode":4,"indices":3,"material":0},{"attributes":{"POSITION":4,"NORMAL":5,"TEXCOORD_0":6},"mode":4,"indices":7,"material":1},{"attributes":{"POSITION":8,"NORMAL":9,"TEXCOORD_0":10},"mode":4,"indices":11,"material":2},{"attributes":{"POSITION":12,"NORMAL":13,"TEXCOORD_0":14},"mode":4,"indices":15,"material":3},{"attributes":{"POSITION":16,"NORMAL":17,"TEXCOORD_0":18},"mode":4,"indices":19,"material":4},{"attributes":{"POSITION":20,"NORMAL":21,"TEXCOORD_0":22},"mode":4,"indices":23,"material":5},{"attributes":{"POSITION":24,"NORMAL":25,"TEXCOORD_0":26},"mode":4,"indices":27,"material":6}]}],"nodes":[{"mesh":0,"translation":[-0.0521542318,0.00496253697,-0.141498134],"scale":[1.49455418e-05,1.49455418e-05,1.49455418e-05]}],"scenes":[{"nodes":[0]}],"scene":0}