{"buffers":[{"uri":"d32.bin","byteLength":3892}],"asset":{"version":"2.0","generator":"gltfpack 0.14"},"extensionsUsed":["KHR_mesh_quantization","KHR_texture_transform"],"extensionsRequired":["KHR_mesh_quantization"],"bufferViews":[{"buffer":0,"byteOffset":0,"byteLength":1568,"byteStride":8,"target":34962},{"buffer":0,"byteOffset":1568,"byteLength":784,"byteStride":4,"target":34962},{"buffer":0,"byteOffset":2352,"byteLength":784,"byteStride":4,"target":34962},{"buffer":0,"byteOffset":3136,"byteLength":756,"target":34963}],"accessors":[{"bufferView":0,"byteOffset":0,"componentType":5123,"count":4,"type":"VEC3","min":[144,14090,128],"max":[3223,16120,128]},{"bufferView":1,"byteOffset":0,"componentType":5120,"count":4,"type":"VEC3","normalized":true},{"bufferView":2,"byteOffset":0,"componentType":5123,"count":4,"type":"VEC2"},{"bufferView":3,"byteOffset":0,"componentType":5123,"count":6,"type":"SCALAR"},{"bufferView":0,"byteOffset":32,"componentType":5123,"count":192,"type":"VEC3","min":[0,0,0],"max":[278,16383,278]},{"bufferView":1,"byteOffset":16,"componentType":5120,"count":192,"type":"VEC3","normalized":true},{"bufferView":2,"byteOffset":16,"componentType":5123,"count":192,"type":"VEC2"},{"bufferView":3,"byteOffset":12,"componentType":5123,"count":372,"type":"SCALAR"}],"images":[{"uri":"blanc.png"},{"uri":"mercury.png"}],"textures":[{"source":0},{"source":1}],"materials":[{"name":"team","pbrMetallicRoughness":{"baseColorTexture":{"index":0,"texCoord":0,"extensions":{"KHR_texture_transform":{"offset":[0,0],"scale":[0.000244200259,0.000244200259]}}},"metallicFactor":0,"roughnessFactor":0.5},"doubleSided":true},{"name":"mercury","pbrMetallicRoughness":{"baseColorTexture":{"index":1,"texCoord":0,"extensions":{"KHR_texture_transform":{"offset":[0,0],"scale":[0.000244200259,0.000241758244]}}},"metallicFactor":0,"roughnessFactor":0.5},"doubleSided":true}],"meshes":[{"primitives":[{"attributes":{"POSITION":0,"NORMAL":1,"TEXCOORD_0":2},"mode":4,"indices":3,"material":0},{"attributes":{"POSITION":4,"NORMAL":5,"TEXCOORD_0":6},"mode":4,"indices":7,"material":1}]}],"nodes":[{"mesh":0,"translation":[1.66366112,-0.00671164226,-1.00671864],"scale":[2.03364525e-05,2.03364525e-05,2.03364525e-05]}],"scenes":[{"nodes":[0]}],"scene":0}