{
    "asset" : {
        "generator" : "Khronos glTF Blender I/O v1.1.45",
        "version" : "2.0"
    },
    "scene" : 0,
    "scenes" : [
        {
            "name" : "Scene",
            "nodes" : [
                0
            ]
        }
    ],
    "nodes" : [
        {
            "mesh" : 0,
            "name" : "Cube.006",
            "rotation" : [
                0,
                -0.7071067094802856,
                -0.7071068286895752,
                -5.760116295050466e-08
            ],
            "scale" : [
                0.02622099593281746,
                0.026221005246043205,
                0.026221005246043205
            ]
        }
    ],
    "materials" : [
        {
            "doubleSided" : true,
            "emissiveFactor" : [
                0,
                0,
                0
            ],
            "name" : "Pions",
            "pbrMetallicRoughness" : {
                "baseColorTexture" : {
                    "index" : 0,
                    "texCoord" : 0
                },
                "metallicFactor" : 0,
                "roughnessFactor" : 0.75
            }
        }
    ],
    "meshes" : [
        {
            "name" : "Cube.065",
            "primitives" : [
                {
                    "attributes" : {
                        "POSITION" : 0,
                        "NORMAL" : 1,
                        "TEXCOORD_0" : 2
                    },
                    "indices" : 3,
                    "material" : 0
                }
            ]
        }
    ],
    "textures" : [
        {
            "source" : 0
        }
    ],
    "images" : [
        {
            "mimeType" : "image/png",
            "name" : "pions",
            "uri" : "pions.png"
        }
    ],
    "accessors" : [
        {
            "bufferView" : 0,
            "componentType" : 5126,
            "count" : 37771,
            "max" : [
                1.5290162563323975,
                3.919847011566162,
                3.4044525623321533
            ],
            "min" : [
                -1.5438416004180908,
                -5.392133712768555,
                0.01597648859024048
            ],
            "type" : "VEC3"
        },
        {
            "bufferView" : 1,
            "componentType" : 5126,
            "count" : 37771,
            "type" : "VEC3"
        },
        {
            "bufferView" : 2,
            "componentType" : 5126,
            "count" : 37771,
            "type" : "VEC2"
        },
        {
            "bufferView" : 3,
            "componentType" : 5123,
            "count" : 40776,
            "type" : "SCALAR"
        }
    ],
    "bufferViews" : [
        {
            "buffer" : 0,
            "byteLength" : 453252,
            "byteOffset" : 0
        },
        {
            "buffer" : 0,
            "byteLength" : 453252,
            "byteOffset" : 453252
        },
        {
            "buffer" : 0,
            "byteLength" : 302168,
            "byteOffset" : 906504
        },
        {
            "buffer" : 0,
            "byteLength" : 81552,
            "byteOffset" : 1208672
        }
    ],
    "buffers" : [
        {
            "byteLength" : 1290224,
            "uri" : "camion.bin"
        }
    ]
}
