{
    "asset" : {
        "generator" : "Khronos glTF Blender I/O v1.1.45",
        "version" : "2.0"
    },
    "scene" : 0,
    "scenes" : [
        {
            "name" : "Scene",
            "nodes" : [
                0
            ]
        }
    ],
    "nodes" : [
        {
            "mesh" : 0,
            "name" : "Cube",
            "rotation" : [
                0,
                0.7071068286895752,
                -0.7071067094802856,
                -1.1520233300643667e-07
            ],
            "scale" : [
                0.026220999658107758,
                0.026220999658107758,
                0.026220999658107758
            ]
        }
    ],
    "materials" : [
        {
            "doubleSided" : true,
            "emissiveFactor" : [
                0,
                0,
                0
            ],
            "name" : "Material.002",
            "pbrMetallicRoughness" : {
                "baseColorTexture" : {
                    "index" : 0,
                    "texCoord" : 0
                },
                "metallicFactor" : 0,
                "roughnessFactor" : 1
            }
        }
    ],
    "meshes" : [
        {
            "name" : "Cube.001",
            "primitives" : [
                {
                    "attributes" : {
                        "POSITION" : 0,
                        "NORMAL" : 1,
                        "TEXCOORD_0" : 2
                    },
                    "indices" : 3,
                    "material" : 0
                }
            ]
        }
    ],
    "textures" : [
        {
            "source" : 0
        }
    ],
    "images" : [
        {
            "mimeType" : "image/png",
            "name" : "pions",
            "uri" : "pions.png"
        }
    ],
    "accessors" : [
        {
            "bufferView" : 0,
            "componentType" : 5126,
            "count" : 35514,
            "max" : [
                1.6823234558105469,
                5.841108798980713,
                -0.011968612670898438
            ],
            "min" : [
                -1.7025132179260254,
                -4.416289806365967,
                -3.744466781616211
            ],
            "type" : "VEC3"
        },
        {
            "bufferView" : 1,
            "componentType" : 5126,
            "count" : 35514,
            "type" : "VEC3"
        },
        {
            "bufferView" : 2,
            "componentType" : 5126,
            "count" : 35514,
            "type" : "VEC2"
        },
        {
            "bufferView" : 3,
            "componentType" : 5123,
            "count" : 40776,
            "type" : "SCALAR"
        }
    ],
    "bufferViews" : [
        {
            "buffer" : 0,
            "byteLength" : 426168,
            "byteOffset" : 0
        },
        {
            "buffer" : 0,
            "byteLength" : 426168,
            "byteOffset" : 426168
        },
        {
            "buffer" : 0,
            "byteLength" : 284112,
            "byteOffset" : 852336
        },
        {
            "buffer" : 0,
            "byteLength" : 81552,
            "byteOffset" : 1136448
        }
    ],
    "buffers" : [
        {
            "byteLength" : 1218000,
            "uri" : "camion.bin"
        }
    ]
}
