{
    "asset" : {
        "generator" : "Khronos glTF Blender I/O v1.1.45",
        "version" : "2.0"
    },
    "scene" : 0,
    "scenes" : [
        {
            "name" : "Scene",
            "nodes" : [
                0
            ]
        }
    ],
    "nodes" : [
        {
            "mesh" : 0,
            "name" : "montgolfiere.001",
            "rotation" : [
                -0.7071065902709961,
                0,
                0,
                0.7071069478988647
            ],
            "scale" : [
                0.03211095184087753,
                0.03211095929145813,
                0.03211095929145813
            ]
        }
    ],
    "materials" : [
        {
            "doubleSided" : true,
            "emissiveFactor" : [
                0,
                0,
                0
            ],
            "name" : "Pions",
            "pbrMetallicRoughness" : {
                "baseColorTexture" : {
                    "index" : 0,
                    "texCoord" : 0
                },
                "metallicFactor" : 0,
                "roughnessFactor" : 0.75
            }
        }
    ],
    "meshes" : [
        {
            "name" : "Cube.064",
            "primitives" : [
                {
                    "attributes" : {
                        "POSITION" : 0,
                        "NORMAL" : 1,
                        "TEXCOORD_0" : 2
                    },
                    "indices" : 3,
                    "material" : 0
                }
            ]
        }
    ],
    "textures" : [
        {
            "source" : 0
        }
    ],
    "images" : [
        {
            "mimeType" : "image/png",
            "name" : "pions",
            "uri" : "pions.png"
        }
    ],
    "accessors" : [
        {
            "bufferView" : 0,
            "componentType" : 5126,
            "count" : 5892,
            "max" : [
                2.1649749279022217,
                2.1360585689544678,
                6.899349212646484
            ],
            "min" : [
                -2.114333391189575,
                -2.1432502269744873,
                -0.012911319732666016
            ],
            "type" : "VEC3"
        },
        {
            "bufferView" : 1,
            "componentType" : 5126,
            "count" : 5892,
            "type" : "VEC3"
        },
        {
            "bufferView" : 2,
            "componentType" : 5126,
            "count" : 5892,
            "type" : "VEC2"
        },
        {
            "bufferView" : 3,
            "componentType" : 5123,
            "count" : 7932,
            "type" : "SCALAR"
        }
    ],
    "bufferViews" : [
        {
            "buffer" : 0,
            "byteLength" : 70704,
            "byteOffset" : 0
        },
        {
            "buffer" : 0,
            "byteLength" : 70704,
            "byteOffset" : 70704
        },
        {
            "buffer" : 0,
            "byteLength" : 47136,
            "byteOffset" : 141408
        },
        {
            "buffer" : 0,
            "byteLength" : 15864,
            "byteOffset" : 188544
        }
    ],
    "buffers" : [
        {
            "byteLength" : 204408,
            "uri" : "montgolfiere.bin"
        }
    ]
}
