{
    "asset" : {
        "generator" : "Khronos glTF Blender I/O v1.1.45",
        "version" : "2.0"
    },
    "scene" : 0,
    "scenes" : [
        {
            "name" : "Scene",
            "nodes" : [
                0
            ]
        }
    ],
    "nodes" : [
        {
            "mesh" : 0,
            "name" : "Plane.002",
            "rotation" : [
                -0.7071066498756409,
                0.70710688829422,
                0,
                2.6429596289290203e-08
            ],
            "scale" : [
                0.0035424381494522095,
                0.003542437218129635,
                0.0035424374509602785
            ]
        }
    ],
    "materials" : [
        {
            "doubleSided" : true,
            "emissiveFactor" : [
                0,
                0,
                0
            ],
            "name" : "Pions",
            "pbrMetallicRoughness" : {
                "baseColorTexture" : {
                    "index" : 0,
                    "texCoord" : 0
                },
                "metallicFactor" : 0,
                "roughnessFactor" : 0.75
            }
        }
    ],
    "meshes" : [
        {
            "name" : "Plane.004",
            "primitives" : [
                {
                    "attributes" : {
                        "POSITION" : 0,
                        "NORMAL" : 1,
                        "TEXCOORD_0" : 2
                    },
                    "indices" : 3,
                    "material" : 0
                }
            ]
        }
    ],
    "textures" : [
        {
            "source" : 0
        }
    ],
    "images" : [
        {
            "mimeType" : "image/png",
            "name" : "pions",
            "uri" : "pions.png"
        }
    ],
    "accessors" : [
        {
            "bufferView" : 0,
            "componentType" : 5126,
            "count" : 17145,
            "max" : [
                -0.3174934387207031,
                10.231765747070312,
                32.06727600097656
            ],
            "min" : [
                -47.182926177978516,
                -10.231771469116211,
                -30.103004455566406
            ],
            "type" : "VEC3"
        },
        {
            "bufferView" : 1,
            "componentType" : 5126,
            "count" : 17145,
            "type" : "VEC3"
        },
        {
            "bufferView" : 2,
            "componentType" : 5126,
            "count" : 17145,
            "type" : "VEC2"
        },
        {
            "bufferView" : 3,
            "componentType" : 5123,
            "count" : 18570,
            "type" : "SCALAR"
        }
    ],
    "bufferViews" : [
        {
            "buffer" : 0,
            "byteLength" : 205740,
            "byteOffset" : 0
        },
        {
            "buffer" : 0,
            "byteLength" : 205740,
            "byteOffset" : 205740
        },
        {
            "buffer" : 0,
            "byteLength" : 137160,
            "byteOffset" : 411480
        },
        {
            "buffer" : 0,
            "byteLength" : 37140,
            "byteOffset" : 548640
        }
    ],
    "buffers" : [
        {
            "byteLength" : 585780,
            "uri" : "moto.bin"
        }
    ]
}
