{
    "asset" : {
        "generator" : "Khronos glTF Blender I/O v1.1.45",
        "version" : "2.0"
    },
    "scene" : 0,
    "scenes" : [
        {
            "name" : "Scene",
            "nodes" : [
                0
            ]
        }
    ],
    "nodes" : [
        {
            "mesh" : 0,
            "name" : "Cube.007",
            "rotation" : [
                0,
                0.7071070671081543,
                0,
                0.7071064710617065
            ],
            "scale" : [
                0.016319576650857925,
                0.005942221265286207,
                0.016319572925567627
            ]
        }
    ],
    "materials" : [
        {
            "doubleSided" : true,
            "emissiveFactor" : [
                0,
                0,
                0
            ],
            "name" : "Pions",
            "pbrMetallicRoughness" : {
                "baseColorTexture" : {
                    "index" : 0,
                    "texCoord" : 0
                },
                "metallicFactor" : 0,
                "roughnessFactor" : 0.75
            }
        }
    ],
    "meshes" : [
        {
            "name" : "Cube.066",
            "primitives" : [
                {
                    "attributes" : {
                        "POSITION" : 0,
                        "NORMAL" : 1,
                        "TEXCOORD_0" : 2
                    },
                    "indices" : 3,
                    "material" : 0
                }
            ]
        }
    ],
    "textures" : [
        {
            "source" : 0
        }
    ],
    "images" : [
        {
            "mimeType" : "image/png",
            "name" : "pions",
            "uri" : "pions.png"
        }
    ],
    "accessors" : [
        {
            "bufferView" : 0,
            "componentType" : 5126,
            "count" : 31071,
            "max" : [
                1.6864885091781616,
                29.969568252563477,
                3.309527635574341
            ],
            "min" : [
                -1.4239211082458496,
                0.0048732757568359375,
                -3.309527635574341
            ],
            "type" : "VEC3"
        },
        {
            "bufferView" : 1,
            "componentType" : 5126,
            "count" : 31071,
            "type" : "VEC3"
        },
        {
            "bufferView" : 2,
            "componentType" : 5126,
            "count" : 31071,
            "type" : "VEC2"
        },
        {
            "bufferView" : 3,
            "componentType" : 5123,
            "count" : 32199,
            "type" : "SCALAR"
        }
    ],
    "bufferViews" : [
        {
            "buffer" : 0,
            "byteLength" : 372852,
            "byteOffset" : 0
        },
        {
            "buffer" : 0,
            "byteLength" : 372852,
            "byteOffset" : 372852
        },
        {
            "buffer" : 0,
            "byteLength" : 248568,
            "byteOffset" : 745704
        },
        {
            "buffer" : 0,
            "byteLength" : 64398,
            "byteOffset" : 994272
        }
    ],
    "buffers" : [
        {
            "byteLength" : 1058672,
            "uri" : "overboard.bin"
        }
    ]
}
