{
    "asset" : {
        "generator" : "Khronos glTF Blender I/O v1.1.45",
        "version" : "2.0"
    },
    "scene" : 0,
    "scenes" : [
        {
            "name" : "Scene",
            "nodes" : [
                0
            ]
        }
    ],
    "nodes" : [
        {
            "mesh" : 0,
            "name" : "Tracteur.001",
            "rotation" : [
                -0.7071065902709961,
                0,
                0,
                0.7071069478988647
            ],
            "scale" : [
                0.02722836285829544,
                0.027228370308876038,
                0.027228370308876038
            ]
        }
    ],
    "materials" : [
        {
            "doubleSided" : true,
            "emissiveFactor" : [
                0,
                0,
                0
            ],
            "name" : "Pions",
            "pbrMetallicRoughness" : {
                "baseColorTexture" : {
                    "index" : 0,
                    "texCoord" : 0
                },
                "metallicFactor" : 0,
                "roughnessFactor" : 0.75
            }
        }
    ],
    "meshes" : [
        {
            "name" : "Cube.063",
            "primitives" : [
                {
                    "attributes" : {
                        "POSITION" : 0,
                        "NORMAL" : 1,
                        "TEXCOORD_0" : 2
                    },
                    "indices" : 3,
                    "material" : 0
                }
            ]
        }
    ],
    "textures" : [
        {
            "source" : 0
        }
    ],
    "images" : [
        {
            "mimeType" : "image/png",
            "name" : "pions",
            "uri" : "pions.png"
        }
    ],
    "accessors" : [
        {
            "bufferView" : 0,
            "componentType" : 5126,
            "count" : 18054,
            "max" : [
                2.31609845161438,
                3.5797934532165527,
                5.7082695960998535
            ],
            "min" : [
                -2.2964861392974854,
                -3.369387149810791,
                0.052979230880737305
            ],
            "type" : "VEC3"
        },
        {
            "bufferView" : 1,
            "componentType" : 5126,
            "count" : 18054,
            "type" : "VEC3"
        },
        {
            "bufferView" : 2,
            "componentType" : 5126,
            "count" : 18054,
            "type" : "VEC2"
        },
        {
            "bufferView" : 3,
            "componentType" : 5123,
            "count" : 18936,
            "type" : "SCALAR"
        }
    ],
    "bufferViews" : [
        {
            "buffer" : 0,
            "byteLength" : 216648,
            "byteOffset" : 0
        },
        {
            "buffer" : 0,
            "byteLength" : 216648,
            "byteOffset" : 216648
        },
        {
            "buffer" : 0,
            "byteLength" : 144432,
            "byteOffset" : 433296
        },
        {
            "buffer" : 0,
            "byteLength" : 37872,
            "byteOffset" : 577728
        }
    ],
    "buffers" : [
        {
            "byteLength" : 615600,
            "uri" : "tracteur.bin"
        }
    ]
}
