{
    "asset" : {
        "generator" : "Khronos glTF Blender I/O v1.1.45",
        "version" : "2.0"
    },
    "scene" : 0,
    "scenes" : [
        {
            "name" : "Scene",
            "nodes" : [
                0
            ]
        }
    ],
    "nodes" : [
        {
            "mesh" : 0,
            "name" : "hotel",
            "rotation" : [
                0,
                1,
                0,
                -4.371138828673793e-08
            ],
            "scale" : [
                0.14629700779914856,
                0.14629700779914856,
                0.14629700779914856
            ],
            "translation" : [
                1.3372265100479126,
                -0.016938786953687668,
                1.6715246438980103
            ]
        }
    ],
    "materials" : [
        {
            "doubleSided" : true,
            "emissiveFactor" : [
                0,
                0,
                0
            ],
            "name" : "Material.027",
            "pbrMetallicRoughness" : {
                "baseColorTexture" : {
                    "index" : 0,
                    "texCoord" : 0
                },
                "metallicFactor" : 0,
                "roughnessFactor" : 0.7333333492279053
            }
        }
    ],
    "meshes" : [
        {
            "name" : "Cube.060",
            "primitives" : [
                {
                    "attributes" : {
                        "POSITION" : 0,
                        "NORMAL" : 1,
                        "TEXCOORD_0" : 2
                    },
                    "indices" : 3,
                    "material" : 0
                }
            ]
        }
    ],
    "textures" : [
        {
            "source" : 0
        }
    ],
    "images" : [
        {
            "mimeType" : "image/png",
            "name" : "textureHotel",
            "uri" : "textureHotel.png"
        }
    ],
    "accessors" : [
        {
            "bufferView" : 0,
            "componentType" : 5126,
            "count" : 16041,
            "max" : [
                0.9417348504066467,
                1.8460509777069092,
                0.724257230758667
            ],
            "min" : [
                -0.9452314376831055,
                -0.0004132986068725586,
                -0.7217298746109009
            ],
            "type" : "VEC3"
        },
        {
            "bufferView" : 1,
            "componentType" : 5126,
            "count" : 16041,
            "type" : "VEC3"
        },
        {
            "bufferView" : 2,
            "componentType" : 5126,
            "count" : 16041,
            "type" : "VEC2"
        },
        {
            "bufferView" : 3,
            "componentType" : 5123,
            "count" : 24678,
            "type" : "SCALAR"
        }
    ],
    "bufferViews" : [
        {
            "buffer" : 0,
            "byteLength" : 192492,
            "byteOffset" : 0
        },
        {
            "buffer" : 0,
            "byteLength" : 192492,
            "byteOffset" : 192492
        },
        {
            "buffer" : 0,
            "byteLength" : 128328,
            "byteOffset" : 384984
        },
        {
            "buffer" : 0,
            "byteLength" : 49356,
            "byteOffset" : 513312
        }
    ],
    "buffers" : [
        {
            "byteLength" : 562668,
            "uri" : "hotel.bin"
        }
    ]
}
