{
    "asset" : {
        "generator" : "Khronos glTF Blender I/O v1.1.45",
        "version" : "2.0"
    },
    "scene" : 0,
    "scenes" : [
        {
            "name" : "Scene",
            "nodes" : [
                0
            ]
        }
    ],
    "nodes" : [
        {
            "mesh" : 0,
            "name" : "base_Cube.069",
            "rotation" : [
                -0.7071068286895752,
                0,
                -0.7071068286895752,
                6.857645473701268e-08
            ],
            "scale" : [
                0.10088207572698593,
                0.10088207572698593,
                0.10088206082582474
            ],
            "translation" : [
                1.6812183856964111,
                -0.018597014248371124,
                -0.03439664840698242
            ]
        }
    ],
    "materials" : [
        {
            "doubleSided" : true,
            "emissiveFactor" : [
                0,
                0,
                0
            ],
            "name" : "Material.036",
            "pbrMetallicRoughness" : {
                "baseColorTexture" : {
                    "index" : 0,
                    "texCoord" : 0
                },
                "metallicFactor" : 0,
                "roughnessFactor" : 0.5
            }
        }
    ],
    "meshes" : [
        {
            "name" : "base_Cube.074",
            "primitives" : [
                {
                    "attributes" : {
                        "POSITION" : 0,
                        "NORMAL" : 1,
                        "TEXCOORD_0" : 2
                    },
                    "indices" : 3,
                    "material" : 0
                }
            ]
        }
    ],
    "textures" : [
        {
            "source" : 0
        }
    ],
    "images" : [
        {
            "mimeType" : "image/png",
            "name" : "textureHotel",
            "uri" : "textureHotel.png"
        }
    ],
    "accessors" : [
        {
            "bufferView" : 0,
            "componentType" : 5126,
            "count" : 5692,
            "max" : [
                15.247773170471191,
                0.003921389579772949,
                0.8524117469787598
            ],
            "min" : [
                13.627202033996582,
                -2.3448169231414795,
                -0.3791177272796631
            ],
            "type" : "VEC3"
        },
        {
            "bufferView" : 1,
            "componentType" : 5126,
            "count" : 5692,
            "type" : "VEC3"
        },
        {
            "bufferView" : 2,
            "componentType" : 5126,
            "count" : 5692,
            "type" : "VEC2"
        },
        {
            "bufferView" : 3,
            "componentType" : 5123,
            "count" : 6582,
            "type" : "SCALAR"
        }
    ],
    "bufferViews" : [
        {
            "buffer" : 0,
            "byteLength" : 68304,
            "byteOffset" : 0
        },
        {
            "buffer" : 0,
            "byteLength" : 68304,
            "byteOffset" : 68304
        },
        {
            "buffer" : 0,
            "byteLength" : 45536,
            "byteOffset" : 136608
        },
        {
            "buffer" : 0,
            "byteLength" : 13164,
            "byteOffset" : 182144
        }
    ],
    "buffers" : [
        {
            "byteLength" : 195308,
            "uri" : "maisonR.bin"
        }
    ]
}
